<?xml version="1.0" standalone="no"?>
<!DOCTYPE svg PUBLIC "-//W3C//DTD SVG 1.1//EN" "http://www.w3.org/Graphics/SVG/1.1/DTD/svg11.dtd" >
<svg xmlns="http://www.w3.org/2000/svg" xmlns:xlink="http://www.w3.org/1999/xlink" version="1.1">
<metadata>
Created by FontForge 20181214 at Fri Sep  7 13:57:26 2018
 By convertio
Copyright 2018 The Sarabun Project Authors (https://github.com/cadsondemak/Sarabun)
</metadata>
<defs>
<font id="Sarabun-Bold" horiz-adv-x="0" >
  <font-face 
    font-family="Sarabun"
    font-weight="700"
    font-stretch="normal"
    units-per-em="1000"
    panose-1="0 0 8 0 0 0 0 0 0 0"
    ascent="800"
    descent="-200"
    x-height="500"
    cap-height="700"
    bbox="-715 -559 1337 1281"
    underline-thickness="50"
    underline-position="-100"
    unicode-range="U+000D-FB02"
  />
<missing-glyph horiz-adv-x="700" 
d="M100 750h500v-750h-500v750zM556 41v668h-412v-668h412z" />
    <glyph glyph-name="fi" unicode="fi" horiz-adv-x="615" 
d="M93 413h-82v87h82v60q0 73 46 115t126 42q37 0 69 -11.5t52 -31.5l-44 -76q-12 11 -28 17t-32 6q-29 0 -45.5 -19t-16.5 -52v-50h141v-87h-141v-413h-127v413zM438 578.5q-22 20.5 -22 54.5t22 54.5t59 20.5t59.5 -20.5t22.5 -54.5t-22 -54.5t-60 -20.5q-37 0 -59 20.5z
M434 500h127v-500h-127v500z" />
    <glyph glyph-name="fl" unicode="fl" horiz-adv-x="653" 
d="M93 413h-82v87h82v60q0 73 46 115t126 42q37 0 69 -11.5t52 -31.5l-44 -76q-12 11 -28 17t-32 6q-29 0 -45.5 -19t-16.5 -52v-50h141v-87h-141v-413h-127v413zM451.5 24.5q-33.5 34.5 -33.5 99.5v618h127v-620q0 -22 11.5 -32.5t34.5 -10.5t57 13l19 -68
q-45 -34 -118 -34q-64 0 -97.5 34.5z" />
    <glyph glyph-name="uni0E240E45" unicode="&#xe24;&#xe45;" horiz-adv-x="907" 
d="M788 541q56 -45 56 -126v-665h-128v657q0 38 -22 58.5t-63 20.5q-45 0 -70 -28.5t-26 -77.5v-630h-128v616q0 53 -33.5 86.5t-88.5 33.5q-47 0 -84.5 -20t-50.5 -52q33 -7 64.5 -18t51.5 -24v-36q-35 -13 -53.5 -38t-18.5 -60v-33h5q48 0 78.5 -29.5t30.5 -77.5
q0 -47 -33 -77.5t-85 -30.5q-55 0 -89.5 32.5t-34.5 84.5v125q0 36 18.5 65t51.5 44q-32 9 -103 18q1 67 34 118.5t92 80t135 28.5q54 0 99 -15.5t77 -43.5q59 59 162 59q100 0 156 -45zM166.5 129.5q-12.5 -12.5 -12.5 -31.5q0 -20 12.5 -32.5t32.5 -12.5t32.5 12.5
t12.5 32.5q0 19 -12.5 31.5t-32.5 12.5t-32.5 -12.5z" />
    <glyph glyph-name="uni0E260E45" unicode="&#xe26;&#xe45;" horiz-adv-x="931" 
d="M811.5 541q55.5 -45 55.5 -126v-665h-128v657q0 38 -22 58.5t-63 20.5q-44 0 -69 -28.5t-27 -77.5v-630h-127v616q0 56 -32 88t-85 32q-43 0 -78.5 -18t-49.5 -54q33 -7 67 -18.5t54 -23.5v-36q-65 -24 -65 -77q0 -12 5 -40q12 -65 12 -106q0 -56 -36 -89.5t-94 -33.5
q-52 0 -84 29.5t-32 76.5q0 49 29 79t76 30q13 0 22 -4q-8 27 -8 52q0 26 10.5 49.5t29.5 38.5q-38 11 -103 18q1 66 32 117.5t88.5 80.5t133.5 29q54 0 98 -14.5t75 -42.5q57 57 160 57q100 0 155.5 -45zM155.5 66q12.5 13 12.5 32q0 20 -12.5 32.5t-32.5 12.5
q-19 0 -32 -12.5t-13 -32.5q0 -19 13 -32t32 -13q20 0 32.5 13z" />
    <glyph glyph-name=".notdef" horiz-adv-x="700" 
d="M100 750h500v-750h-500v750zM556 41v668h-412v-668h412z" />
    <glyph glyph-name="NULL" 
 />
    <glyph glyph-name="NULL" 
 />
    <glyph glyph-name="nonmarkingreturn" unicode="&#xd;" horiz-adv-x="233" 
 />
    <glyph glyph-name="space" unicode=" " horiz-adv-x="233" 
 />
    <glyph glyph-name="A" unicode="A" horiz-adv-x="641" 
d="M441 116h-241l-35 -116h-150l242 700h127l242 -700h-150zM406 231l-85 280l-86 -280h171z" />
    <glyph glyph-name="Aacute" unicode="&#xc1;" horiz-adv-x="641" 
d="M441 116h-241l-35 -116h-150l242 700h127l242 -700h-150zM406 231l-85 280l-86 -280h171zM355 917h124l-107 -162h-102z" />
    <glyph glyph-name="Abreve" unicode="&#x102;" horiz-adv-x="641" 
d="M441 116h-241l-35 -116h-150l242 700h127l242 -700h-150zM406 231l-85 280l-86 -280h171zM202 794q-42 39 -43 113h85q1 -34 21 -53t56 -19t56 19t21 53h85q0 -73 -42 -112.5t-120 -39.5q-77 0 -119 39z" />
    <glyph glyph-name="uni1EAE" unicode="&#x1eae;" horiz-adv-x="641" 
d="M441 116h-241l-35 -116h-150l242 700h127l242 -700h-150zM406 231l-85 280l-86 -280h171zM329 1042h91l-64 -109h-75zM202 794q-42 39 -43 113h85q1 -34 21 -53t56 -19t56 19t21 53h85q0 -73 -42 -112.5t-120 -39.5q-77 0 -119 39z" />
    <glyph glyph-name="uni1EB6" unicode="&#x1eb6;" horiz-adv-x="641" 
d="M441 116h-241l-35 -116h-150l242 700h127l242 -700h-150zM406 231l-85 280l-86 -280h171zM273 -185q-19 19 -19 47t19 47t48 19t48 -19t19 -47t-19 -47t-48 -19t-48 19zM202 794q-42 39 -43 113h85q1 -34 21 -53t56 -19t56 19t21 53h85q0 -73 -42 -112.5t-120 -39.5
q-77 0 -119 39z" />
    <glyph glyph-name="uni1EB0" unicode="&#x1eb0;" horiz-adv-x="641" 
d="M441 116h-241l-35 -116h-150l242 700h127l242 -700h-150zM406 231l-85 280l-86 -280h171zM217 1042h91l48 -109h-76zM202 794q-42 39 -43 113h85q1 -34 21 -53t56 -19t56 19t21 53h85q0 -73 -42 -112.5t-120 -39.5q-77 0 -119 39z" />
    <glyph glyph-name="uni1EB2" unicode="&#x1eb2;" horiz-adv-x="641" 
d="M441 116h-241l-35 -116h-150l242 700h127l242 -700h-150zM406 231l-85 280l-86 -280h171zM296.5 970q9.5 14 28.5 29q13 9 19 16t6 18q0 8 -7 13.5t-20 5.5q-15 0 -30 -8t-23 -21l-39 37q15 23 42 37t57 14q38 0 62 -20.5t24 -52.5q0 -20 -8 -32t-23 -25q-15 -14 -22 -24
t-8 -26h-68q0 25 9.5 39zM202 794q-42 39 -43 113h85q1 -34 21 -53t56 -19t56 19t21 53h85q0 -73 -42 -112.5t-120 -39.5q-77 0 -119 39z" />
    <glyph glyph-name="uni1EB4" unicode="&#x1eb4;" horiz-adv-x="641" 
d="M441 116h-241l-35 -116h-150l242 700h127l242 -700h-150zM406 231l-85 280l-86 -280h171zM342 950.5q-14 6.5 -35 19.5q-15 10 -23.5 14.5t-17.5 4.5q-12 0 -22 -10.5t-14 -29.5h-60q16 101 94 101q17 0 33.5 -6.5t37.5 -18.5q12 -7 25 -12.5t22 -5.5q29 0 34 42h58
q-5 -51 -31 -78t-69 -27q-18 0 -32 6.5zM202 794q-42 39 -43 113h85q1 -34 21 -53t56 -19t56 19t21 53h85q0 -73 -42 -112.5t-120 -39.5q-77 0 -119 39z" />
    <glyph glyph-name="uni01CD" unicode="&#x1cd;" horiz-adv-x="641" 
d="M441 116h-241l-35 -116h-150l242 700h127l242 -700h-150zM406 231l-85 280l-86 -280h171zM150 917h111l60 -78l60 78h111l-134 -162h-74z" />
    <glyph glyph-name="Acircumflex" unicode="&#xc2;" horiz-adv-x="641" 
d="M441 116h-241l-35 -116h-150l242 700h127l242 -700h-150zM406 231l-85 280l-86 -280h171zM284 917h74l134 -162h-111l-60 78l-60 -78h-111z" />
    <glyph glyph-name="uni1EA4" unicode="&#x1ea4;" horiz-adv-x="641" 
d="M441 116h-241l-35 -116h-150l242 700h127l242 -700h-150zM406 231l-85 280l-86 -280h171zM472 1003h91l-63 -108h-75zM284 917h73l135 -162h-112l-59 78l-60 -78h-111z" />
    <glyph glyph-name="uni1EAC" unicode="&#x1eac;" horiz-adv-x="641" 
d="M441 116h-241l-35 -116h-150l242 700h127l242 -700h-150zM406 231l-85 280l-86 -280h171zM273 -185q-19 19 -19 47t19 47t48 19t48 -19t19 -47t-19 -47t-48 -19t-48 19zM284 917h74l134 -162h-111l-60 78l-60 -78h-111z" />
    <glyph glyph-name="uni1EA6" unicode="&#x1ea6;" horiz-adv-x="641" 
d="M441 116h-241l-35 -116h-150l242 700h127l242 -700h-150zM406 231l-85 280l-86 -280h171zM395 1003h91l47 -108h-75zM284 917h73l135 -162h-112l-59 78l-60 -78h-111z" />
    <glyph glyph-name="uni1EA8" unicode="&#x1ea8;" horiz-adv-x="641" 
d="M441 116h-241l-35 -116h-150l242 700h127l242 -700h-150zM406 231l-85 280l-86 -280h171zM467 917q10 14 28 28q13 10 19 17t6 18q0 8 -7.5 13t-19.5 5q-15 0 -29.5 -7.5t-23.5 -21.5l-39 37q15 23 42.5 37t56.5 14q38 0 62 -20t24 -52q0 -20 -8 -32t-23 -25
q-15 -14 -22 -24t-8 -27h-68q0 26 10 40zM284 917h73l135 -162h-112l-59 78l-60 -78h-111z" />
    <glyph glyph-name="uni1EAA" unicode="&#x1eaa;" horiz-adv-x="641" 
d="M441 116h-241l-35 -116h-150l242 700h127l242 -700h-150zM406 231l-85 280l-86 -280h171zM342 954.5q-14 6.5 -35 19.5q-27 19 -41 19q-12 0 -22 -10.5t-14 -29.5h-60q16 101 94 101q17 0 32 -6t38 -18q3 -2 19.5 -10t28.5 -8q29 0 34 41h58q-5 -51 -31 -78t-70 -27
q-17 0 -31 6.5zM284 917h73l135 -162h-112l-59 78l-60 -78h-111z" />
    <glyph glyph-name="Adieresis" unicode="&#xc4;" horiz-adv-x="641" 
d="M441 116h-241l-35 -116h-150l242 700h127l242 -700h-150zM406 231l-85 280l-86 -280h171zM168 773.5q-19 18.5 -19 47.5t19 47.5t48 18.5t48 -19t19 -47t-19 -47t-48 -19t-48 18.5zM378 774q-19 19 -19 47t19 47t48 19t48 -18.5t19 -47.5t-19 -47.5t-48 -18.5t-48 19z
" />
    <glyph glyph-name="uni1EA0" unicode="&#x1ea0;" horiz-adv-x="641" 
d="M441 116h-241l-35 -116h-150l242 700h127l242 -700h-150zM406 231l-85 280l-86 -280h171zM273 -185q-19 19 -19 47t19 47t48 19t48 -19t19 -47t-19 -47t-48 -19t-48 19z" />
    <glyph glyph-name="Agrave" unicode="&#xc0;" horiz-adv-x="641" 
d="M441 116h-241l-35 -116h-150l242 700h127l242 -700h-150zM406 231l-85 280l-86 -280h171zM162 917h124l85 -162h-102z" />
    <glyph glyph-name="uni1EA2" unicode="&#x1ea2;" horiz-adv-x="641" 
d="M441 116h-241l-35 -116h-150l242 700h127l242 -700h-150zM406 231l-85 280l-86 -280h171zM285 801.5q11 17.5 31 35.5q15 14 22.5 25t7.5 26q0 26 -33 26q-38 0 -63 -50l-53 49q19 35 52.5 54.5t73.5 19.5q54 0 84.5 -24.5t30.5 -67.5q0 -25 -10 -42t-29 -37
q-16 -17 -24.5 -30.5t-8.5 -30.5h-92q0 29 11 46.5z" />
    <glyph glyph-name="Amacron" unicode="&#x100;" horiz-adv-x="641" 
d="M441 116h-241l-35 -116h-150l242 700h127l242 -700h-150zM406 231l-85 280l-86 -280h171zM150 855h342v-83h-342v83z" />
    <glyph glyph-name="Aogonek" unicode="&#x104;" horiz-adv-x="641" 
d="M643 -194q-19 -19 -48 -29.5t-59 -10.5q-53 0 -83 26.5t-30 76.5q0 81 94 131h-41l-35 116h-241l-35 -116h-150l242 700h127l242 -700h-22q-89 -61 -89 -114q0 -15 12 -25.5t36 -10.5q19 0 62 16zM406 231l-85 280l-86 -280h171z" />
    <glyph glyph-name="Aring" unicode="&#xc5;" horiz-adv-x="641" 
d="M441 116h-241l-35 -116h-150l242 700h127l242 -700h-150zM406 231l-85 280l-86 -280h171zM244.5 748q-29.5 28 -29.5 72t29.5 72t76.5 28t76.5 -28t29.5 -72t-29.5 -72t-76.5 -28t-76.5 28zM356.5 783q13.5 14 13.5 37t-13.5 37t-35.5 14t-35.5 -14t-13.5 -37t13.5 -37
t35.5 -14t35.5 14z" />
    <glyph glyph-name="Aringacute" unicode="&#x1fa;" horiz-adv-x="641" 
d="M377 946h-93l55 109h109zM244.5 748q-29.5 28 -29.5 72t29.5 72t76.5 28q46 0 75.5 -28t29.5 -72t-29.5 -72t-75.5 -28q-47 0 -76.5 28zM285 856.5q-14 -14.5 -14 -36.5t14 -36.5t36 -14.5t35.5 14t13.5 37t-13.5 37t-35.5 14t-36 -14.5zM441 116h-241l-35 -116h-150
l242 700h127l242 -700h-150zM406 231l-85 280l-86 -280h171z" />
    <glyph glyph-name="Atilde" unicode="&#xc3;" horiz-adv-x="641" 
d="M441 116h-241l-35 -116h-150l242 700h127l242 -700h-150zM406 231l-85 280l-86 -280h171zM181.5 848q30.5 33 74.5 33q20 0 38 -7.5t39 -20.5q12 -7 23.5 -13t20.5 -6q27 0 27 51h80q0 -64 -31.5 -97t-76.5 -33q-21 0 -38 7.5t-46 23.5q-25 16 -34 16q-11 0 -18.5 -13
t-8.5 -34h-80q0 60 30.5 93z" />
    <glyph glyph-name="AE" unicode="&#xc6;" horiz-adv-x="827" 
d="M521 585v-164h235v-113h-235v-193h268v-115h-411v98h-166l-38 -98h-159l312 700h462v-115h-268zM378 206v319l-124 -319h124z" />
    <glyph glyph-name="AEacute" unicode="&#x1fc;" horiz-adv-x="827" 
d="M521 585v-164h235v-113h-235v-193h268v-115h-411v98h-166l-38 -98h-159l312 700h462v-115h-268zM378 206v319l-124 -319h124zM511 917h124l-107 -162h-102z" />
    <glyph glyph-name="B" unicode="B" horiz-adv-x="606" 
d="M68 700h227q121 0 184 -44.5t63 -130.5q0 -50 -23 -86t-72 -61v-3q64 -24 92.5 -64t28.5 -105q0 -100 -58.5 -153t-170.5 -53h-271v700zM308 421q42 0 65.5 23.5t23.5 65.5q0 41 -26.5 60t-81.5 19h-77v-168h96zM328 111q47 0 72.5 27t25.5 77q0 53 -31 77t-100 24h-83
v-205h116z" />
    <glyph glyph-name="C" unicode="C" horiz-adv-x="620" 
d="M183.5 34q-73.5 44 -113 125.5t-39.5 190.5t39.5 190.5t113 125.5t172.5 44q84 0 146.5 -32t92.5 -91l-82 -72q-53 80 -155 80q-89 0 -136 -62.5t-47 -182.5q0 -119 46 -182t133 -63q108 0 159 80l82 -72q-30 -59 -92.5 -91t-147.5 -32q-98 0 -171.5 44z" />
    <glyph glyph-name="Cacute" unicode="&#x106;" horiz-adv-x="620" 
d="M183.5 34q-73.5 44 -113 125.5t-39.5 190.5t39.5 190.5t113 125.5t172.5 44q84 0 146.5 -32t92.5 -91l-82 -72q-53 80 -155 80q-89 0 -136 -62.5t-47 -182.5q0 -119 46 -182t133 -63q108 0 159 80l82 -72q-30 -59 -92.5 -91t-147.5 -32q-98 0 -171.5 44zM389 917h124
l-107 -162h-102z" />
    <glyph glyph-name="Ccaron" unicode="&#x10c;" horiz-adv-x="620" 
d="M183.5 34q-73.5 44 -113 125.5t-39.5 190.5t39.5 190.5t113 125.5t172.5 44q84 0 146.5 -32t92.5 -91l-82 -72q-53 80 -155 80q-89 0 -136 -62.5t-47 -182.5q0 -119 46 -182t133 -63q108 0 159 80l82 -72q-30 -59 -92.5 -91t-147.5 -32q-98 0 -171.5 44zM184 917h111
l60 -78l60 78h111l-134 -162h-74z" />
    <glyph glyph-name="Ccedilla" unicode="&#xc7;" horiz-adv-x="620" 
d="M513 185l82 -72q-26 -51 -77 -82.5t-121 -38.5l-33 -58q42 0 68 -20.5t26 -56.5q0 -44 -32.5 -71.5t-85.5 -27.5q-25 0 -51.5 6t-42.5 15l13 55q32 -12 66 -12q21 0 32 8.5t11 23.5q0 16 -18.5 24.5t-48.5 6.5l-29 33l42 74q-86 9 -150 55t-98.5 124t-34.5 179
q0 109 39.5 190.5t113 125.5t172.5 44q84 0 146.5 -32t92.5 -91l-82 -72q-53 80 -155 80q-89 0 -136 -62.5t-47 -182.5q0 -119 46 -182t133 -63q108 0 159 80z" />
    <glyph glyph-name="Ccircumflex" unicode="&#x108;" horiz-adv-x="620" 
d="M183.5 34q-73.5 44 -113 125.5t-39.5 190.5t39.5 190.5t113 125.5t172.5 44q84 0 146.5 -32t92.5 -91l-82 -72q-53 80 -155 80q-89 0 -136 -62.5t-47 -182.5q0 -119 46 -182t133 -63q108 0 159 80l82 -72q-30 -59 -92.5 -91t-147.5 -32q-98 0 -171.5 44zM318 917h74
l134 -162h-111l-60 78l-60 -78h-111z" />
    <glyph glyph-name="Cdotaccent" unicode="&#x10a;" horiz-adv-x="620" 
d="M183.5 34q-73.5 44 -113 125.5t-39.5 190.5t39.5 190.5t113 125.5t172.5 44q84 0 146.5 -32t92.5 -91l-82 -72q-53 80 -155 80q-89 0 -136 -62.5t-47 -182.5q0 -119 46 -182t133 -63q108 0 159 80l82 -72q-30 -59 -92.5 -91t-147.5 -32q-98 0 -171.5 44zM307 774
q-19 19 -19 47t19 47t48 19t48 -19t19 -47t-19 -47t-48 -19t-48 19z" />
    <glyph glyph-name="D" unicode="D" horiz-adv-x="642" 
d="M68 700h250q287 0 287 -337q0 -130 -32 -209.5t-100.5 -116.5t-181.5 -37h-223v700zM306 115q57 0 91 25t49.5 79t15.5 144q0 119 -34 170.5t-113 51.5h-103v-470h94z" />
    <glyph glyph-name="Eth" unicode="&#xd0;" horiz-adv-x="648" 
d="M611 363q0 -130 -32 -209.5t-100.5 -116.5t-181.5 -37h-223v286h-64v104h64v310h250q287 0 287 -337zM403 140q34 25 49.5 79t15.5 144q0 118 -34.5 170t-112.5 52h-103v-195h159v-104h-159v-171h94q57 0 91 25z" />
    <glyph glyph-name="Dcaron" unicode="&#x10e;" horiz-adv-x="642" 
d="M68 700h250q287 0 287 -337q0 -130 -32 -209.5t-100.5 -116.5t-181.5 -37h-223v700zM306 115q57 0 91 25t49.5 79t15.5 144q0 119 -34 170.5t-113 51.5h-103v-470h94zM150 917h111l60 -78l60 78h111l-134 -162h-74z" />
    <glyph glyph-name="Dcroat" unicode="&#x110;" horiz-adv-x="648" 
d="M611 363q0 -130 -32 -209.5t-100.5 -116.5t-181.5 -37h-223v286h-64v104h64v310h250q287 0 287 -337zM403 140q34 25 49.5 79t15.5 144q0 118 -34.5 170t-112.5 52h-103v-195h159v-104h-159v-171h94q57 0 91 25z" />
    <glyph glyph-name="uni1E0C" unicode="&#x1e0c;" horiz-adv-x="642" 
d="M68 700h250q287 0 287 -337q0 -130 -32 -209.5t-100.5 -116.5t-181.5 -37h-223v700zM306 115q57 0 91 25t49.5 79t15.5 144q0 119 -34 170.5t-113 51.5h-103v-470h94zM262 -185q-19 19 -19 47t19 47t48 19t48 -19t19 -47t-19 -47t-48 -19t-48 19z" />
    <glyph glyph-name="uni1E0E" unicode="&#x1e0e;" horiz-adv-x="642" 
d="M68 700h250q287 0 287 -337q0 -130 -32 -209.5t-100.5 -116.5t-181.5 -37h-223v700zM306 115q57 0 91 25t49.5 79t15.5 144q0 119 -34 170.5t-113 51.5h-103v-470h94zM139 -72h342v-83h-342v83z" />
    <glyph glyph-name="E" unicode="E" horiz-adv-x="571" 
d="M68 700h465v-115h-321v-160h286v-115h-286v-195h321v-115h-465v700z" />
    <glyph glyph-name="Eacute" unicode="&#xc9;" horiz-adv-x="571" 
d="M68 700h465v-115h-321v-160h286v-115h-286v-195h321v-115h-465v700zM337 917h124l-107 -162h-102z" />
    <glyph glyph-name="Ebreve" unicode="&#x114;" horiz-adv-x="571" 
d="M68 700h465v-115h-321v-160h286v-115h-286v-195h321v-115h-465v700zM184 794q-42 39 -43 113h85q1 -34 21 -53t56 -19t56 19t21 53h85q0 -73 -42 -112.5t-120 -39.5q-77 0 -119 39z" />
    <glyph glyph-name="Ecaron" unicode="&#x11a;" horiz-adv-x="571" 
d="M68 700h465v-115h-321v-160h286v-115h-286v-195h321v-115h-465v700zM132 917h111l60 -78l60 78h111l-134 -162h-74z" />
    <glyph glyph-name="Ecircumflex" unicode="&#xca;" horiz-adv-x="571" 
d="M68 700h465v-115h-321v-160h286v-115h-286v-195h321v-115h-465v700zM266 917h74l134 -162h-111l-60 78l-60 -78h-111z" />
    <glyph glyph-name="uni1EBE" unicode="&#x1ebe;" horiz-adv-x="571" 
d="M68 700h465v-115h-321v-160h286v-115h-286v-195h321v-115h-465v700zM454 1003h91l-63 -108h-75zM266 917h73l135 -162h-112l-59 78l-60 -78h-111z" />
    <glyph glyph-name="uni1EC6" unicode="&#x1ec6;" horiz-adv-x="571" 
d="M68 700h465v-115h-321v-160h286v-115h-286v-195h321v-115h-465v700zM255 -185q-19 19 -19 47t19 47t48 19t48 -19t19 -47t-19 -47t-48 -19t-48 19zM266 917h74l134 -162h-111l-60 78l-60 -78h-111z" />
    <glyph glyph-name="uni1EC0" unicode="&#x1ec0;" horiz-adv-x="571" 
d="M68 700h465v-115h-321v-160h286v-115h-286v-195h321v-115h-465v700zM377 1003h91l47 -108h-75zM266 917h73l135 -162h-112l-59 78l-60 -78h-111z" />
    <glyph glyph-name="uni1EC2" unicode="&#x1ec2;" horiz-adv-x="571" 
d="M68 700h465v-115h-321v-160h286v-115h-286v-195h321v-115h-465v700zM449 917q10 14 28 28q13 10 19 17t6 18q0 8 -7.5 13t-19.5 5q-15 0 -29.5 -7.5t-23.5 -21.5l-39 37q15 23 42.5 37t56.5 14q38 0 62 -20t24 -52q0 -20 -8 -32t-23 -25q-15 -14 -22 -24t-8 -27h-68
q0 26 10 40zM266 917h73l135 -162h-112l-59 78l-60 -78h-111z" />
    <glyph glyph-name="uni1EC4" unicode="&#x1ec4;" horiz-adv-x="571" 
d="M68 700h465v-115h-321v-160h286v-115h-286v-195h321v-115h-465v700zM324 954.5q-14 6.5 -35 19.5q-27 19 -41 19q-12 0 -22 -10.5t-14 -29.5h-60q16 101 94 101q17 0 32 -6t38 -18q3 -2 19.5 -10t28.5 -8q29 0 34 41h58q-5 -51 -31 -78t-70 -27q-17 0 -31 6.5zM266 917
h73l135 -162h-112l-59 78l-60 -78h-111z" />
    <glyph glyph-name="Edieresis" unicode="&#xcb;" horiz-adv-x="571" 
d="M68 700h465v-115h-321v-160h286v-115h-286v-195h321v-115h-465v700zM150 773.5q-19 18.5 -19 47.5t19 47.5t48 18.5t48 -19t19 -47t-19 -47t-48 -19t-48 18.5zM360 774q-19 19 -19 47t19 47t48 19t48 -18.5t19 -47.5t-19 -47.5t-48 -18.5t-48 19z" />
    <glyph glyph-name="Edotaccent" unicode="&#x116;" horiz-adv-x="571" 
d="M68 700h465v-115h-321v-160h286v-115h-286v-195h321v-115h-465v700zM255 774q-19 19 -19 47t19 47t48 19t48 -19t19 -47t-19 -47t-48 -19t-48 19z" />
    <glyph glyph-name="uni1EB8" unicode="&#x1eb8;" horiz-adv-x="571" 
d="M68 700h465v-115h-321v-160h286v-115h-286v-195h321v-115h-465v700zM255 -185q-19 19 -19 47t19 47t48 19t48 -19t19 -47t-19 -47t-48 -19t-48 19z" />
    <glyph glyph-name="Egrave" unicode="&#xc8;" horiz-adv-x="571" 
d="M68 700h465v-115h-321v-160h286v-115h-286v-195h321v-115h-465v700zM144 917h124l85 -162h-102z" />
    <glyph glyph-name="uni1EBA" unicode="&#x1eba;" horiz-adv-x="571" 
d="M68 700h465v-115h-321v-160h286v-115h-286v-195h321v-115h-465v700zM267 801.5q11 17.5 31 35.5q15 14 22.5 25t7.5 26q0 26 -33 26q-38 0 -63 -50l-53 49q19 35 52.5 54.5t73.5 19.5q54 0 84.5 -24.5t30.5 -67.5q0 -25 -10 -42t-29 -37q-16 -17 -24.5 -30.5t-8.5 -30.5
h-92q0 29 11 46.5z" />
    <glyph glyph-name="Emacron" unicode="&#x112;" horiz-adv-x="571" 
d="M68 700h465v-115h-321v-160h286v-115h-286v-195h321v-115h-465v700zM132 855h342v-83h-342v83z" />
    <glyph glyph-name="Eogonek" unicode="&#x118;" horiz-adv-x="571" 
d="M572 -194q-19 -19 -48 -29.5t-59 -10.5q-53 0 -83 26.5t-30 76.5q0 81 94 131h-378v700h465v-115h-321v-160h286v-115h-286v-195h321v-115q-89 -61 -89 -114q0 -15 12 -25.5t36 -10.5q19 0 62 16z" />
    <glyph glyph-name="uni1EBC" unicode="&#x1ebc;" horiz-adv-x="571" 
d="M68 700h465v-115h-321v-160h286v-115h-286v-195h321v-115h-465v700zM163.5 848q30.5 33 74.5 33q20 0 38 -7.5t39 -20.5q12 -7 23.5 -13t20.5 -6q27 0 27 51h80q0 -64 -31.5 -97t-76.5 -33q-21 0 -38 7.5t-46 23.5q-25 16 -34 16q-11 0 -18.5 -13t-8.5 -34h-80
q0 60 30.5 93z" />
    <glyph glyph-name="F" unicode="F" horiz-adv-x="574" 
d="M68 700h470v-115h-326v-187h304v-115h-304v-283h-144v700z" />
    <glyph glyph-name="G" unicode="G" horiz-adv-x="653" 
d="M604 380v-380h-109l-13 39q-68 -49 -158 -49q-139 0 -216 95t-77 265q0 109 40 190.5t113 125.5t171 44q85 0 148.5 -32.5t92.5 -90.5l-82 -72q-25 39 -65.5 59.5t-92.5 20.5q-88 0 -134.5 -63t-46.5 -182q0 -125 43 -189.5t125 -64.5q66 0 119 32v150h-152v102h294z" />
    <glyph glyph-name="Gbreve" unicode="&#x11e;" horiz-adv-x="653" 
d="M604 380v-380h-109l-13 39q-68 -49 -158 -49q-139 0 -216 95t-77 265q0 109 40 190.5t113 125.5t171 44q85 0 148.5 -32.5t92.5 -90.5l-82 -72q-25 39 -65.5 59.5t-92.5 20.5q-88 0 -134.5 -63t-46.5 -182q0 -125 43 -189.5t125 -64.5q66 0 119 32v150h-152v102h294z
M229 794q-42 39 -43 113h85q1 -34 21 -53t56 -19t56 19t21 53h85q0 -73 -42 -112.5t-120 -39.5q-77 0 -119 39z" />
    <glyph glyph-name="Gcaron" unicode="&#x1e6;" horiz-adv-x="653" 
d="M604 380v-380h-109l-13 39q-68 -49 -158 -49q-139 0 -216 95t-77 265q0 109 40 190.5t113 125.5t171 44q85 0 148.5 -32.5t92.5 -90.5l-82 -72q-25 39 -65.5 59.5t-92.5 20.5q-88 0 -134.5 -63t-46.5 -182q0 -125 43 -189.5t125 -64.5q66 0 119 32v150h-152v102h294z
M177 917h111l60 -78l60 78h111l-134 -162h-74z" />
    <glyph glyph-name="Gcircumflex" unicode="&#x11c;" horiz-adv-x="653" 
d="M604 380v-380h-109l-13 39q-68 -49 -158 -49q-139 0 -216 95t-77 265q0 109 40 190.5t113 125.5t171 44q85 0 148.5 -32.5t92.5 -90.5l-82 -72q-25 39 -65.5 59.5t-92.5 20.5q-88 0 -134.5 -63t-46.5 -182q0 -125 43 -189.5t125 -64.5q66 0 119 32v150h-152v102h294z
M311 917h74l134 -162h-111l-60 78l-60 -78h-111z" />
    <glyph glyph-name="uni0122" unicode="&#x122;" horiz-adv-x="653" 
d="M604 380v-380h-109l-13 39q-68 -49 -158 -49q-139 0 -216 95t-77 265q0 109 40 190.5t113 125.5t171 44q85 0 148.5 -32.5t92.5 -90.5l-82 -72q-25 39 -65.5 59.5t-92.5 20.5q-88 0 -134.5 -63t-46.5 -182q0 -125 43 -189.5t125 -64.5q66 0 119 32v150h-152v102h294z
M399.5 -94.5q21.5 -22.5 21.5 -58.5q0 -39 -21.5 -82.5t-57.5 -73.5l-50 39q26 32 43 61q-28 3 -45.5 21.5t-17.5 46.5q0 31 19.5 50t50.5 19q36 0 57.5 -22.5z" />
    <glyph glyph-name="Gdotaccent" unicode="&#x120;" horiz-adv-x="653" 
d="M604 380v-380h-109l-13 39q-68 -49 -158 -49q-139 0 -216 95t-77 265q0 109 40 190.5t113 125.5t171 44q85 0 148.5 -32.5t92.5 -90.5l-82 -72q-25 39 -65.5 59.5t-92.5 20.5q-88 0 -134.5 -63t-46.5 -182q0 -125 43 -189.5t125 -64.5q66 0 119 32v150h-152v102h294z
M300 774q-19 19 -19 47t19 47t48 19t48 -19t19 -47t-19 -47t-48 -19t-48 19z" />
    <glyph glyph-name="uni1E20" unicode="&#x1e20;" horiz-adv-x="653" 
d="M604 380v-380h-109l-13 39q-68 -49 -158 -49q-139 0 -216 95t-77 265q0 109 40 190.5t113 125.5t171 44q85 0 148.5 -32.5t92.5 -90.5l-82 -72q-25 39 -65.5 59.5t-92.5 20.5q-88 0 -134.5 -63t-46.5 -182q0 -125 43 -189.5t125 -64.5q66 0 119 32v150h-152v102h294z
M177 855h342v-83h-342v83z" />
    <glyph glyph-name="H" unicode="H" horiz-adv-x="692" 
d="M68 700h144v-286h269v286h143v-700h-143v299h-269v-299h-144v700z" />
    <glyph glyph-name="Hbar" unicode="&#x126;" horiz-adv-x="709" 
d="M693 496h-60v-496h-144v299h-269v-299h-143v496h-60v90h60v114h143v-114h269v114h144v-114h60v-90zM489 496h-269v-82h269v82z" />
    <glyph glyph-name="uni1E2A" unicode="&#x1e2a;" horiz-adv-x="692" 
d="M68 700h144v-286h269v286h143v-700h-143v299h-269v-299h-144v700zM228 -185q-42 39 -43 113h86q1 -34 20.5 -53t55.5 -19t56 19t21 53h85q0 -73 -42 -112.5t-120 -39.5q-77 0 -119 39z" />
    <glyph glyph-name="Hcircumflex" unicode="&#x124;" horiz-adv-x="692" 
d="M68 700h144v-286h269v286h143v-700h-143v299h-269v-299h-144v700zM310 917h74l134 -162h-111l-60 78l-60 -78h-111z" />
    <glyph glyph-name="uni1E24" unicode="&#x1e24;" horiz-adv-x="692" 
d="M68 700h144v-286h269v286h143v-700h-143v299h-269v-299h-144v700zM299 -185q-19 19 -19 47t19 47t48 19t48 -19t19 -47t-19 -47t-48 -19t-48 19z" />
    <glyph glyph-name="I" unicode="I" horiz-adv-x="323" 
d="M90 700h143v-700h-143v700z" />
    <glyph glyph-name="IJ" unicode="&#x132;" horiz-adv-x="815" 
d="M90 700h143v-700h-143v700zM413.5 9q-50.5 19 -85.5 53l57 97q28 -26 61 -40t67 -14q49 0 70 32t21 104v459h144v-475q0 -119 -56 -177t-172 -58q-56 0 -106.5 19z" />
    <glyph glyph-name="Iacute" unicode="&#xcd;" horiz-adv-x="323" 
d="M90 700h143v-700h-143v700zM196 917h124l-107 -162h-102z" />
    <glyph glyph-name="Ibreve" unicode="&#x12c;" horiz-adv-x="323" 
d="M90 700h143v-700h-143v700zM43 794q-42 39 -43 113h85q1 -34 21 -53t56 -19t56 19t21 53h85q0 -73 -42 -112.5t-120 -39.5q-77 0 -119 39z" />
    <glyph glyph-name="uni01CF" unicode="&#x1cf;" horiz-adv-x="323" 
d="M90 700h143v-700h-143v700zM-9 917h111l60 -78l60 78h111l-134 -162h-74z" />
    <glyph glyph-name="Icircumflex" unicode="&#xce;" horiz-adv-x="323" 
d="M90 700h143v-700h-143v700zM125 917h74l134 -162h-111l-60 78l-60 -78h-111z" />
    <glyph glyph-name="Idieresis" unicode="&#xcf;" horiz-adv-x="323" 
d="M90 700h143v-700h-143v700zM9 773.5q-19 18.5 -19 47.5t19 47.5t48 18.5t48 -19t19 -47t-19 -47t-48 -19t-48 18.5zM219 774q-19 19 -19 47t19 47t48 19t48 -18.5t19 -47.5t-19 -47.5t-48 -18.5t-48 19z" />
    <glyph glyph-name="Idotaccent" unicode="&#x130;" horiz-adv-x="323" 
d="M90 700h143v-700h-143v700zM114 774q-19 19 -19 47t19 47t48 19t48 -19t19 -47t-19 -47t-48 -19t-48 19z" />
    <glyph glyph-name="uni1ECA" unicode="&#x1eca;" horiz-adv-x="323" 
d="M90 700h143v-700h-143v700zM114 -185q-19 19 -19 47t19 47t48 19t48 -19t19 -47t-19 -47t-48 -19t-48 19z" />
    <glyph glyph-name="Igrave" unicode="&#xcc;" horiz-adv-x="323" 
d="M90 700h143v-700h-143v700zM3 917h124l85 -162h-102z" />
    <glyph glyph-name="uni1EC8" unicode="&#x1ec8;" horiz-adv-x="323" 
d="M90 700h143v-700h-143v700zM126 801.5q11 17.5 31 35.5q15 14 22.5 25t7.5 26q0 26 -33 26q-38 0 -63 -50l-53 49q19 35 52.5 54.5t73.5 19.5q54 0 84.5 -24.5t30.5 -67.5q0 -25 -10 -42t-29 -37q-16 -17 -24.5 -30.5t-8.5 -30.5h-92q0 29 11 46.5z" />
    <glyph glyph-name="Imacron" unicode="&#x12a;" horiz-adv-x="323" 
d="M90 700h143v-700h-143v700zM-9 855h342v-83h-342v83z" />
    <glyph glyph-name="Iogonek" unicode="&#x12e;" horiz-adv-x="323" 
d="M255 -194q-19 -19 -48 -29.5t-59 -10.5q-53 0 -83 26.5t-30 76.5q0 81 94 131h-39v700h143v-700h-17q-89 -61 -89 -114q0 -15 12 -25.5t36 -10.5q19 0 62 16z" />
    <glyph glyph-name="Itilde" unicode="&#x128;" horiz-adv-x="323" 
d="M90 700h143v-700h-143v700zM22.5 848q30.5 33 74.5 33q20 0 38 -7.5t39 -20.5q12 -7 23.5 -13t20.5 -6q27 0 27 51h80q0 -64 -31.5 -97t-76.5 -33q-21 0 -38 7.5t-46 23.5q-25 16 -34 16q-11 0 -18.5 -13t-8.5 -34h-80q0 60 30.5 93z" />
    <glyph glyph-name="J" unicode="J" horiz-adv-x="492" 
d="M90.5 9q-50.5 19 -85.5 53l57 97q28 -26 61 -40t67 -14q49 0 70 32t21 104v459h144v-475q0 -119 -56 -177t-172 -58q-56 0 -106.5 19z" />
    <glyph glyph-name="Jcircumflex" unicode="&#x134;" horiz-adv-x="492" 
d="M90.5 9q-50.5 19 -85.5 53l57 97q28 -26 61 -40t67 -14q49 0 70 32t21 104v459h144v-475q0 -119 -56 -177t-172 -58q-56 0 -106.5 19zM230 917h74l134 -162h-111l-60 78l-60 -78h-111z" />
    <glyph glyph-name="K" unicode="K" horiz-adv-x="656" 
d="M485 0l-185 314l-88 -109v-205h-144v700h144v-309l232 309h168l-218 -270l251 -430h-160z" />
    <glyph glyph-name="uni0136" unicode="&#x136;" horiz-adv-x="656" 
d="M485 0l-185 314l-88 -109v-205h-144v700h144v-309l232 309h168l-218 -270l251 -430h-160zM388.5 -94.5q21.5 -22.5 21.5 -58.5q0 -39 -21.5 -82.5t-57.5 -73.5l-50 39q26 32 43 61q-28 3 -45.5 21.5t-17.5 46.5q0 31 19.5 50t50.5 19q36 0 57.5 -22.5z" />
    <glyph glyph-name="L" unicode="L" horiz-adv-x="565" 
d="M68 700h144v-585h330v-115h-474v700z" />
    <glyph glyph-name="Lacute" unicode="&#x139;" horiz-adv-x="565" 
d="M68 700h144v-585h330v-115h-474v700zM175 917h124l-107 -162h-102z" />
    <glyph glyph-name="Lcaron" unicode="&#x13d;" horiz-adv-x="565" 
d="M68 700h144v-585h330v-115h-474v700zM494.5 687.5q21.5 -22.5 21.5 -58.5q0 -38 -21.5 -81t-56.5 -74l-51 38q30 36 43 61q-28 3 -45.5 21.5t-17.5 46.5q0 31 19.5 50t50.5 19q36 0 57.5 -22.5z" />
    <glyph glyph-name="uni013B" unicode="&#x13b;" horiz-adv-x="565" 
d="M68 700h144v-585h330v-115h-474v700zM355.5 -94.5q21.5 -22.5 21.5 -58.5q0 -39 -21.5 -82.5t-57.5 -73.5l-50 39q26 32 43 61q-28 3 -45.5 21.5t-17.5 46.5q0 31 19.5 50t50.5 19q36 0 57.5 -22.5z" />
    <glyph glyph-name="Ldot" unicode="&#x13f;" horiz-adv-x="565" 
d="M68 700h144v-585h330v-115h-474v700zM304.5 285q-23.5 24 -23.5 61q0 38 23.5 62t60.5 24t61 -24t24 -62q0 -37 -23.5 -61t-61.5 -24q-37 0 -60.5 24z" />
    <glyph glyph-name="uni1E36" unicode="&#x1e36;" horiz-adv-x="565" 
d="M68 700h144v-585h330v-115h-474v700zM251 -185q-19 19 -19 47t19 47t48 19t48 -19t19 -47t-19 -47t-48 -19t-48 19z" />
    <glyph glyph-name="uni1E38" unicode="&#x1e38;" horiz-adv-x="565" 
d="M68 700h144v-585h330v-115h-474v700zM251 -185q-19 19 -19 47t19 47t48 19t48 -19t19 -47t-19 -47t-48 -19t-48 19zM-30 855h342v-83h-342v83z" />
    <glyph glyph-name="uni1E3A" unicode="&#x1e3a;" horiz-adv-x="565" 
d="M68 700h144v-585h330v-115h-474v700zM128 -72h342v-83h-342v83z" />
    <glyph glyph-name="Lslash" unicode="&#x141;" horiz-adv-x="565" 
d="M542 115v-115h-474v256l-65 -27v112l65 27v332h144v-271l155 65v-116l-155 -63v-200h330z" />
    <glyph glyph-name="M" unicode="M" horiz-adv-x="816" 
d="M748 700v-700h-142v412l-147 -412h-102l-147 412v-412h-142v700h151l189 -541l189 541h151z" />
    <glyph glyph-name="uni1E42" unicode="&#x1e42;" horiz-adv-x="816" 
d="M748 700v-700h-142v412l-147 -412h-102l-147 412v-412h-142v700h151l189 -541l189 541h151zM360 -185q-19 19 -19 47t19 47t48 19t48 -19t19 -47t-19 -47t-48 -19t-48 19z" />
    <glyph glyph-name="N" unicode="N" horiz-adv-x="699" 
d="M631 700v-700h-133l-287 460v-460h-143v700h139l281 -453v453h143z" />
    <glyph glyph-name="Nacute" unicode="&#x143;" horiz-adv-x="699" 
d="M631 700v-700h-133l-287 460v-460h-143v700h139l281 -453v453h143zM383 917h124l-107 -162h-102z" />
    <glyph glyph-name="Ncaron" unicode="&#x147;" horiz-adv-x="699" 
d="M631 700v-700h-133l-287 460v-460h-143v700h139l281 -453v453h143zM178 917h111l60 -78l60 78h111l-134 -162h-74z" />
    <glyph glyph-name="uni0145" unicode="&#x145;" horiz-adv-x="699" 
d="M631 700v-700h-133l-287 460v-460h-143v700h139l281 -453v453h143zM405.5 -94.5q21.5 -22.5 21.5 -58.5q0 -39 -21.5 -82.5t-57.5 -73.5l-50 39q26 32 43 61q-28 3 -45.5 21.5t-17.5 46.5q0 31 19.5 50t50.5 19q36 0 57.5 -22.5z" />
    <glyph glyph-name="uni1E44" unicode="&#x1e44;" horiz-adv-x="699" 
d="M631 700v-700h-133l-287 460v-460h-143v700h139l281 -453v453h143zM301 774q-19 19 -19 47t19 47t48 19t48 -19t19 -47t-19 -47t-48 -19t-48 19z" />
    <glyph glyph-name="uni1E46" unicode="&#x1e46;" horiz-adv-x="699" 
d="M631 700v-700h-133l-287 460v-460h-143v700h139l281 -453v453h143zM301 -185q-19 19 -19 47t19 47t48 19t48 -19t19 -47t-19 -47t-48 -19t-48 19z" />
    <glyph glyph-name="Eng" unicode="&#x14a;" horiz-adv-x="699" 
d="M68 700h139l281 -452v452h143v-765q0 -101 -52.5 -154t-151.5 -53q-93 0 -151 50l46 89q53 -36 94 -36q38 0 56 26t18 79l-1 78l-278 446v-460h-143v700z" />
    <glyph glyph-name="uni1E48" unicode="&#x1e48;" horiz-adv-x="699" 
d="M631 700v-700h-133l-287 460v-460h-143v700h139l281 -453v453h143zM178 -72h342v-83h-342v83z" />
    <glyph glyph-name="Ntilde" unicode="&#xd1;" horiz-adv-x="699" 
d="M631 700v-700h-133l-287 460v-460h-143v700h139l281 -453v453h143zM209.5 848q30.5 33 74.5 33q20 0 38 -7.5t39 -20.5q12 -7 23.5 -13t20.5 -6q27 0 27 51h80q0 -64 -31.5 -97t-76.5 -33q-21 0 -38 7.5t-46 23.5q-25 16 -34 16q-11 0 -18.5 -13t-8.5 -34h-80
q0 60 30.5 93z" />
    <glyph glyph-name="O" unicode="O" horiz-adv-x="690" 
d="M177 33q-71 43 -108.5 124t-37.5 193t37.5 193t108.5 124t168 43q98 0 168.5 -43t108 -124t37.5 -193t-37.5 -193t-108 -124t-168.5 -43q-97 0 -168 43zM470.5 169.5q45.5 65.5 45.5 180.5t-45.5 180.5t-125.5 65.5q-79 0 -124.5 -65.5t-45.5 -180.5t45.5 -180.5
t124.5 -65.5q80 0 125.5 65.5z" />
    <glyph glyph-name="Oacute" unicode="&#xd3;" horiz-adv-x="690" 
d="M177 33q-71 43 -108.5 124t-37.5 193t37.5 193t108.5 124t168 43q98 0 168.5 -43t108 -124t37.5 -193t-37.5 -193t-108 -124t-168.5 -43q-97 0 -168 43zM470.5 169.5q45.5 65.5 45.5 180.5t-45.5 180.5t-125.5 65.5q-79 0 -124.5 -65.5t-45.5 -180.5t45.5 -180.5
t124.5 -65.5q80 0 125.5 65.5zM379 917h124l-107 -162h-102z" />
    <glyph glyph-name="Obreve" unicode="&#x14e;" horiz-adv-x="690" 
d="M177 33q-71 43 -108.5 124t-37.5 193t37.5 193t108.5 124t168 43q98 0 168.5 -43t108 -124t37.5 -193t-37.5 -193t-108 -124t-168.5 -43q-97 0 -168 43zM470.5 169.5q45.5 65.5 45.5 180.5t-45.5 180.5t-125.5 65.5q-79 0 -124.5 -65.5t-45.5 -180.5t45.5 -180.5
t124.5 -65.5q80 0 125.5 65.5zM226 794q-42 39 -43 113h85q1 -34 21 -53t56 -19t56 19t21 53h85q0 -73 -42 -112.5t-120 -39.5q-77 0 -119 39z" />
    <glyph glyph-name="uni01D1" unicode="&#x1d1;" horiz-adv-x="690" 
d="M177 33q-71 43 -108.5 124t-37.5 193t37.5 193t108.5 124t168 43q98 0 168.5 -43t108 -124t37.5 -193t-37.5 -193t-108 -124t-168.5 -43q-97 0 -168 43zM470.5 169.5q45.5 65.5 45.5 180.5t-45.5 180.5t-125.5 65.5q-79 0 -124.5 -65.5t-45.5 -180.5t45.5 -180.5
t124.5 -65.5q80 0 125.5 65.5zM174 917h111l60 -78l60 78h111l-134 -162h-74z" />
    <glyph glyph-name="Ocircumflex" unicode="&#xd4;" horiz-adv-x="690" 
d="M177 33q-71 43 -108.5 124t-37.5 193t37.5 193t108.5 124t168 43q98 0 168.5 -43t108 -124t37.5 -193t-37.5 -193t-108 -124t-168.5 -43q-97 0 -168 43zM470.5 169.5q45.5 65.5 45.5 180.5t-45.5 180.5t-125.5 65.5q-79 0 -124.5 -65.5t-45.5 -180.5t45.5 -180.5
t124.5 -65.5q80 0 125.5 65.5zM308 917h74l134 -162h-111l-60 78l-60 -78h-111z" />
    <glyph glyph-name="uni1ED0" unicode="&#x1ed0;" horiz-adv-x="690" 
d="M177 33q-71 43 -108.5 124t-37.5 193t37.5 193t108.5 124t168 43q98 0 168.5 -43t108 -124t37.5 -193t-37.5 -193t-108 -124t-168.5 -43q-97 0 -168 43zM470.5 169.5q45.5 65.5 45.5 180.5t-45.5 180.5t-125.5 65.5q-79 0 -124.5 -65.5t-45.5 -180.5t45.5 -180.5
t124.5 -65.5q80 0 125.5 65.5zM496 1003h91l-63 -108h-75zM308 917h73l135 -162h-112l-59 78l-60 -78h-111z" />
    <glyph glyph-name="uni1ED8" unicode="&#x1ed8;" horiz-adv-x="690" 
d="M177 33q-71 43 -108.5 124t-37.5 193t37.5 193t108.5 124t168 43q98 0 168.5 -43t108 -124t37.5 -193t-37.5 -193t-108 -124t-168.5 -43q-97 0 -168 43zM470.5 169.5q45.5 65.5 45.5 180.5t-45.5 180.5t-125.5 65.5q-79 0 -124.5 -65.5t-45.5 -180.5t45.5 -180.5
t124.5 -65.5q80 0 125.5 65.5zM297 -185q-19 19 -19 47t19 47t48 19t48 -19t19 -47t-19 -47t-48 -19t-48 19zM308 917h74l134 -162h-111l-60 78l-60 -78h-111z" />
    <glyph glyph-name="uni1ED2" unicode="&#x1ed2;" horiz-adv-x="690" 
d="M177 33q-71 43 -108.5 124t-37.5 193t37.5 193t108.5 124t168 43q98 0 168.5 -43t108 -124t37.5 -193t-37.5 -193t-108 -124t-168.5 -43q-97 0 -168 43zM470.5 169.5q45.5 65.5 45.5 180.5t-45.5 180.5t-125.5 65.5q-79 0 -124.5 -65.5t-45.5 -180.5t45.5 -180.5
t124.5 -65.5q80 0 125.5 65.5zM419 1003h91l47 -108h-75zM308 917h73l135 -162h-112l-59 78l-60 -78h-111z" />
    <glyph glyph-name="uni1ED4" unicode="&#x1ed4;" horiz-adv-x="690" 
d="M177 33q-71 43 -108.5 124t-37.5 193t37.5 193t108.5 124t168 43q98 0 168.5 -43t108 -124t37.5 -193t-37.5 -193t-108 -124t-168.5 -43q-97 0 -168 43zM470.5 169.5q45.5 65.5 45.5 180.5t-45.5 180.5t-125.5 65.5q-79 0 -124.5 -65.5t-45.5 -180.5t45.5 -180.5
t124.5 -65.5q80 0 125.5 65.5zM491 917q10 14 28 28q13 10 19 17t6 18q0 8 -7.5 13t-19.5 5q-15 0 -29.5 -7.5t-23.5 -21.5l-39 37q15 23 42.5 37t56.5 14q38 0 62 -20t24 -52q0 -20 -8 -32t-23 -25q-15 -14 -22 -24t-8 -27h-68q0 26 10 40zM308 917h73l135 -162h-112
l-59 78l-60 -78h-111z" />
    <glyph glyph-name="uni1ED6" unicode="&#x1ed6;" horiz-adv-x="690" 
d="M177 33q-71 43 -108.5 124t-37.5 193t37.5 193t108.5 124t168 43q98 0 168.5 -43t108 -124t37.5 -193t-37.5 -193t-108 -124t-168.5 -43q-97 0 -168 43zM470.5 169.5q45.5 65.5 45.5 180.5t-45.5 180.5t-125.5 65.5q-79 0 -124.5 -65.5t-45.5 -180.5t45.5 -180.5
t124.5 -65.5q80 0 125.5 65.5zM366 954.5q-14 6.5 -35 19.5q-27 19 -41 19q-12 0 -22 -10.5t-14 -29.5h-60q16 101 94 101q17 0 32 -6t38 -18q3 -2 19.5 -10t28.5 -8q29 0 34 41h58q-5 -51 -31 -78t-70 -27q-17 0 -31 6.5zM308 917h73l135 -162h-112l-59 78l-60 -78h-111z
" />
    <glyph glyph-name="Odieresis" unicode="&#xd6;" horiz-adv-x="690" 
d="M177 33q-71 43 -108.5 124t-37.5 193t37.5 193t108.5 124t168 43q98 0 168.5 -43t108 -124t37.5 -193t-37.5 -193t-108 -124t-168.5 -43q-97 0 -168 43zM470.5 169.5q45.5 65.5 45.5 180.5t-45.5 180.5t-125.5 65.5q-79 0 -124.5 -65.5t-45.5 -180.5t45.5 -180.5
t124.5 -65.5q80 0 125.5 65.5zM192 773.5q-19 18.5 -19 47.5t19 47.5t48 18.5t48 -19t19 -47t-19 -47t-48 -19t-48 18.5zM402 774q-19 19 -19 47t19 47t48 19t48 -18.5t19 -47.5t-19 -47.5t-48 -18.5t-48 19z" />
    <glyph glyph-name="uni1ECC" unicode="&#x1ecc;" horiz-adv-x="690" 
d="M177 33q-71 43 -108.5 124t-37.5 193t37.5 193t108.5 124t168 43q98 0 168.5 -43t108 -124t37.5 -193t-37.5 -193t-108 -124t-168.5 -43q-97 0 -168 43zM470.5 169.5q45.5 65.5 45.5 180.5t-45.5 180.5t-125.5 65.5q-79 0 -124.5 -65.5t-45.5 -180.5t45.5 -180.5
t124.5 -65.5q80 0 125.5 65.5zM297 -185q-19 19 -19 47t19 47t48 19t48 -19t19 -47t-19 -47t-48 -19t-48 19z" />
    <glyph glyph-name="Ograve" unicode="&#xd2;" horiz-adv-x="690" 
d="M177 33q-71 43 -108.5 124t-37.5 193t37.5 193t108.5 124t168 43q98 0 168.5 -43t108 -124t37.5 -193t-37.5 -193t-108 -124t-168.5 -43q-97 0 -168 43zM470.5 169.5q45.5 65.5 45.5 180.5t-45.5 180.5t-125.5 65.5q-79 0 -124.5 -65.5t-45.5 -180.5t45.5 -180.5
t124.5 -65.5q80 0 125.5 65.5zM186 917h124l85 -162h-102z" />
    <glyph glyph-name="uni1ECE" unicode="&#x1ece;" horiz-adv-x="690" 
d="M177 33q-71 43 -108.5 124t-37.5 193t37.5 193t108.5 124t168 43q98 0 168.5 -43t108 -124t37.5 -193t-37.5 -193t-108 -124t-168.5 -43q-97 0 -168 43zM470.5 169.5q45.5 65.5 45.5 180.5t-45.5 180.5t-125.5 65.5q-79 0 -124.5 -65.5t-45.5 -180.5t45.5 -180.5
t124.5 -65.5q80 0 125.5 65.5zM309 801.5q11 17.5 31 35.5q15 14 22.5 25t7.5 26q0 26 -33 26q-38 0 -63 -50l-53 49q19 35 52.5 54.5t73.5 19.5q54 0 84.5 -24.5t30.5 -67.5q0 -25 -10 -42t-29 -37q-16 -17 -24.5 -30.5t-8.5 -30.5h-92q0 29 11 46.5z" />
    <glyph glyph-name="Ohorn" unicode="&#x1a0;" horiz-adv-x="738" 
d="M780 700v-52q0 -67 -35 -120.5t-94 -80.5q8 -48 8 -97q0 -112 -37.5 -193t-108 -124t-168.5 -43q-97 0 -168 43t-108.5 124t-37.5 193t37.5 193t108.5 124t168 43q102 0 174.5 -46.5t108.5 -134.5q25 23 35.5 51t10.5 68v52h106zM470.5 169.5q45.5 65.5 45.5 180.5
t-45.5 180.5t-125.5 65.5q-79 0 -124.5 -65.5t-45.5 -180.5t45.5 -180.5t124.5 -65.5q80 0 125.5 65.5z" />
    <glyph glyph-name="uni1EDA" unicode="&#x1eda;" horiz-adv-x="738" 
d="M780 700v-52q0 -67 -35 -120.5t-94 -80.5q8 -48 8 -97q0 -112 -37.5 -193t-108 -124t-168.5 -43q-97 0 -168 43t-108.5 124t-37.5 193t37.5 193t108.5 124t168 43q102 0 174.5 -46.5t108.5 -134.5q25 23 35.5 51t10.5 68v52h106zM470.5 169.5q45.5 65.5 45.5 180.5
t-45.5 180.5t-125.5 65.5q-79 0 -124.5 -65.5t-45.5 -180.5t45.5 -180.5t124.5 -65.5q80 0 125.5 65.5zM379 917h124l-107 -162h-102z" />
    <glyph glyph-name="uni1EE2" unicode="&#x1ee2;" horiz-adv-x="738" 
d="M780 700v-52q0 -67 -35 -120.5t-94 -80.5q8 -48 8 -97q0 -112 -37.5 -193t-108 -124t-168.5 -43q-97 0 -168 43t-108.5 124t-37.5 193t37.5 193t108.5 124t168 43q102 0 174.5 -46.5t108.5 -134.5q25 23 35.5 51t10.5 68v52h106zM470.5 169.5q45.5 65.5 45.5 180.5
t-45.5 180.5t-125.5 65.5q-79 0 -124.5 -65.5t-45.5 -180.5t45.5 -180.5t124.5 -65.5q80 0 125.5 65.5zM297 -185q-19 19 -19 47t19 47t48 19t48 -19t19 -47t-19 -47t-48 -19t-48 19z" />
    <glyph glyph-name="uni1EDC" unicode="&#x1edc;" horiz-adv-x="738" 
d="M780 700v-52q0 -67 -35 -120.5t-94 -80.5q8 -48 8 -97q0 -112 -37.5 -193t-108 -124t-168.5 -43q-97 0 -168 43t-108.5 124t-37.5 193t37.5 193t108.5 124t168 43q102 0 174.5 -46.5t108.5 -134.5q25 23 35.5 51t10.5 68v52h106zM470.5 169.5q45.5 65.5 45.5 180.5
t-45.5 180.5t-125.5 65.5q-79 0 -124.5 -65.5t-45.5 -180.5t45.5 -180.5t124.5 -65.5q80 0 125.5 65.5zM186 917h124l85 -162h-102z" />
    <glyph glyph-name="uni1EDE" unicode="&#x1ede;" horiz-adv-x="738" 
d="M780 700v-52q0 -67 -35 -120.5t-94 -80.5q8 -48 8 -97q0 -112 -37.5 -193t-108 -124t-168.5 -43q-97 0 -168 43t-108.5 124t-37.5 193t37.5 193t108.5 124t168 43q102 0 174.5 -46.5t108.5 -134.5q25 23 35.5 51t10.5 68v52h106zM470.5 169.5q45.5 65.5 45.5 180.5
t-45.5 180.5t-125.5 65.5q-79 0 -124.5 -65.5t-45.5 -180.5t45.5 -180.5t124.5 -65.5q80 0 125.5 65.5zM309 801.5q11 17.5 31 35.5q15 14 22.5 25t7.5 26q0 26 -33 26q-38 0 -63 -50l-53 49q19 35 52.5 54.5t73.5 19.5q54 0 84.5 -24.5t30.5 -67.5q0 -25 -10 -42t-29 -37
q-16 -17 -24.5 -30.5t-8.5 -30.5h-92q0 29 11 46.5z" />
    <glyph glyph-name="uni1EE0" unicode="&#x1ee0;" horiz-adv-x="738" 
d="M780 700v-52q0 -67 -35 -120.5t-94 -80.5q8 -48 8 -97q0 -112 -37.5 -193t-108 -124t-168.5 -43q-97 0 -168 43t-108.5 124t-37.5 193t37.5 193t108.5 124t168 43q102 0 174.5 -46.5t108.5 -134.5q25 23 35.5 51t10.5 68v52h106zM470.5 169.5q45.5 65.5 45.5 180.5
t-45.5 180.5t-125.5 65.5q-79 0 -124.5 -65.5t-45.5 -180.5t45.5 -180.5t124.5 -65.5q80 0 125.5 65.5zM205.5 848q30.5 33 74.5 33q20 0 38 -7.5t39 -20.5q12 -7 23.5 -13t20.5 -6q27 0 27 51h80q0 -64 -31.5 -97t-76.5 -33q-21 0 -38 7.5t-46 23.5q-25 16 -34 16
q-11 0 -18.5 -13t-8.5 -34h-80q0 60 30.5 93z" />
    <glyph glyph-name="Ohungarumlaut" unicode="&#x150;" horiz-adv-x="690" 
d="M177 33q-71 43 -108.5 124t-37.5 193t37.5 193t108.5 124t168 43q98 0 168.5 -43t108 -124t37.5 -193t-37.5 -193t-108 -124t-168.5 -43q-97 0 -168 43zM470.5 169.5q45.5 65.5 45.5 180.5t-45.5 180.5t-125.5 65.5q-79 0 -124.5 -65.5t-45.5 -180.5t45.5 -180.5
t124.5 -65.5q80 0 125.5 65.5zM273 917h124l-107 -162h-102zM448 917h124l-107 -162h-102z" />
    <glyph glyph-name="Omacron" unicode="&#x14c;" horiz-adv-x="690" 
d="M177 33q-71 43 -108.5 124t-37.5 193t37.5 193t108.5 124t168 43q98 0 168.5 -43t108 -124t37.5 -193t-37.5 -193t-108 -124t-168.5 -43q-97 0 -168 43zM470.5 169.5q45.5 65.5 45.5 180.5t-45.5 180.5t-125.5 65.5q-79 0 -124.5 -65.5t-45.5 -180.5t45.5 -180.5
t124.5 -65.5q80 0 125.5 65.5zM174 855h342v-83h-342v83z" />
    <glyph glyph-name="Oslash" unicode="&#xd8;" horiz-adv-x="690" 
d="M629.5 525q29.5 -75 29.5 -175q0 -112 -37.5 -193t-108 -124t-168.5 -43q-77 0 -137 27l-32 -60h-111l61 116q-46 47 -70.5 117.5t-24.5 159.5q0 112 37.5 193t108.5 124t168 43q61 0 109 -16l16 31h115l-42 -79q57 -46 86.5 -121zM199 211l198 376q-24 9 -52 9
q-79 0 -124.5 -65.5t-45.5 -180.5q0 -83 24 -139zM470.5 169.5q45.5 65.5 45.5 180.5q0 106 -40 171l-210 -395q34 -22 79 -22q80 0 125.5 65.5z" />
    <glyph glyph-name="Oslashacute" unicode="&#x1fe;" horiz-adv-x="690" 
d="M629.5 525q29.5 -75 29.5 -175q0 -112 -37.5 -193t-108 -124t-168.5 -43q-77 0 -137 27l-32 -60h-111l61 116q-46 47 -70.5 117.5t-24.5 159.5q0 112 37.5 193t108.5 124t168 43q61 0 109 -16l16 31h115l-42 -79q57 -46 86.5 -121zM199 211l198 376q-24 9 -52 9
q-79 0 -124.5 -65.5t-45.5 -180.5q0 -83 24 -139zM470.5 169.5q45.5 65.5 45.5 180.5q0 106 -40 171l-210 -395q34 -22 79 -22q80 0 125.5 65.5zM379 917h124l-107 -162h-102z" />
    <glyph glyph-name="Otilde" unicode="&#xd5;" horiz-adv-x="690" 
d="M177 33q-71 43 -108.5 124t-37.5 193t37.5 193t108.5 124t168 43q98 0 168.5 -43t108 -124t37.5 -193t-37.5 -193t-108 -124t-168.5 -43q-97 0 -168 43zM470.5 169.5q45.5 65.5 45.5 180.5t-45.5 180.5t-125.5 65.5q-79 0 -124.5 -65.5t-45.5 -180.5t45.5 -180.5
t124.5 -65.5q80 0 125.5 65.5zM205.5 848q30.5 33 74.5 33q20 0 38 -7.5t39 -20.5q12 -7 23.5 -13t20.5 -6q27 0 27 51h80q0 -64 -31.5 -97t-76.5 -33q-21 0 -38 7.5t-46 23.5q-25 16 -34 16q-11 0 -18.5 -13t-8.5 -34h-80q0 60 30.5 93z" />
    <glyph glyph-name="OE" unicode="&#x152;" horiz-adv-x="886" 
d="M580 585v-165h236v-104h-236v-201h268v-115h-411v36q-62 -45 -140 -45q-128 0 -197 92.5t-69 266.5t69 266.5t197 92.5q79 0 140 -43v34h411v-115h-268zM403 167q34 63 34 183q0 121 -33.5 183.5t-98.5 62.5q-67 0 -99 -60.5t-32 -185.5t32 -185.5t99 -60.5q64 0 98 63z
" />
    <glyph glyph-name="P" unicode="P" horiz-adv-x="590" 
d="M68 700h233q124 0 188 -56.5t64 -166.5q0 -116 -65.5 -176.5t-191.5 -60.5h-84v-240h-144v700zM308 354q52 0 78.5 30.5t26.5 88.5q0 55 -28.5 83.5t-84.5 28.5h-88v-231h96z" />
    <glyph glyph-name="Thorn" unicode="&#xde;" horiz-adv-x="574" 
d="M68 700h143v-92h75q122 0 186 -55.5t64 -161.5q0 -112 -65.5 -171.5t-189.5 -59.5h-70v-160h-143v700zM293 274q50 0 77 29t27 84q0 53 -28.5 80.5t-83.5 27.5h-74v-221h82z" />
    <glyph glyph-name="Q" unicode="Q" horiz-adv-x="690" 
d="M601 118.5q-58 -90.5 -165 -117.5q87 -29 214 -33l-22 -98q-98 5 -204 43t-164 86q-109 26 -169 117.5t-60 233.5q0 112 37.5 193t108.5 124t168 43q98 0 168.5 -43t108 -124t37.5 -193q0 -141 -58 -231.5zM220.5 169.5q45.5 -65.5 124.5 -65.5q80 0 125.5 65.5
t45.5 180.5t-45.5 180.5t-125.5 65.5q-79 0 -124.5 -65.5t-45.5 -180.5t45.5 -180.5z" />
    <glyph glyph-name="R" unicode="R" horiz-adv-x="596" 
d="M68 700h247q119 0 178 -48.5t59 -146.5q0 -69 -29 -118t-84 -71v-2q19 -14 29.5 -26.5t17.5 -28.5l103 -259h-153l-80 213q-12 32 -31 42.5t-66 10.5h-47v-266h-144v700zM300 380q55 0 83.5 27.5t28.5 80.5q0 97 -114 97h-86v-205h88z" />
    <glyph glyph-name="Racute" unicode="&#x154;" horiz-adv-x="596" 
d="M68 700h247q119 0 178 -48.5t59 -146.5q0 -69 -29 -118t-84 -71v-2q19 -14 29.5 -26.5t17.5 -28.5l103 -259h-153l-80 213q-12 32 -31 42.5t-66 10.5h-47v-266h-144v700zM300 380q55 0 83.5 27.5t28.5 80.5q0 97 -114 97h-86v-205h88zM333 917h124l-107 -162h-102z" />
    <glyph glyph-name="Rcaron" unicode="&#x158;" horiz-adv-x="596" 
d="M68 700h247q119 0 178 -48.5t59 -146.5q0 -69 -29 -118t-84 -71v-2q19 -14 29.5 -26.5t17.5 -28.5l103 -259h-153l-80 213q-12 32 -31 42.5t-66 10.5h-47v-266h-144v700zM300 380q55 0 83.5 27.5t28.5 80.5q0 97 -114 97h-86v-205h88zM128 917h111l60 -78l60 78h111
l-134 -162h-74z" />
    <glyph glyph-name="uni0156" unicode="&#x156;" horiz-adv-x="596" 
d="M68 700h247q119 0 178 -48.5t59 -146.5q0 -69 -29 -118t-84 -71v-2q19 -14 29.5 -26.5t17.5 -28.5l103 -259h-153l-80 213q-12 32 -31 42.5t-66 10.5h-47v-266h-144v700zM300 380q55 0 83.5 27.5t28.5 80.5q0 97 -114 97h-86v-205h88zM355.5 -94.5q21.5 -22.5 21.5 -58.5
q0 -39 -21.5 -82.5t-57.5 -73.5l-50 39q26 32 43 61q-28 3 -45.5 21.5t-17.5 46.5q0 31 19.5 50t50.5 19q36 0 57.5 -22.5z" />
    <glyph glyph-name="uni1E5A" unicode="&#x1e5a;" horiz-adv-x="596" 
d="M68 700h247q119 0 178 -48.5t59 -146.5q0 -69 -29 -118t-84 -71v-2q19 -14 29.5 -26.5t17.5 -28.5l103 -259h-153l-80 213q-12 32 -31 42.5t-66 10.5h-47v-266h-144v700zM300 380q55 0 83.5 27.5t28.5 80.5q0 97 -114 97h-86v-205h88zM251 -185q-19 19 -19 47t19 47
t48 19t48 -19t19 -47t-19 -47t-48 -19t-48 19z" />
    <glyph glyph-name="uni1E5C" unicode="&#x1e5c;" horiz-adv-x="596" 
d="M68 700h247q119 0 178 -48.5t59 -146.5q0 -69 -29 -118t-84 -71v-2q19 -14 29.5 -26.5t17.5 -28.5l103 -259h-153l-80 213q-12 32 -31 42.5t-66 10.5h-47v-266h-144v700zM300 380q55 0 83.5 27.5t28.5 80.5q0 97 -114 97h-86v-205h88zM251 -185q-19 19 -19 47t19 47
t48 19t48 -19t19 -47t-19 -47t-48 -19t-48 19zM128 855h342v-83h-342v83z" />
    <glyph glyph-name="uni1E5E" unicode="&#x1e5e;" horiz-adv-x="596" 
d="M68 700h247q119 0 178 -48.5t59 -146.5q0 -69 -29 -118t-84 -71v-2q19 -14 29.5 -26.5t17.5 -28.5l103 -259h-153l-80 213q-12 32 -31 42.5t-66 10.5h-47v-266h-144v700zM300 380q55 0 83.5 27.5t28.5 80.5q0 97 -114 97h-86v-205h88zM128 -72h342v-83h-342v83z" />
    <glyph glyph-name="S" unicode="S" horiz-adv-x="551" 
d="M131.5 22q-63.5 32 -103.5 92l83 80q33 -39 80 -64t88 -25q46 0 74 21t28 55q0 25 -9 41t-34 32.5t-82 44.5q-75 37 -118 69t-63.5 69.5t-20.5 87.5q0 55 29 97t82 65t122 23q76 0 134.5 -29t85.5 -80l-91 -68q-50 62 -123 62q-46 0 -71 -18t-25 -51q0 -20 12.5 -36
t45.5 -35t99 -50q64 -30 100.5 -60t52.5 -67t16 -88q0 -60 -30.5 -105.5t-87 -70t-131.5 -24.5q-79 0 -142.5 32z" />
    <glyph glyph-name="Sacute" unicode="&#x15a;" horiz-adv-x="551" 
d="M131.5 22q-63.5 32 -103.5 92l83 80q33 -39 80 -64t88 -25q46 0 74 21t28 55q0 25 -9 41t-34 32.5t-82 44.5q-75 37 -118 69t-63.5 69.5t-20.5 87.5q0 55 29 97t82 65t122 23q76 0 134.5 -29t85.5 -80l-91 -68q-50 62 -123 62q-46 0 -71 -18t-25 -51q0 -20 12.5 -36
t45.5 -35t99 -50q64 -30 100.5 -60t52.5 -67t16 -88q0 -60 -30.5 -105.5t-87 -70t-131.5 -24.5q-79 0 -142.5 32zM312 917h124l-107 -162h-102z" />
    <glyph glyph-name="Scaron" unicode="&#x160;" horiz-adv-x="551" 
d="M131.5 22q-63.5 32 -103.5 92l83 80q33 -39 80 -64t88 -25q46 0 74 21t28 55q0 25 -9 41t-34 32.5t-82 44.5q-75 37 -118 69t-63.5 69.5t-20.5 87.5q0 55 29 97t82 65t122 23q76 0 134.5 -29t85.5 -80l-91 -68q-50 62 -123 62q-46 0 -71 -18t-25 -51q0 -20 12.5 -36
t45.5 -35t99 -50q64 -30 100.5 -60t52.5 -67t16 -88q0 -60 -30.5 -105.5t-87 -70t-131.5 -24.5q-79 0 -142.5 32zM107 917h111l60 -78l60 78h111l-134 -162h-74z" />
    <glyph glyph-name="Scedilla" unicode="&#x15e;" horiz-adv-x="551" 
d="M468 55.5q-55 -52.5 -150 -63.5l-33 -58q42 0 68 -20.5t26 -56.5q0 -44 -32.5 -71.5t-85.5 -27.5q-25 0 -51.5 6t-42.5 15l13 55q32 -12 66 -12q21 0 32 8.5t11 23.5q0 16 -18.5 24.5t-48.5 6.5l-29 33l42 74q-66 8 -119.5 39t-87.5 83l83 80q33 -39 80 -64t88 -25
q46 0 74 21t28 55q0 25 -9 41t-34 32.5t-82 44.5q-75 37 -118 69t-63.5 69.5t-20.5 87.5q0 55 29 97t82 65t122 23q76 0 134.5 -29t85.5 -80l-91 -68q-50 62 -123 62q-46 0 -71 -18t-25 -51q0 -20 12.5 -36t45.5 -35t99 -50q64 -30 100.5 -60t52.5 -67t16 -88
q0 -82 -55 -134.5z" />
    <glyph glyph-name="Scircumflex" unicode="&#x15c;" horiz-adv-x="551" 
d="M131.5 22q-63.5 32 -103.5 92l83 80q33 -39 80 -64t88 -25q46 0 74 21t28 55q0 25 -9 41t-34 32.5t-82 44.5q-75 37 -118 69t-63.5 69.5t-20.5 87.5q0 55 29 97t82 65t122 23q76 0 134.5 -29t85.5 -80l-91 -68q-50 62 -123 62q-46 0 -71 -18t-25 -51q0 -20 12.5 -36
t45.5 -35t99 -50q64 -30 100.5 -60t52.5 -67t16 -88q0 -60 -30.5 -105.5t-87 -70t-131.5 -24.5q-79 0 -142.5 32zM241 917h74l134 -162h-111l-60 78l-60 -78h-111z" />
    <glyph glyph-name="uni0218" unicode="&#x218;" horiz-adv-x="551" 
d="M131.5 22q-63.5 32 -103.5 92l83 80q33 -39 80 -64t88 -25q46 0 74 21t28 55q0 25 -9 41t-34 32.5t-82 44.5q-75 37 -118 69t-63.5 69.5t-20.5 87.5q0 55 29 97t82 65t122 23q76 0 134.5 -29t85.5 -80l-91 -68q-50 62 -123 62q-46 0 -71 -18t-25 -51q0 -20 12.5 -36
t45.5 -35t99 -50q64 -30 100.5 -60t52.5 -67t16 -88q0 -60 -30.5 -105.5t-87 -70t-131.5 -24.5q-79 0 -142.5 32zM334.5 -94.5q21.5 -22.5 21.5 -58.5q0 -39 -21.5 -82.5t-57.5 -73.5l-50 39q26 32 43 61q-28 3 -45.5 21.5t-17.5 46.5q0 31 19.5 50t50.5 19q36 0 57.5 -22.5
z" />
    <glyph glyph-name="uni1E60" unicode="&#x1e60;" horiz-adv-x="551" 
d="M131.5 22q-63.5 32 -103.5 92l83 80q33 -39 80 -64t88 -25q46 0 74 21t28 55q0 25 -9 41t-34 32.5t-82 44.5q-75 37 -118 69t-63.5 69.5t-20.5 87.5q0 55 29 97t82 65t122 23q76 0 134.5 -29t85.5 -80l-91 -68q-50 62 -123 62q-46 0 -71 -18t-25 -51q0 -20 12.5 -36
t45.5 -35t99 -50q64 -30 100.5 -60t52.5 -67t16 -88q0 -60 -30.5 -105.5t-87 -70t-131.5 -24.5q-79 0 -142.5 32zM230 774q-19 19 -19 47t19 47t48 19t48 -19t19 -47t-19 -47t-48 -19t-48 19z" />
    <glyph glyph-name="uni1E62" unicode="&#x1e62;" horiz-adv-x="551" 
d="M131.5 22q-63.5 32 -103.5 92l83 80q33 -39 80 -64t88 -25q46 0 74 21t28 55q0 25 -9 41t-34 32.5t-82 44.5q-75 37 -118 69t-63.5 69.5t-20.5 87.5q0 55 29 97t82 65t122 23q76 0 134.5 -29t85.5 -80l-91 -68q-50 62 -123 62q-46 0 -71 -18t-25 -51q0 -20 12.5 -36
t45.5 -35t99 -50q64 -30 100.5 -60t52.5 -67t16 -88q0 -60 -30.5 -105.5t-87 -70t-131.5 -24.5q-79 0 -142.5 32zM230 -185q-19 19 -19 47t19 47t48 19t48 -19t19 -47t-19 -47t-48 -19t-48 19z" />
    <glyph glyph-name="uni1E9E" unicode="&#x1e9e;" horiz-adv-x="640" 
d="M295.5 15q-42.5 25 -62.5 72l76 56q31 -51 88 -51q38 0 60 27.5t22 73.5q0 37 -18 61t-59.5 41.5t-116.5 32.5v62l98 195h-172v-585h-143v700h469v-80l-119 -218q194 -45 194 -207q0 -60 -26.5 -106.5t-75 -72.5t-110.5 -26t-104.5 25z" />
    <glyph glyph-name="uni018F" unicode="&#x18f;" horiz-adv-x="688" 
d="M505.5 666q73.5 -43 112.5 -124.5t39 -194.5q0 -110 -39 -190.5t-111 -123t-170 -42.5q-146 0 -226 92.5t-80 258.5v60h480q-11 93 -57 143.5t-122 50.5q-59 0 -108 -28t-83 -83l-81 84q37 65 109 102.5t162 37.5q101 0 174.5 -43zM459 154q44 50 53 144l-336 -1v-9
q0 -88 43 -136t121 -48q75 0 119 50z" />
    <glyph glyph-name="T" unicode="T" horiz-adv-x="590" 
d="M223 594h-208v106h560v-106h-208v-594h-144v594z" />
    <glyph glyph-name="Tbar" unicode="&#x166;" horiz-adv-x="590" 
d="M367 594v-209h151v-96h-151v-289h-144v289h-150v96h150v209h-208v106h560v-106h-208z" />
    <glyph glyph-name="Tcaron" unicode="&#x164;" horiz-adv-x="590" 
d="M223 594h-208v106h560v-106h-208v-594h-144v594zM124 917h111l60 -78l60 78h111l-134 -162h-74z" />
    <glyph glyph-name="uni0162" unicode="&#x162;" horiz-adv-x="590" 
d="M340 0l-38 -66q42 0 68 -20.5t26 -56.5q0 -44 -32.5 -71.5t-85.5 -27.5q-25 0 -51.5 6t-42.5 15l13 55q31 -12 66 -12q21 0 32 8.5t11 23.5q0 16 -18.5 24.5t-48.5 6.5l-29 33l47 82h-34v594h-208v106h560v-106h-208v-594h-27z" />
    <glyph glyph-name="uni021A" unicode="&#x21a;" horiz-adv-x="590" 
d="M223 594h-208v106h560v-106h-208v-594h-144v594zM351.5 -94.5q21.5 -22.5 21.5 -58.5q0 -39 -21.5 -82.5t-57.5 -73.5l-50 39q26 32 43 61q-28 3 -45.5 21.5t-17.5 46.5q0 31 19.5 50t50.5 19q36 0 57.5 -22.5z" />
    <glyph glyph-name="uni1E6C" unicode="&#x1e6c;" horiz-adv-x="590" 
d="M223 594h-208v106h560v-106h-208v-594h-144v594zM247 -185q-19 19 -19 47t19 47t48 19t48 -19t19 -47t-19 -47t-48 -19t-48 19z" />
    <glyph glyph-name="uni1E6E" unicode="&#x1e6e;" horiz-adv-x="590" 
d="M223 594h-208v106h560v-106h-208v-594h-144v594zM124 -72h342v-83h-342v83z" />
    <glyph glyph-name="U" unicode="U" horiz-adv-x="662" 
d="M128.5 62q-68.5 72 -68.5 211v427h144v-425q0 -170 127 -170q128 0 128 170v425h144v-427q0 -139 -69 -211t-203 -72t-202.5 72z" />
    <glyph glyph-name="Uacute" unicode="&#xda;" horiz-adv-x="662" 
d="M128.5 62q-68.5 72 -68.5 211v427h144v-425q0 -170 127 -170q128 0 128 170v425h144v-427q0 -139 -69 -211t-203 -72t-202.5 72zM365 917h124l-107 -162h-102z" />
    <glyph glyph-name="Ubreve" unicode="&#x16c;" horiz-adv-x="662" 
d="M128.5 62q-68.5 72 -68.5 211v427h144v-425q0 -170 127 -170q128 0 128 170v425h144v-427q0 -139 -69 -211t-203 -72t-202.5 72zM212 794q-42 39 -43 113h85q1 -34 21 -53t56 -19t56 19t21 53h85q0 -73 -42 -112.5t-120 -39.5q-77 0 -119 39z" />
    <glyph glyph-name="uni01D3" unicode="&#x1d3;" horiz-adv-x="662" 
d="M128.5 62q-68.5 72 -68.5 211v427h144v-425q0 -170 127 -170q128 0 128 170v425h144v-427q0 -139 -69 -211t-203 -72t-202.5 72zM160 917h111l60 -78l60 78h111l-134 -162h-74z" />
    <glyph glyph-name="Ucircumflex" unicode="&#xdb;" horiz-adv-x="662" 
d="M128.5 62q-68.5 72 -68.5 211v427h144v-425q0 -170 127 -170q128 0 128 170v425h144v-427q0 -139 -69 -211t-203 -72t-202.5 72zM294 917h74l134 -162h-111l-60 78l-60 -78h-111z" />
    <glyph glyph-name="Udieresis" unicode="&#xdc;" horiz-adv-x="662" 
d="M128.5 62q-68.5 72 -68.5 211v427h144v-425q0 -170 127 -170q128 0 128 170v425h144v-427q0 -139 -69 -211t-203 -72t-202.5 72zM178 773.5q-19 18.5 -19 47.5t19 47.5t48 18.5t48 -19t19 -47t-19 -47t-48 -19t-48 18.5zM388 774q-19 19 -19 47t19 47t48 19t48 -18.5
t19 -47.5t-19 -47.5t-48 -18.5t-48 19z" />
    <glyph glyph-name="uni01D7" unicode="&#x1d7;" horiz-adv-x="662" 
d="M128.5 62q-68.5 72 -68.5 211v427h144v-425q0 -170 127 -170q128 0 128 170v425h144v-427q0 -139 -69 -211t-203 -72t-202.5 72zM333 1036h99l-63 -109h-83zM178 773.5q-19 18.5 -19 47.5t19 47.5t48 18.5t48 -19t19 -47t-19 -47t-48 -19t-48 18.5zM388 774
q-19 19 -19 47t19 47t48 19t48 -18.5t19 -47.5t-19 -47.5t-48 -18.5t-48 19z" />
    <glyph glyph-name="uni01D9" unicode="&#x1d9;" horiz-adv-x="662" 
d="M128.5 62q-68.5 72 -68.5 211v427h144v-425q0 -170 127 -170q128 0 128 170v425h144v-427q0 -139 -69 -211t-203 -72t-202.5 72zM173 1036h99l59 -70l59 70h99l-122 -130h-72zM178 773.5q-19 18.5 -19 47.5t19 47.5t48 18.5t48 -19t19 -47t-19 -47t-48 -19t-48 18.5z
M388 774q-19 19 -19 47t19 47t48 19t48 -18.5t19 -47.5t-19 -47.5t-48 -18.5t-48 19z" />
    <glyph glyph-name="uni01DB" unicode="&#x1db;" horiz-adv-x="662" 
d="M128.5 62q-68.5 72 -68.5 211v427h144v-425q0 -170 127 -170q128 0 128 170v425h144v-427q0 -139 -69 -211t-203 -72t-202.5 72zM226 1036h99l47 -109h-83zM178 773.5q-19 18.5 -19 47.5t19 47.5t48 18.5t48 -19t19 -47t-19 -47t-48 -19t-48 18.5zM388 774q-19 19 -19 47
t19 47t48 19t48 -18.5t19 -47.5t-19 -47.5t-48 -18.5t-48 19z" />
    <glyph glyph-name="uni01D5" unicode="&#x1d5;" horiz-adv-x="662" 
d="M128.5 62q-68.5 72 -68.5 211v427h144v-425q0 -170 127 -170q128 0 128 170v425h144v-427q0 -139 -69 -211t-203 -72t-202.5 72zM183 1006h297v-66h-297v66zM178 773.5q-19 18.5 -19 47.5t19 47.5t48 18.5t48 -19t19 -47t-19 -47t-48 -19t-48 18.5zM388 774
q-19 19 -19 47t19 47t48 19t48 -18.5t19 -47.5t-19 -47.5t-48 -18.5t-48 19z" />
    <glyph glyph-name="uni1EE4" unicode="&#x1ee4;" horiz-adv-x="662" 
d="M128.5 62q-68.5 72 -68.5 211v427h144v-425q0 -170 127 -170q128 0 128 170v425h144v-427q0 -139 -69 -211t-203 -72t-202.5 72zM283 -185q-19 19 -19 47t19 47t48 19t48 -19t19 -47t-19 -47t-48 -19t-48 19z" />
    <glyph glyph-name="Ugrave" unicode="&#xd9;" horiz-adv-x="662" 
d="M128.5 62q-68.5 72 -68.5 211v427h144v-425q0 -170 127 -170q128 0 128 170v425h144v-427q0 -139 -69 -211t-203 -72t-202.5 72zM172 917h124l85 -162h-102z" />
    <glyph glyph-name="uni1EE6" unicode="&#x1ee6;" horiz-adv-x="662" 
d="M128.5 62q-68.5 72 -68.5 211v427h144v-425q0 -170 127 -170q128 0 128 170v425h144v-427q0 -139 -69 -211t-203 -72t-202.5 72zM295 801.5q11 17.5 31 35.5q15 14 22.5 25t7.5 26q0 26 -33 26q-38 0 -63 -50l-53 49q19 35 52.5 54.5t73.5 19.5q54 0 84.5 -24.5
t30.5 -67.5q0 -25 -10 -42t-29 -37q-16 -17 -24.5 -30.5t-8.5 -30.5h-92q0 29 11 46.5z" />
    <glyph glyph-name="Uhorn" unicode="&#x1af;" horiz-adv-x="743" 
d="M783 700v-52q0 -81 -50 -141t-130 -77v-157q0 -139 -69 -211t-203 -72t-202.5 72t-68.5 211v427h144v-425q0 -170 127 -170q128 0 128 170v425h144v-193q41 28 57.5 60t16.5 81v52h106z" />
    <glyph glyph-name="uni1EE8" unicode="&#x1ee8;" horiz-adv-x="743" 
d="M783 700v-52q0 -81 -50 -141t-130 -77v-157q0 -139 -69 -211t-203 -72t-202.5 72t-68.5 211v427h144v-425q0 -170 127 -170q128 0 128 170v425h144v-193q41 28 57.5 60t16.5 81v52h106zM365 917h124l-107 -162h-102z" />
    <glyph glyph-name="uni1EF0" unicode="&#x1ef0;" horiz-adv-x="743" 
d="M783 700v-52q0 -81 -50 -141t-130 -77v-157q0 -139 -69 -211t-203 -72t-202.5 72t-68.5 211v427h144v-425q0 -170 127 -170q128 0 128 170v425h144v-193q41 28 57.5 60t16.5 81v52h106zM283 -185q-19 19 -19 47t19 47t48 19t48 -19t19 -47t-19 -47t-48 -19t-48 19z" />
    <glyph glyph-name="uni1EEA" unicode="&#x1eea;" horiz-adv-x="743" 
d="M783 700v-52q0 -81 -50 -141t-130 -77v-157q0 -139 -69 -211t-203 -72t-202.5 72t-68.5 211v427h144v-425q0 -170 127 -170q128 0 128 170v425h144v-193q41 28 57.5 60t16.5 81v52h106zM172 917h124l85 -162h-102z" />
    <glyph glyph-name="uni1EEC" unicode="&#x1eec;" horiz-adv-x="743" 
d="M783 700v-52q0 -81 -50 -141t-130 -77v-157q0 -139 -69 -211t-203 -72t-202.5 72t-68.5 211v427h144v-425q0 -170 127 -170q128 0 128 170v425h144v-193q41 28 57.5 60t16.5 81v52h106zM295 801.5q11 17.5 31 35.5q15 14 22.5 25t7.5 26q0 26 -33 26q-38 0 -63 -50
l-53 49q19 35 52.5 54.5t73.5 19.5q54 0 84.5 -24.5t30.5 -67.5q0 -25 -10 -42t-29 -37q-16 -17 -24.5 -30.5t-8.5 -30.5h-92q0 29 11 46.5z" />
    <glyph glyph-name="uni1EEE" unicode="&#x1eee;" horiz-adv-x="743" 
d="M783 700v-52q0 -81 -50 -141t-130 -77v-157q0 -139 -69 -211t-203 -72t-202.5 72t-68.5 211v427h144v-425q0 -170 127 -170q128 0 128 170v425h144v-193q41 28 57.5 60t16.5 81v52h106zM191.5 848q30.5 33 74.5 33q20 0 38 -7.5t39 -20.5q12 -7 23.5 -13t20.5 -6
q27 0 27 51h80q0 -64 -31.5 -97t-76.5 -33q-21 0 -38 7.5t-46 23.5q-25 16 -34 16q-11 0 -18.5 -13t-8.5 -34h-80q0 60 30.5 93z" />
    <glyph glyph-name="Uhungarumlaut" unicode="&#x170;" horiz-adv-x="662" 
d="M128.5 62q-68.5 72 -68.5 211v427h144v-425q0 -170 127 -170q128 0 128 170v425h144v-427q0 -139 -69 -211t-203 -72t-202.5 72zM259 917h124l-107 -162h-102zM434 917h124l-107 -162h-102z" />
    <glyph glyph-name="Umacron" unicode="&#x16a;" horiz-adv-x="662" 
d="M128.5 62q-68.5 72 -68.5 211v427h144v-425q0 -170 127 -170q128 0 128 170v425h144v-427q0 -139 -69 -211t-203 -72t-202.5 72zM160 855h342v-83h-342v83z" />
    <glyph glyph-name="Uogonek" unicode="&#x172;" horiz-adv-x="662" 
d="M603 700v-427q0 -123 -54 -193.5t-158 -85.5q-80 -58 -80 -108q0 -15 12 -25.5t36 -10.5q19 0 62 16l18 -60q-19 -19 -48 -29.5t-59 -10.5q-53 0 -83 26.5t-30 76.5q0 75 79 122q-118 9 -178 80t-60 202v427h144v-425q0 -170 127 -170q128 0 128 170v425h144z" />
    <glyph glyph-name="Uring" unicode="&#x16e;" horiz-adv-x="662" 
d="M128.5 62q-68.5 72 -68.5 211v427h144v-425q0 -170 127 -170q128 0 128 170v425h144v-427q0 -139 -69 -211t-203 -72t-202.5 72zM254.5 779q-29.5 28 -29.5 72t29.5 72t76.5 28t76.5 -28t29.5 -72t-29.5 -72t-76.5 -28t-76.5 28zM366.5 814q13.5 14 13.5 37t-13.5 37
t-35.5 14t-35.5 -14t-13.5 -37t13.5 -37t35.5 -14t35.5 14z" />
    <glyph glyph-name="Utilde" unicode="&#x168;" horiz-adv-x="662" 
d="M128.5 62q-68.5 72 -68.5 211v427h144v-425q0 -170 127 -170q128 0 128 170v425h144v-427q0 -139 -69 -211t-203 -72t-202.5 72zM191.5 848q30.5 33 74.5 33q20 0 38 -7.5t39 -20.5q12 -7 23.5 -13t20.5 -6q27 0 27 51h80q0 -64 -31.5 -97t-76.5 -33q-21 0 -38 7.5
t-46 23.5q-25 16 -34 16q-11 0 -18.5 -13t-8.5 -34h-80q0 60 30.5 93z" />
    <glyph glyph-name="V" unicode="V" horiz-adv-x="647" 
d="M632 700l-243 -700h-131l-243 700h150l159 -517l158 517h150z" />
    <glyph glyph-name="W" unicode="W" horiz-adv-x="874" 
d="M849 700l-147 -700h-137l-128 521l-128 -521h-137l-147 700h153l76 -463l115 463h136l115 -463l76 463h153z" />
    <glyph glyph-name="Wacute" unicode="&#x1e82;" horiz-adv-x="874" 
d="M849 700l-147 -700h-137l-128 521l-128 -521h-137l-147 700h153l76 -463l115 463h136l115 -463l76 463h153zM471 917h124l-107 -162h-102z" />
    <glyph glyph-name="Wcircumflex" unicode="&#x174;" horiz-adv-x="874" 
d="M849 700l-147 -700h-137l-128 521l-128 -521h-137l-147 700h153l76 -463l115 463h136l115 -463l76 463h153zM400 917h74l134 -162h-111l-60 78l-60 -78h-111z" />
    <glyph glyph-name="Wdieresis" unicode="&#x1e84;" horiz-adv-x="874" 
d="M849 700l-147 -700h-137l-128 521l-128 -521h-137l-147 700h153l76 -463l115 463h136l115 -463l76 463h153zM284 773.5q-19 18.5 -19 47.5t19 47.5t48 18.5t48 -19t19 -47t-19 -47t-48 -19t-48 18.5zM494 774q-19 19 -19 47t19 47t48 19t48 -18.5t19 -47.5t-19 -47.5
t-48 -18.5t-48 19z" />
    <glyph glyph-name="Wgrave" unicode="&#x1e80;" horiz-adv-x="874" 
d="M849 700l-147 -700h-137l-128 521l-128 -521h-137l-147 700h153l76 -463l115 463h136l115 -463l76 463h153zM278 917h124l85 -162h-102z" />
    <glyph glyph-name="X" unicode="X" horiz-adv-x="655" 
d="M245 358l-209 342h162l130 -227l129 227h163l-209 -342l218 -358h-160l-141 239l-141 -239h-160z" />
    <glyph glyph-name="Y" unicode="Y" horiz-adv-x="628" 
d="M242 280l-227 420h156l143 -290l143 290h156l-227 -420v-280h-144v280z" />
    <glyph glyph-name="Yacute" unicode="&#xdd;" horiz-adv-x="628" 
d="M242 280l-227 420h156l143 -290l143 290h156l-227 -420v-280h-144v280zM348 917h124l-107 -162h-102z" />
    <glyph glyph-name="Ycircumflex" unicode="&#x176;" horiz-adv-x="628" 
d="M242 280l-227 420h156l143 -290l143 290h156l-227 -420v-280h-144v280zM277 917h74l134 -162h-111l-60 78l-60 -78h-111z" />
    <glyph glyph-name="Ydieresis" unicode="&#x178;" horiz-adv-x="628" 
d="M242 280l-227 420h156l143 -290l143 290h156l-227 -420v-280h-144v280zM161 773.5q-19 18.5 -19 47.5t19 47.5t48 18.5t48 -19t19 -47t-19 -47t-48 -19t-48 18.5zM371 774q-19 19 -19 47t19 47t48 19t48 -18.5t19 -47.5t-19 -47.5t-48 -18.5t-48 19z" />
    <glyph glyph-name="uni1E8E" unicode="&#x1e8e;" horiz-adv-x="628" 
d="M242 280l-227 420h156l143 -290l143 290h156l-227 -420v-280h-144v280zM266 774q-19 19 -19 47t19 47t48 19t48 -19t19 -47t-19 -47t-48 -19t-48 19z" />
    <glyph glyph-name="uni1EF4" unicode="&#x1ef4;" horiz-adv-x="628" 
d="M242 280l-227 420h156l143 -290l143 290h156l-227 -420v-280h-144v280zM266 -185q-19 19 -19 47t19 47t48 19t48 -19t19 -47t-19 -47t-48 -19t-48 19z" />
    <glyph glyph-name="Ygrave" unicode="&#x1ef2;" horiz-adv-x="628" 
d="M242 280l-227 420h156l143 -290l143 290h156l-227 -420v-280h-144v280zM155 917h124l85 -162h-102z" />
    <glyph glyph-name="uni1EF6" unicode="&#x1ef6;" horiz-adv-x="628" 
d="M242 280l-227 420h156l143 -290l143 290h156l-227 -420v-280h-144v280zM278 801.5q11 17.5 31 35.5q15 14 22.5 25t7.5 26q0 26 -33 26q-38 0 -63 -50l-53 49q19 35 52.5 54.5t73.5 19.5q54 0 84.5 -24.5t30.5 -67.5q0 -25 -10 -42t-29 -37q-16 -17 -24.5 -30.5
t-8.5 -30.5h-92q0 29 11 46.5z" />
    <glyph glyph-name="uni1EF8" unicode="&#x1ef8;" horiz-adv-x="628" 
d="M242 280l-227 420h156l143 -290l143 290h156l-227 -420v-280h-144v280zM174.5 848q30.5 33 74.5 33q20 0 38 -7.5t39 -20.5q12 -7 23.5 -13t20.5 -6q27 0 27 51h80q0 -64 -31.5 -97t-76.5 -33q-21 0 -38 7.5t-46 23.5q-25 16 -34 16q-11 0 -18.5 -13t-8.5 -34h-80
q0 60 30.5 93z" />
    <glyph glyph-name="Z" unicode="Z" horiz-adv-x="592" 
d="M27 70l345 515h-317v115h497v-72l-342 -513h355v-115h-538v70z" />
    <glyph glyph-name="Zacute" unicode="&#x179;" horiz-adv-x="592" 
d="M27 70l345 515h-317v115h497v-72l-342 -513h355v-115h-538v70zM330 917h124l-107 -162h-102z" />
    <glyph glyph-name="Zcaron" unicode="&#x17d;" horiz-adv-x="592" 
d="M27 70l345 515h-317v115h497v-72l-342 -513h355v-115h-538v70zM125 917h111l60 -78l60 78h111l-134 -162h-74z" />
    <glyph glyph-name="Zdotaccent" unicode="&#x17b;" horiz-adv-x="592" 
d="M27 70l345 515h-317v115h497v-72l-342 -513h355v-115h-538v70zM248 774q-19 19 -19 47t19 47t48 19t48 -19t19 -47t-19 -47t-48 -19t-48 19z" />
    <glyph glyph-name="uni1E92" unicode="&#x1e92;" horiz-adv-x="592" 
d="M27 70l345 515h-317v115h497v-72l-342 -513h355v-115h-538v70zM248 -185q-19 19 -19 47t19 47t48 19t48 -19t19 -47t-19 -47t-48 -19t-48 19z" />
    <glyph glyph-name="R.ss01" horiz-adv-x="580" 
d="M423 0l-140 253h-2h-70v-253h-143v700h223q121 0 182.5 -53.5t61.5 -159.5q0 -155 -116 -208l153 -279h-149zM211 367h81q50 0 77 29.5t27 85.5q0 49 -28 76t-78 27h-79v-218z" />
    <glyph glyph-name="a" unicode="a" horiz-adv-x="529" 
d="M113 10.5q-39 20.5 -61 57t-22 81.5q0 77 61 118t174 41h78v21q0 40 -23.5 61.5t-66.5 21.5q-45 0 -86 -16t-67 -44l-56 74q41 39 97 61.5t116 22.5q100 0 157 -47t57 -130v-228q0 -23 3.5 -54t8.5 -51h-113q-6 13 -9 25.5t-5 34.5h-2q-57 -70 -153 -70q-49 0 -88 20.5z
M311.5 110.5q31.5 24.5 31.5 62.5v50h-82q-51 0 -78.5 -19t-27.5 -55q0 -30 20.5 -46.5t56.5 -16.5q48 0 79.5 24.5z" />
    <glyph glyph-name="aacute" unicode="&#xe1;" horiz-adv-x="529" 
d="M113 10.5q-39 20.5 -61 57t-22 81.5q0 77 61 118t174 41h78v21q0 40 -23.5 61.5t-66.5 21.5q-45 0 -86 -16t-67 -44l-56 74q41 39 97 61.5t116 22.5q100 0 157 -47t57 -130v-228q0 -23 3.5 -54t8.5 -51h-113q-6 13 -9 25.5t-5 34.5h-2q-57 -70 -153 -70q-49 0 -88 20.5z
M311.5 110.5q31.5 24.5 31.5 62.5v50h-82q-51 0 -78.5 -19t-27.5 -55q0 -30 20.5 -46.5t56.5 -16.5q48 0 79.5 24.5zM295 717h124l-107 -162h-102z" />
    <glyph glyph-name="abreve" unicode="&#x103;" horiz-adv-x="529" 
d="M113 10.5q-39 20.5 -61 57t-22 81.5q0 77 61 118t174 41h78v21q0 40 -23.5 61.5t-66.5 21.5q-45 0 -86 -16t-67 -44l-56 74q41 39 97 61.5t116 22.5q100 0 157 -47t57 -130v-228q0 -23 3.5 -54t8.5 -51h-113q-6 13 -9 25.5t-5 34.5h-2q-57 -70 -153 -70q-49 0 -88 20.5z
M311.5 110.5q31.5 24.5 31.5 62.5v50h-82q-51 0 -78.5 -19t-27.5 -55q0 -30 20.5 -46.5t56.5 -16.5q48 0 79.5 24.5zM142 594q-42 39 -43 113h85q1 -34 21 -53t56 -19t56 19t21 53h85q0 -73 -42 -112.5t-120 -39.5q-77 0 -119 39z" />
    <glyph glyph-name="uni1EAF" unicode="&#x1eaf;" horiz-adv-x="529" 
d="M113 10.5q-39 20.5 -61 57t-22 81.5q0 77 61 118t174 41h78v21q0 40 -23.5 61.5t-66.5 21.5q-45 0 -86 -16t-67 -44l-56 74q41 39 97 61.5t116 22.5q100 0 157 -47t57 -130v-228q0 -23 3.5 -54t8.5 -51h-113q-6 13 -9 25.5t-5 34.5h-2q-57 -70 -153 -70q-49 0 -88 20.5z
M311.5 110.5q31.5 24.5 31.5 62.5v50h-82q-51 0 -78.5 -19t-27.5 -55q0 -30 20.5 -46.5t56.5 -16.5q48 0 79.5 24.5zM269 842h91l-64 -109h-75zM142 594q-42 39 -43 113h85q1 -34 21 -53t56 -19t56 19t21 53h85q0 -73 -42 -112.5t-120 -39.5q-77 0 -119 39z" />
    <glyph glyph-name="uni1EB7" unicode="&#x1eb7;" horiz-adv-x="529" 
d="M113 10.5q-39 20.5 -61 57t-22 81.5q0 77 61 118t174 41h78v21q0 40 -23.5 61.5t-66.5 21.5q-45 0 -86 -16t-67 -44l-56 74q41 39 97 61.5t116 22.5q100 0 157 -47t57 -130v-228q0 -23 3.5 -54t8.5 -51h-113q-6 13 -9 25.5t-5 34.5h-2q-57 -70 -153 -70q-49 0 -88 20.5z
M311.5 110.5q31.5 24.5 31.5 62.5v50h-82q-51 0 -78.5 -19t-27.5 -55q0 -30 20.5 -46.5t56.5 -16.5q48 0 79.5 24.5zM215 -185q-19 19 -19 47t19 47t48 19t48 -19t19 -47t-19 -47t-48 -19t-48 19zM142 594q-42 39 -43 113h85q1 -34 21 -53t56 -19t56 19t21 53h85
q0 -73 -42 -112.5t-120 -39.5q-77 0 -119 39z" />
    <glyph glyph-name="uni1EB1" unicode="&#x1eb1;" horiz-adv-x="529" 
d="M113 10.5q-39 20.5 -61 57t-22 81.5q0 77 61 118t174 41h78v21q0 40 -23.5 61.5t-66.5 21.5q-45 0 -86 -16t-67 -44l-56 74q41 39 97 61.5t116 22.5q100 0 157 -47t57 -130v-228q0 -23 3.5 -54t8.5 -51h-113q-6 13 -9 25.5t-5 34.5h-2q-57 -70 -153 -70q-49 0 -88 20.5z
M311.5 110.5q31.5 24.5 31.5 62.5v50h-82q-51 0 -78.5 -19t-27.5 -55q0 -30 20.5 -46.5t56.5 -16.5q48 0 79.5 24.5zM157 842h91l48 -109h-76zM142 594q-42 39 -43 113h85q1 -34 21 -53t56 -19t56 19t21 53h85q0 -73 -42 -112.5t-120 -39.5q-77 0 -119 39z" />
    <glyph glyph-name="uni1EB3" unicode="&#x1eb3;" horiz-adv-x="529" 
d="M113 10.5q-39 20.5 -61 57t-22 81.5q0 77 61 118t174 41h78v21q0 40 -23.5 61.5t-66.5 21.5q-45 0 -86 -16t-67 -44l-56 74q41 39 97 61.5t116 22.5q100 0 157 -47t57 -130v-228q0 -23 3.5 -54t8.5 -51h-113q-6 13 -9 25.5t-5 34.5h-2q-57 -70 -153 -70q-49 0 -88 20.5z
M311.5 110.5q31.5 24.5 31.5 62.5v50h-82q-51 0 -78.5 -19t-27.5 -55q0 -30 20.5 -46.5t56.5 -16.5q48 0 79.5 24.5zM236.5 770q9.5 14 28.5 29q13 9 19 16t6 18q0 8 -7 13.5t-20 5.5q-15 0 -30 -8t-23 -21l-39 37q15 23 42 37t57 14q38 0 62 -20.5t24 -52.5q0 -20 -8 -32
t-23 -25q-15 -14 -22 -24t-8 -26h-68q0 25 9.5 39zM142 594q-42 39 -43 113h85q1 -34 21 -53t56 -19t56 19t21 53h85q0 -73 -42 -112.5t-120 -39.5q-77 0 -119 39z" />
    <glyph glyph-name="uni1EB5" unicode="&#x1eb5;" horiz-adv-x="529" 
d="M113 10.5q-39 20.5 -61 57t-22 81.5q0 77 61 118t174 41h78v21q0 40 -23.5 61.5t-66.5 21.5q-45 0 -86 -16t-67 -44l-56 74q41 39 97 61.5t116 22.5q100 0 157 -47t57 -130v-228q0 -23 3.5 -54t8.5 -51h-113q-6 13 -9 25.5t-5 34.5h-2q-57 -70 -153 -70q-49 0 -88 20.5z
M311.5 110.5q31.5 24.5 31.5 62.5v50h-82q-51 0 -78.5 -19t-27.5 -55q0 -30 20.5 -46.5t56.5 -16.5q48 0 79.5 24.5zM282 750.5q-14 6.5 -35 19.5q-15 10 -23.5 14.5t-17.5 4.5q-12 0 -22 -10.5t-14 -29.5h-60q16 101 94 101q17 0 33.5 -6.5t37.5 -18.5q12 -7 25 -12.5
t22 -5.5q29 0 34 42h58q-5 -51 -31 -78t-69 -27q-18 0 -32 6.5zM142 594q-42 39 -43 113h85q1 -34 21 -53t56 -19t56 19t21 53h85q0 -73 -42 -112.5t-120 -39.5q-77 0 -119 39z" />
    <glyph glyph-name="uni01CE" unicode="&#x1ce;" horiz-adv-x="529" 
d="M113 10.5q-39 20.5 -61 57t-22 81.5q0 77 61 118t174 41h78v21q0 40 -23.5 61.5t-66.5 21.5q-45 0 -86 -16t-67 -44l-56 74q41 39 97 61.5t116 22.5q100 0 157 -47t57 -130v-228q0 -23 3.5 -54t8.5 -51h-113q-6 13 -9 25.5t-5 34.5h-2q-57 -70 -153 -70q-49 0 -88 20.5z
M311.5 110.5q31.5 24.5 31.5 62.5v50h-82q-51 0 -78.5 -19t-27.5 -55q0 -30 20.5 -46.5t56.5 -16.5q48 0 79.5 24.5zM90 717h111l60 -78l60 78h111l-134 -162h-74z" />
    <glyph glyph-name="acircumflex" unicode="&#xe2;" horiz-adv-x="529" 
d="M113 10.5q-39 20.5 -61 57t-22 81.5q0 77 61 118t174 41h78v21q0 40 -23.5 61.5t-66.5 21.5q-45 0 -86 -16t-67 -44l-56 74q41 39 97 61.5t116 22.5q100 0 157 -47t57 -130v-228q0 -23 3.5 -54t8.5 -51h-113q-6 13 -9 25.5t-5 34.5h-2q-57 -70 -153 -70q-49 0 -88 20.5z
M311.5 110.5q31.5 24.5 31.5 62.5v50h-82q-51 0 -78.5 -19t-27.5 -55q0 -30 20.5 -46.5t56.5 -16.5q48 0 79.5 24.5zM224 717h74l134 -162h-111l-60 78l-60 -78h-111z" />
    <glyph glyph-name="uni1EA5" unicode="&#x1ea5;" horiz-adv-x="529" 
d="M113 10.5q-39 20.5 -61 57t-22 81.5q0 77 61 118t174 41h78v21q0 40 -23.5 61.5t-66.5 21.5q-45 0 -86 -16t-67 -44l-56 74q41 39 97 61.5t116 22.5q100 0 157 -47t57 -130v-228q0 -23 3.5 -54t8.5 -51h-113q-6 13 -9 25.5t-5 34.5h-2q-57 -70 -153 -70q-49 0 -88 20.5z
M311.5 110.5q31.5 24.5 31.5 62.5v50h-82q-51 0 -78.5 -19t-27.5 -55q0 -30 20.5 -46.5t56.5 -16.5q48 0 79.5 24.5zM412 803h91l-63 -108h-75zM224 717h73l135 -162h-112l-59 78l-60 -78h-111z" />
    <glyph glyph-name="uni1EAD" unicode="&#x1ead;" horiz-adv-x="529" 
d="M113 10.5q-39 20.5 -61 57t-22 81.5q0 77 61 118t174 41h78v21q0 40 -23.5 61.5t-66.5 21.5q-45 0 -86 -16t-67 -44l-56 74q41 39 97 61.5t116 22.5q100 0 157 -47t57 -130v-228q0 -23 3.5 -54t8.5 -51h-113q-6 13 -9 25.5t-5 34.5h-2q-57 -70 -153 -70q-49 0 -88 20.5z
M311.5 110.5q31.5 24.5 31.5 62.5v50h-82q-51 0 -78.5 -19t-27.5 -55q0 -30 20.5 -46.5t56.5 -16.5q48 0 79.5 24.5zM215 -185q-19 19 -19 47t19 47t48 19t48 -19t19 -47t-19 -47t-48 -19t-48 19zM224 717h74l134 -162h-111l-60 78l-60 -78h-111z" />
    <glyph glyph-name="uni1EA7" unicode="&#x1ea7;" horiz-adv-x="529" 
d="M113 10.5q-39 20.5 -61 57t-22 81.5q0 77 61 118t174 41h78v21q0 40 -23.5 61.5t-66.5 21.5q-45 0 -86 -16t-67 -44l-56 74q41 39 97 61.5t116 22.5q100 0 157 -47t57 -130v-228q0 -23 3.5 -54t8.5 -51h-113q-6 13 -9 25.5t-5 34.5h-2q-57 -70 -153 -70q-49 0 -88 20.5z
M311.5 110.5q31.5 24.5 31.5 62.5v50h-82q-51 0 -78.5 -19t-27.5 -55q0 -30 20.5 -46.5t56.5 -16.5q48 0 79.5 24.5zM335 803h91l47 -108h-75zM224 717h73l135 -162h-112l-59 78l-60 -78h-111z" />
    <glyph glyph-name="uni1EA9" unicode="&#x1ea9;" horiz-adv-x="529" 
d="M113 10.5q-39 20.5 -61 57t-22 81.5q0 77 61 118t174 41h78v21q0 40 -23.5 61.5t-66.5 21.5q-45 0 -86 -16t-67 -44l-56 74q41 39 97 61.5t116 22.5q100 0 157 -47t57 -130v-228q0 -23 3.5 -54t8.5 -51h-113q-6 13 -9 25.5t-5 34.5h-2q-57 -70 -153 -70q-49 0 -88 20.5z
M311.5 110.5q31.5 24.5 31.5 62.5v50h-82q-51 0 -78.5 -19t-27.5 -55q0 -30 20.5 -46.5t56.5 -16.5q48 0 79.5 24.5zM407 717q10 14 28 28q13 10 19 17t6 18q0 8 -7.5 13t-19.5 5q-15 0 -29.5 -7.5t-23.5 -21.5l-39 37q15 23 42.5 37t56.5 14q38 0 62 -20t24 -52
q0 -20 -8 -32t-23 -25q-15 -14 -22 -24t-8 -27h-68q0 26 10 40zM224 717h73l135 -162h-112l-59 78l-60 -78h-111z" />
    <glyph glyph-name="uni1EAB" unicode="&#x1eab;" horiz-adv-x="529" 
d="M113 10.5q-39 20.5 -61 57t-22 81.5q0 77 61 118t174 41h78v21q0 40 -23.5 61.5t-66.5 21.5q-45 0 -86 -16t-67 -44l-56 74q41 39 97 61.5t116 22.5q100 0 157 -47t57 -130v-228q0 -23 3.5 -54t8.5 -51h-113q-6 13 -9 25.5t-5 34.5h-2q-57 -70 -153 -70q-49 0 -88 20.5z
M311.5 110.5q31.5 24.5 31.5 62.5v50h-82q-51 0 -78.5 -19t-27.5 -55q0 -30 20.5 -46.5t56.5 -16.5q48 0 79.5 24.5zM282 754.5q-14 6.5 -35 19.5q-27 19 -41 19q-12 0 -22 -10.5t-14 -29.5h-60q16 101 94 101q17 0 32 -6t38 -18q3 -2 19.5 -10t28.5 -8q29 0 34 41h58
q-5 -51 -31 -78t-70 -27q-17 0 -31 6.5zM224 717h73l135 -162h-112l-59 78l-60 -78h-111z" />
    <glyph glyph-name="adieresis" unicode="&#xe4;" horiz-adv-x="529" 
d="M113 10.5q-39 20.5 -61 57t-22 81.5q0 77 61 118t174 41h78v21q0 40 -23.5 61.5t-66.5 21.5q-45 0 -86 -16t-67 -44l-56 74q41 39 97 61.5t116 22.5q100 0 157 -47t57 -130v-228q0 -23 3.5 -54t8.5 -51h-113q-6 13 -9 25.5t-5 34.5h-2q-57 -70 -153 -70q-49 0 -88 20.5z
M311.5 110.5q31.5 24.5 31.5 62.5v50h-82q-51 0 -78.5 -19t-27.5 -55q0 -30 20.5 -46.5t56.5 -16.5q48 0 79.5 24.5zM108 573.5q-19 18.5 -19 47.5t19 47.5t48 18.5t48 -19t19 -47t-19 -47t-48 -19t-48 18.5zM318 574q-19 19 -19 47t19 47t48 19t48 -18.5t19 -47.5
t-19 -47.5t-48 -18.5t-48 19z" />
    <glyph glyph-name="uni1EA1" unicode="&#x1ea1;" horiz-adv-x="529" 
d="M113 10.5q-39 20.5 -61 57t-22 81.5q0 77 61 118t174 41h78v21q0 40 -23.5 61.5t-66.5 21.5q-45 0 -86 -16t-67 -44l-56 74q41 39 97 61.5t116 22.5q100 0 157 -47t57 -130v-228q0 -23 3.5 -54t8.5 -51h-113q-6 13 -9 25.5t-5 34.5h-2q-57 -70 -153 -70q-49 0 -88 20.5z
M311.5 110.5q31.5 24.5 31.5 62.5v50h-82q-51 0 -78.5 -19t-27.5 -55q0 -30 20.5 -46.5t56.5 -16.5q48 0 79.5 24.5zM215 -185q-19 19 -19 47t19 47t48 19t48 -19t19 -47t-19 -47t-48 -19t-48 19z" />
    <glyph glyph-name="agrave" unicode="&#xe0;" horiz-adv-x="529" 
d="M113 10.5q-39 20.5 -61 57t-22 81.5q0 77 61 118t174 41h78v21q0 40 -23.5 61.5t-66.5 21.5q-45 0 -86 -16t-67 -44l-56 74q41 39 97 61.5t116 22.5q100 0 157 -47t57 -130v-228q0 -23 3.5 -54t8.5 -51h-113q-6 13 -9 25.5t-5 34.5h-2q-57 -70 -153 -70q-49 0 -88 20.5z
M311.5 110.5q31.5 24.5 31.5 62.5v50h-82q-51 0 -78.5 -19t-27.5 -55q0 -30 20.5 -46.5t56.5 -16.5q48 0 79.5 24.5zM102 717h124l85 -162h-102z" />
    <glyph glyph-name="uni1EA3" unicode="&#x1ea3;" horiz-adv-x="529" 
d="M113 10.5q-39 20.5 -61 57t-22 81.5q0 77 61 118t174 41h78v21q0 40 -23.5 61.5t-66.5 21.5q-45 0 -86 -16t-67 -44l-56 74q41 39 97 61.5t116 22.5q100 0 157 -47t57 -130v-228q0 -23 3.5 -54t8.5 -51h-113q-6 13 -9 25.5t-5 34.5h-2q-57 -70 -153 -70q-49 0 -88 20.5z
M311.5 110.5q31.5 24.5 31.5 62.5v50h-82q-51 0 -78.5 -19t-27.5 -55q0 -30 20.5 -46.5t56.5 -16.5q48 0 79.5 24.5zM225 601.5q11 17.5 31 35.5q15 14 22.5 25t7.5 26q0 26 -33 26q-38 0 -63 -50l-53 49q19 35 52.5 54.5t73.5 19.5q54 0 84.5 -24.5t30.5 -67.5
q0 -25 -10 -42t-29 -37q-16 -17 -24.5 -30.5t-8.5 -30.5h-92q0 29 11 46.5z" />
    <glyph glyph-name="uni0251" unicode="&#x251;" horiz-adv-x="541" 
d="M81 61.5q-54 71.5 -54 196.5q0 77 25.5 134t72 87.5t107.5 30.5q44 0 75 -15t55 -46h2v51h126v-367q0 -101 3 -133h-119q-2 24 -2 66h-2q-21 -35 -59 -55.5t-81 -20.5q-95 0 -149 71.5zM333.5 118q30.5 30 30.5 81v103q0 48 -31.5 80.5t-77.5 32.5q-50 0 -76 -41
t-26 -118q0 -81 26.5 -124.5t75.5 -43.5q48 0 78.5 30z" />
    <glyph glyph-name="amacron" unicode="&#x101;" horiz-adv-x="529" 
d="M113 10.5q-39 20.5 -61 57t-22 81.5q0 77 61 118t174 41h78v21q0 40 -23.5 61.5t-66.5 21.5q-45 0 -86 -16t-67 -44l-56 74q41 39 97 61.5t116 22.5q100 0 157 -47t57 -130v-228q0 -23 3.5 -54t8.5 -51h-113q-6 13 -9 25.5t-5 34.5h-2q-57 -70 -153 -70q-49 0 -88 20.5z
M311.5 110.5q31.5 24.5 31.5 62.5v50h-82q-51 0 -78.5 -19t-27.5 -55q0 -30 20.5 -46.5t56.5 -16.5q48 0 79.5 24.5zM90 655h342v-83h-342v83z" />
    <glyph glyph-name="aogonek" unicode="&#x105;" horiz-adv-x="529" 
d="M505 -194q-19 -19 -48 -29.5t-59 -10.5q-53 0 -83 26.5t-30 76.5q0 81 94 131h-9q-6 13 -9 25.5t-5 34.5h-2q-57 -70 -153 -70q-49 0 -88 20.5t-61 57t-22 81.5q0 77 61 118t174 41h78v21q0 40 -23.5 61.5t-66.5 21.5q-45 0 -86 -16t-67 -44l-56 74q41 39 97 61.5
t116 22.5q100 0 157 -47t57 -130v-228q0 -23 3.5 -54t8.5 -51h-17q-89 -61 -89 -114q0 -15 12 -25.5t36 -10.5q19 0 62 16zM343 223h-82q-51 0 -78.5 -19t-27.5 -55q0 -30 20.5 -46.5t56.5 -16.5q48 0 79.5 24.5t31.5 62.5v50z" />
    <glyph glyph-name="aring" unicode="&#xe5;" horiz-adv-x="529" 
d="M113 10.5q-39 20.5 -61 57t-22 81.5q0 77 61 118t174 41h78v21q0 40 -23.5 61.5t-66.5 21.5q-45 0 -86 -16t-67 -44l-56 74q41 39 97 61.5t116 22.5q100 0 157 -47t57 -130v-228q0 -23 3.5 -54t8.5 -51h-113q-6 13 -9 25.5t-5 34.5h-2q-57 -70 -153 -70q-49 0 -88 20.5z
M311.5 110.5q31.5 24.5 31.5 62.5v50h-82q-51 0 -78.5 -19t-27.5 -55q0 -30 20.5 -46.5t56.5 -16.5q48 0 79.5 24.5zM184.5 579q-29.5 28 -29.5 72t29.5 72t76.5 28t76.5 -28t29.5 -72t-29.5 -72t-76.5 -28t-76.5 28zM296.5 614q13.5 14 13.5 37t-13.5 37t-35.5 14
t-35.5 -14t-13.5 -37t13.5 -37t35.5 -14t35.5 14z" />
    <glyph glyph-name="aringacute" unicode="&#x1fb;" horiz-adv-x="529" 
d="M274 894h108l-71 -109h-93zM184.5 579q-29.5 28 -29.5 72t29.5 72t76.5 28q46 0 75.5 -28t29.5 -72t-29.5 -72t-75.5 -28q-47 0 -76.5 28zM296.5 614q13.5 14 13.5 37t-13.5 37t-35.5 14t-35.5 -14t-13.5 -37t13.5 -37t35.5 -14t35.5 14zM113 10.5q-39 20.5 -61 57
t-22 81.5q0 77 61 118t174 41h78v21q0 40 -23.5 61.5t-66.5 21.5q-45 0 -86 -16t-67 -44l-56 74q41 39 97 61.5t116 22.5q100 0 157 -47t57 -130v-228q0 -23 3.5 -54t8.5 -51h-113q-6 13 -9 25.5t-5 34.5h-2q-57 -70 -153 -70q-49 0 -88 20.5zM311.5 110.5
q31.5 24.5 31.5 62.5v50h-82q-51 0 -78.5 -19t-27.5 -55q0 -30 20.5 -46.5t56.5 -16.5q48 0 79.5 24.5z" />
    <glyph glyph-name="atilde" unicode="&#xe3;" horiz-adv-x="529" 
d="M113 10.5q-39 20.5 -61 57t-22 81.5q0 77 61 118t174 41h78v21q0 40 -23.5 61.5t-66.5 21.5q-45 0 -86 -16t-67 -44l-56 74q41 39 97 61.5t116 22.5q100 0 157 -47t57 -130v-228q0 -23 3.5 -54t8.5 -51h-113q-6 13 -9 25.5t-5 34.5h-2q-57 -70 -153 -70q-49 0 -88 20.5z
M311.5 110.5q31.5 24.5 31.5 62.5v50h-82q-51 0 -78.5 -19t-27.5 -55q0 -30 20.5 -46.5t56.5 -16.5q48 0 79.5 24.5zM121.5 648q30.5 33 74.5 33q20 0 38 -7.5t39 -20.5q12 -7 23.5 -13t20.5 -6q27 0 27 51h80q0 -64 -31.5 -97t-76.5 -33q-21 0 -38 7.5t-46 23.5
q-25 16 -34 16q-11 0 -18.5 -13t-8.5 -34h-80q0 60 30.5 93z" />
    <glyph glyph-name="ae" unicode="&#xe6;" horiz-adv-x="822" 
d="M790 214h-334q14 -117 118 -117q41 0 71.5 15t62.5 50l68 -66q-28 -48 -85 -77t-125 -29q-52 0 -95 17t-74 49q-34 -31 -79.5 -48.5t-94.5 -17.5q-87 0 -140 43.5t-53 114.5q0 76 53 113.5t160 37.5h85v30q0 41 -21.5 62t-62.5 21q-45 0 -82.5 -15.5t-63.5 -44.5l-55 74
q40 41 92.5 62.5t112.5 21.5q106 0 160 -57q63 57 157 57q107 0 166 -65.5t59 -186.5v-44zM665 304q0 48 -26.5 75t-75.5 27q-43 0 -70 -27.5t-35 -79.5h207v5zM328 214h-76q-50 0 -74 -16t-24 -50q0 -30 19 -46t53 -16q44 0 73 25t29 62v41z" />
    <glyph glyph-name="aeacute" unicode="&#x1fd;" horiz-adv-x="822" 
d="M790 214h-334q14 -117 118 -117q41 0 71.5 15t62.5 50l68 -66q-28 -48 -85 -77t-125 -29q-52 0 -95 17t-74 49q-34 -31 -79.5 -48.5t-94.5 -17.5q-87 0 -140 43.5t-53 114.5q0 76 53 113.5t160 37.5h85v30q0 41 -21.5 62t-62.5 21q-45 0 -82.5 -15.5t-63.5 -44.5l-55 74
q40 41 92.5 62.5t112.5 21.5q106 0 160 -57q63 57 157 57q107 0 166 -65.5t59 -186.5v-44zM665 304q0 48 -26.5 75t-75.5 27q-43 0 -70 -27.5t-35 -79.5h207v5zM328 214h-76q-50 0 -74 -16t-24 -50q0 -30 19 -46t53 -16q44 0 73 25t29 62v41zM446 717h124l-107 -162h-102z
" />
    <glyph glyph-name="b" unicode="b" horiz-adv-x="558" 
d="M235.5 11q-40.5 21 -63.5 55h-2q0 -48 -1 -66h-120q3 29 3 133v609h127v-293h2q43 61 145 61q96 0 150.5 -67t54.5 -185q0 -125 -56.5 -196.5t-154.5 -71.5q-44 0 -84.5 21zM376 131.5q28 43.5 28 124.5q0 77 -28 118t-81 41q-50 0 -83 -32t-33 -81v-103
q0 -50 31.5 -80.5t84.5 -30.5t81 43.5z" />
    <glyph glyph-name="c" unicode="c" horiz-adv-x="492" 
d="M93.5 59.5q-66.5 69.5 -66.5 190.5q0 122 66.5 191t182.5 69q70 0 122 -26t80 -74l-77 -67q-19 33 -50.5 51t-68.5 18q-60 0 -94 -43t-34 -119t34 -119t94 -43q37 0 68 18.5t51 50.5l77 -67q-28 -48 -80 -74t-122 -26q-116 0 -182.5 69.5z" />
    <glyph glyph-name="cacute" unicode="&#x107;" horiz-adv-x="492" 
d="M93.5 59.5q-66.5 69.5 -66.5 190.5q0 122 66.5 191t182.5 69q70 0 122 -26t80 -74l-77 -67q-19 33 -50.5 51t-68.5 18q-60 0 -94 -43t-34 -119t34 -119t94 -43q37 0 68 18.5t51 50.5l77 -67q-28 -48 -80 -74t-122 -26q-116 0 -182.5 69.5zM316 717h124l-107 -162h-102z
" />
    <glyph glyph-name="ccaron" unicode="&#x10d;" horiz-adv-x="492" 
d="M93.5 59.5q-66.5 69.5 -66.5 190.5q0 122 66.5 191t182.5 69q70 0 122 -26t80 -74l-77 -67q-19 33 -50.5 51t-68.5 18q-60 0 -94 -43t-34 -119t34 -119t94 -43q37 0 68 18.5t51 50.5l77 -67q-28 -48 -80 -74t-122 -26q-116 0 -182.5 69.5zM111 717h111l60 -78l60 78h111
l-134 -162h-74z" />
    <glyph glyph-name="ccedilla" unicode="&#xe7;" horiz-adv-x="492" 
d="M350 106.5q31 18.5 51 50.5l77 -67q-23 -40 -63 -65t-92 -32l-34 -59q42 0 68 -20.5t26 -56.5q0 -44 -32.5 -71.5t-85.5 -27.5q-25 0 -51.5 6t-42.5 15l13 55q33 -12 67 -12q20 0 31 8.5t11 23.5q0 16 -18 24.5t-48 6.5l-29 33l41 74q-100 11 -156 78.5t-56 179.5
q0 122 66.5 191t182.5 69q70 0 122 -26t80 -74l-77 -67q-19 33 -50.5 51t-68.5 18q-60 0 -94 -43t-34 -119t34 -119t94 -43q37 0 68 18.5z" />
    <glyph glyph-name="ccircumflex" unicode="&#x109;" horiz-adv-x="492" 
d="M93.5 59.5q-66.5 69.5 -66.5 190.5q0 122 66.5 191t182.5 69q70 0 122 -26t80 -74l-77 -67q-19 33 -50.5 51t-68.5 18q-60 0 -94 -43t-34 -119t34 -119t94 -43q37 0 68 18.5t51 50.5l77 -67q-28 -48 -80 -74t-122 -26q-116 0 -182.5 69.5zM245 717h74l134 -162h-111
l-60 78l-60 -78h-111z" />
    <glyph glyph-name="cdotaccent" unicode="&#x10b;" horiz-adv-x="492" 
d="M93.5 59.5q-66.5 69.5 -66.5 190.5q0 122 66.5 191t182.5 69q70 0 122 -26t80 -74l-77 -67q-19 33 -50.5 51t-68.5 18q-60 0 -94 -43t-34 -119t34 -119t94 -43q37 0 68 18.5t51 50.5l77 -67q-28 -48 -80 -74t-122 -26q-116 0 -182.5 69.5zM234 574q-19 19 -19 47t19 47
t48 19t48 -19t19 -47t-19 -47t-48 -19t-48 19z" />
    <glyph glyph-name="d" unicode="d" horiz-adv-x="558" 
d="M83.5 61.5q-56.5 71.5 -56.5 196.5q0 76 26 133t74.5 88t113.5 31q44 0 77.5 -15t58.5 -46h2v293h127v-609q0 -104 3 -133h-120q-1 17 -1 66h-2q-23 -34 -63.5 -55t-84.5 -21q-98 0 -154.5 71.5zM347.5 118.5q31.5 30.5 31.5 80.5v103q0 49 -33 81t-83 32q-53 0 -81 -41
t-28 -118q0 -81 28 -124.5t81 -43.5t84.5 30.5z" />
    <glyph glyph-name="eth" unicode="&#xf0;" horiz-adv-x="513" 
d="M441 438.5q41 -87.5 41 -185.5q0 -79 -28.5 -138.5t-80.5 -92t-122 -32.5q-64 0 -114 28t-77.5 79t-27.5 117q0 67 27.5 120t77 83t111.5 30q35 0 69 -18q-29 59 -77 103l-126 -82l-46 68l100 65q-52 28 -102 36l10 76q98 -11 178 -56l119 77l46 -69l-92 -59
q73 -62 114 -149.5zM330.5 123.5q27.5 34.5 27.5 94.5q0 61 -27.5 96.5t-74.5 35.5q-46 0 -72 -35t-26 -97q0 -59 26 -94t72 -35q47 0 74.5 34.5z" />
    <glyph glyph-name="dcaron" unicode="&#x10f;" horiz-adv-x="742" 
d="M83.5 61.5q-56.5 71.5 -56.5 196.5q0 76 26 133t74.5 88t113.5 31q44 0 77.5 -15t58.5 -46h2v293h127v-609q0 -104 3 -133h-120q-1 17 -1 66h-2q-23 -34 -63.5 -55t-84.5 -21q-98 0 -154.5 71.5zM347.5 118.5q31.5 30.5 31.5 80.5v103q0 49 -33 81t-83 32q-53 0 -81 -41
t-28 -118q0 -81 28 -124.5t81 -43.5t84.5 30.5zM710.5 741.5q21.5 -22.5 21.5 -58.5q0 -38 -21.5 -81t-56.5 -74l-51 38q30 36 43 61q-28 3 -45.5 21.5t-17.5 46.5q0 31 19.5 50t50.5 19q36 0 57.5 -22.5z" />
    <glyph glyph-name="dcroat" unicode="&#x111;" horiz-adv-x="586" 
d="M506 584v-451q0 -104 3 -133h-120q-1 17 -1 66h-2q-23 -34 -63.5 -55t-84.5 -21q-98 0 -154.5 71.5t-56.5 196.5q0 76 26 133t74.5 88t113.5 31q44 0 77.5 -15t58.5 -46h2v135h-140v87h140v71h127v-71h60v-87h-60zM379 302q0 49 -33 81t-83 32q-53 0 -81 -41t-28 -118
q0 -81 28 -124.5t81 -43.5t84.5 30.5t31.5 80.5v103z" />
    <glyph glyph-name="uni1E0D" unicode="&#x1e0d;" horiz-adv-x="558" 
d="M83.5 61.5q-56.5 71.5 -56.5 196.5q0 76 26 133t74.5 88t113.5 31q44 0 77.5 -15t58.5 -46h2v293h127v-609q0 -104 3 -133h-120q-1 17 -1 66h-2q-23 -34 -63.5 -55t-84.5 -21q-98 0 -154.5 71.5zM347.5 118.5q31.5 30.5 31.5 80.5v103q0 49 -33 81t-83 32q-53 0 -81 -41
t-28 -118q0 -81 28 -124.5t81 -43.5t84.5 30.5zM241 -185q-19 19 -19 47t19 47t48 19t48 -19t19 -47t-19 -47t-48 -19t-48 19z" />
    <glyph glyph-name="uni1E0F" unicode="&#x1e0f;" horiz-adv-x="558" 
d="M83.5 61.5q-56.5 71.5 -56.5 196.5q0 76 26 133t74.5 88t113.5 31q44 0 77.5 -15t58.5 -46h2v293h127v-609q0 -104 3 -133h-120q-1 17 -1 66h-2q-23 -34 -63.5 -55t-84.5 -21q-98 0 -154.5 71.5zM347.5 118.5q31.5 30.5 31.5 80.5v103q0 49 -33 81t-83 32q-53 0 -81 -41
t-28 -118q0 -81 28 -124.5t81 -43.5t84.5 30.5zM118 -72h342v-83h-342v83z" />
    <glyph glyph-name="e" unicode="e" horiz-adv-x="542" 
d="M511 203h-348q16 -106 123 -106q44 0 76.5 15t63.5 50l69 -66q-29 -48 -87.5 -77t-128.5 -29q-117 0 -182 68.5t-65 189.5q0 122 65.5 192t180.5 70q110 0 171.5 -69t61.5 -192v-46zM386 296q0 51 -29.5 80.5t-81.5 29.5q-47 0 -76 -30.5t-37 -85.5h224v6z" />
    <glyph glyph-name="eacute" unicode="&#xe9;" horiz-adv-x="542" 
d="M511 203h-348q16 -106 123 -106q44 0 76.5 15t63.5 50l69 -66q-29 -48 -87.5 -77t-128.5 -29q-117 0 -182 68.5t-65 189.5q0 122 65.5 192t180.5 70q110 0 171.5 -69t61.5 -192v-46zM386 296q0 51 -29.5 80.5t-81.5 29.5q-47 0 -76 -30.5t-37 -85.5h224v6zM308 717h124
l-107 -162h-102z" />
    <glyph glyph-name="ebreve" unicode="&#x115;" horiz-adv-x="542" 
d="M511 203h-348q16 -106 123 -106q44 0 76.5 15t63.5 50l69 -66q-29 -48 -87.5 -77t-128.5 -29q-117 0 -182 68.5t-65 189.5q0 122 65.5 192t180.5 70q110 0 171.5 -69t61.5 -192v-46zM386 296q0 51 -29.5 80.5t-81.5 29.5q-47 0 -76 -30.5t-37 -85.5h224v6zM155 594
q-42 39 -43 113h85q1 -34 21 -53t56 -19t56 19t21 53h85q0 -73 -42 -112.5t-120 -39.5q-77 0 -119 39z" />
    <glyph glyph-name="ecaron" unicode="&#x11b;" horiz-adv-x="542" 
d="M511 203h-348q16 -106 123 -106q44 0 76.5 15t63.5 50l69 -66q-29 -48 -87.5 -77t-128.5 -29q-117 0 -182 68.5t-65 189.5q0 122 65.5 192t180.5 70q110 0 171.5 -69t61.5 -192v-46zM386 296q0 51 -29.5 80.5t-81.5 29.5q-47 0 -76 -30.5t-37 -85.5h224v6zM103 717h111
l60 -78l60 78h111l-134 -162h-74z" />
    <glyph glyph-name="ecircumflex" unicode="&#xea;" horiz-adv-x="542" 
d="M511 203h-348q16 -106 123 -106q44 0 76.5 15t63.5 50l69 -66q-29 -48 -87.5 -77t-128.5 -29q-117 0 -182 68.5t-65 189.5q0 122 65.5 192t180.5 70q110 0 171.5 -69t61.5 -192v-46zM386 296q0 51 -29.5 80.5t-81.5 29.5q-47 0 -76 -30.5t-37 -85.5h224v6zM237 717h74
l134 -162h-111l-60 78l-60 -78h-111z" />
    <glyph glyph-name="uni1EBF" unicode="&#x1ebf;" horiz-adv-x="542" 
d="M511 203h-348q16 -106 123 -106q44 0 76.5 15t63.5 50l69 -66q-29 -48 -87.5 -77t-128.5 -29q-117 0 -182 68.5t-65 189.5q0 122 65.5 192t180.5 70q110 0 171.5 -69t61.5 -192v-46zM386 296q0 51 -29.5 80.5t-81.5 29.5q-47 0 -76 -30.5t-37 -85.5h224v6zM425 803h91
l-63 -108h-75zM237 717h73l135 -162h-112l-59 78l-60 -78h-111z" />
    <glyph glyph-name="uni1EC7" unicode="&#x1ec7;" horiz-adv-x="542" 
d="M511 203h-348q16 -106 123 -106q44 0 76.5 15t63.5 50l69 -66q-29 -48 -87.5 -77t-128.5 -29q-117 0 -182 68.5t-65 189.5q0 122 65.5 192t180.5 70q110 0 171.5 -69t61.5 -192v-46zM386 296q0 51 -29.5 80.5t-81.5 29.5q-47 0 -76 -30.5t-37 -85.5h224v6zM231 -185
q-19 19 -19 47t19 47t48 19t48 -19t19 -47t-19 -47t-48 -19t-48 19zM237 717h74l134 -162h-111l-60 78l-60 -78h-111z" />
    <glyph glyph-name="uni1EC1" unicode="&#x1ec1;" horiz-adv-x="542" 
d="M511 203h-348q16 -106 123 -106q44 0 76.5 15t63.5 50l69 -66q-29 -48 -87.5 -77t-128.5 -29q-117 0 -182 68.5t-65 189.5q0 122 65.5 192t180.5 70q110 0 171.5 -69t61.5 -192v-46zM386 296q0 51 -29.5 80.5t-81.5 29.5q-47 0 -76 -30.5t-37 -85.5h224v6zM348 803h91
l47 -108h-75zM237 717h73l135 -162h-112l-59 78l-60 -78h-111z" />
    <glyph glyph-name="uni1EC3" unicode="&#x1ec3;" horiz-adv-x="542" 
d="M511 203h-348q16 -106 123 -106q44 0 76.5 15t63.5 50l69 -66q-29 -48 -87.5 -77t-128.5 -29q-117 0 -182 68.5t-65 189.5q0 122 65.5 192t180.5 70q110 0 171.5 -69t61.5 -192v-46zM386 296q0 51 -29.5 80.5t-81.5 29.5q-47 0 -76 -30.5t-37 -85.5h224v6zM420 717
q10 14 28 28q13 10 19 17t6 18q0 8 -7.5 13t-19.5 5q-15 0 -29.5 -7.5t-23.5 -21.5l-39 37q15 23 42.5 37t56.5 14q38 0 62 -20t24 -52q0 -20 -8 -32t-23 -25q-15 -14 -22 -24t-8 -27h-68q0 26 10 40zM237 717h73l135 -162h-112l-59 78l-60 -78h-111z" />
    <glyph glyph-name="uni1EC5" unicode="&#x1ec5;" horiz-adv-x="542" 
d="M511 203h-348q16 -106 123 -106q44 0 76.5 15t63.5 50l69 -66q-29 -48 -87.5 -77t-128.5 -29q-117 0 -182 68.5t-65 189.5q0 122 65.5 192t180.5 70q110 0 171.5 -69t61.5 -192v-46zM386 296q0 51 -29.5 80.5t-81.5 29.5q-47 0 -76 -30.5t-37 -85.5h224v6zM295 754.5
q-14 6.5 -35 19.5q-27 19 -41 19q-12 0 -22 -10.5t-14 -29.5h-60q16 101 94 101q17 0 32 -6t38 -18q3 -2 19.5 -10t28.5 -8q29 0 34 41h58q-5 -51 -31 -78t-70 -27q-17 0 -31 6.5zM237 717h73l135 -162h-112l-59 78l-60 -78h-111z" />
    <glyph glyph-name="edieresis" unicode="&#xeb;" horiz-adv-x="542" 
d="M511 203h-348q16 -106 123 -106q44 0 76.5 15t63.5 50l69 -66q-29 -48 -87.5 -77t-128.5 -29q-117 0 -182 68.5t-65 189.5q0 122 65.5 192t180.5 70q110 0 171.5 -69t61.5 -192v-46zM386 296q0 51 -29.5 80.5t-81.5 29.5q-47 0 -76 -30.5t-37 -85.5h224v6zM121 573.5
q-19 18.5 -19 47.5t19 47.5t48 18.5t48 -19t19 -47t-19 -47t-48 -19t-48 18.5zM331 574q-19 19 -19 47t19 47t48 19t48 -18.5t19 -47.5t-19 -47.5t-48 -18.5t-48 19z" />
    <glyph glyph-name="edotaccent" unicode="&#x117;" horiz-adv-x="542" 
d="M511 203h-348q16 -106 123 -106q44 0 76.5 15t63.5 50l69 -66q-29 -48 -87.5 -77t-128.5 -29q-117 0 -182 68.5t-65 189.5q0 122 65.5 192t180.5 70q110 0 171.5 -69t61.5 -192v-46zM386 296q0 51 -29.5 80.5t-81.5 29.5q-47 0 -76 -30.5t-37 -85.5h224v6zM226 574
q-19 19 -19 47t19 47t48 19t48 -19t19 -47t-19 -47t-48 -19t-48 19z" />
    <glyph glyph-name="uni1EB9" unicode="&#x1eb9;" horiz-adv-x="542" 
d="M511 203h-348q16 -106 123 -106q44 0 76.5 15t63.5 50l69 -66q-29 -48 -87.5 -77t-128.5 -29q-117 0 -182 68.5t-65 189.5q0 122 65.5 192t180.5 70q110 0 171.5 -69t61.5 -192v-46zM386 296q0 51 -29.5 80.5t-81.5 29.5q-47 0 -76 -30.5t-37 -85.5h224v6zM231 -185
q-19 19 -19 47t19 47t48 19t48 -19t19 -47t-19 -47t-48 -19t-48 19z" />
    <glyph glyph-name="egrave" unicode="&#xe8;" horiz-adv-x="542" 
d="M511 203h-348q16 -106 123 -106q44 0 76.5 15t63.5 50l69 -66q-29 -48 -87.5 -77t-128.5 -29q-117 0 -182 68.5t-65 189.5q0 122 65.5 192t180.5 70q110 0 171.5 -69t61.5 -192v-46zM386 296q0 51 -29.5 80.5t-81.5 29.5q-47 0 -76 -30.5t-37 -85.5h224v6zM115 717h124
l85 -162h-102z" />
    <glyph glyph-name="uni1EBB" unicode="&#x1ebb;" horiz-adv-x="542" 
d="M511 203h-348q16 -106 123 -106q44 0 76.5 15t63.5 50l69 -66q-29 -48 -87.5 -77t-128.5 -29q-117 0 -182 68.5t-65 189.5q0 122 65.5 192t180.5 70q110 0 171.5 -69t61.5 -192v-46zM386 296q0 51 -29.5 80.5t-81.5 29.5q-47 0 -76 -30.5t-37 -85.5h224v6zM238 601.5
q11 17.5 31 35.5q15 14 22.5 25t7.5 26q0 26 -33 26q-38 0 -63 -50l-53 49q19 35 52.5 54.5t73.5 19.5q54 0 84.5 -24.5t30.5 -67.5q0 -25 -10 -42t-29 -37q-16 -17 -24.5 -30.5t-8.5 -30.5h-92q0 29 11 46.5z" />
    <glyph glyph-name="emacron" unicode="&#x113;" horiz-adv-x="542" 
d="M511 203h-348q16 -106 123 -106q44 0 76.5 15t63.5 50l69 -66q-29 -48 -87.5 -77t-128.5 -29q-117 0 -182 68.5t-65 189.5q0 122 65.5 192t180.5 70q110 0 171.5 -69t61.5 -192v-46zM386 296q0 51 -29.5 80.5t-81.5 29.5q-47 0 -76 -30.5t-37 -85.5h224v6zM103 655h342
v-83h-342v83z" />
    <glyph glyph-name="eogonek" unicode="&#x119;" horiz-adv-x="542" 
d="M511 203h-348q16 -106 123 -106q44 0 76.5 15t63.5 50l69 -66q-22 -38 -67 -66q-55 -46 -55 -89q0 -15 12 -25.5t36 -10.5q21 0 62 17l19 -60q-19 -19 -48 -30t-60 -11q-53 0 -83 27t-30 77q0 37 19 66q-7 -1 -21 -1q-117 0 -182 68.5t-65 189.5q0 122 65.5 192t180.5 70
q110 0 171.5 -69t61.5 -192v-46zM386 296q0 51 -29.5 80.5t-81.5 29.5q-47 0 -76 -30.5t-37 -85.5h224v6z" />
    <glyph glyph-name="uni1EBD" unicode="&#x1ebd;" horiz-adv-x="542" 
d="M511 203h-348q16 -106 123 -106q44 0 76.5 15t63.5 50l69 -66q-29 -48 -87.5 -77t-128.5 -29q-117 0 -182 68.5t-65 189.5q0 122 65.5 192t180.5 70q110 0 171.5 -69t61.5 -192v-46zM386 296q0 51 -29.5 80.5t-81.5 29.5q-47 0 -76 -30.5t-37 -85.5h224v6zM134.5 648
q30.5 33 74.5 33q20 0 38 -7.5t39 -20.5q12 -7 23.5 -13t20.5 -6q27 0 27 51h80q0 -64 -31.5 -97t-76.5 -33q-21 0 -38 7.5t-46 23.5q-25 16 -34 16q-11 0 -18.5 -13t-8.5 -34h-80q0 60 30.5 93z" />
    <glyph glyph-name="uni0259" unicode="&#x259;" horiz-adv-x="542" 
d="M445.5 442q65.5 -68 65.5 -190t-65.5 -192t-180.5 -70q-110 0 -171.5 69t-61.5 192v46h348q-16 106 -124 106q-43 0 -76 -15t-64 -49l-69 65q28 48 87.5 77t128.5 29q117 0 182.5 -68zM343.5 124.5q29.5 30.5 37.5 85.5h-225v-6q0 -51 29.5 -80.5t81.5 -29.5
q47 0 76.5 30.5z" />
    <glyph glyph-name="f" unicode="f" horiz-adv-x="377" 
d="M93 413h-82v87h82v60q0 73 46 115t126 42q37 0 69 -11.5t52 -31.5l-44 -76q-12 11 -28 17t-32 6q-29 0 -45.5 -19t-16.5 -52v-50h141v-87h-141v-413h-127v413z" />
    <glyph glyph-name="g" unicode="g" horiz-adv-x="555" 
d="M506 500v-480q0 -127 -63 -191.5t-187 -64.5q-58 0 -109.5 14t-91.5 40l43 87q36 -18 76 -28.5t76 -10.5q68 0 101 42.5t33 128.5v16q-20 -27 -55 -41.5t-83 -14.5q-104 0 -161.5 68t-57.5 192q0 120 55 186.5t155 66.5q104 0 151 -73h2l10 63h106zM379 281
q0 65 -28 99.5t-81 34.5q-56 0 -86 -41.5t-30 -119.5t29.5 -118t86.5 -40q53 0 81 31.5t28 89.5v64z" />
    <glyph glyph-name="gbreve" unicode="&#x11f;" horiz-adv-x="555" 
d="M506 500v-480q0 -127 -63 -191.5t-187 -64.5q-58 0 -109.5 14t-91.5 40l43 87q36 -18 76 -28.5t76 -10.5q68 0 101 42.5t33 128.5v16q-20 -27 -55 -41.5t-83 -14.5q-104 0 -161.5 68t-57.5 192q0 120 55 186.5t155 66.5q104 0 151 -73h2l10 63h106zM379 281
q0 65 -28 99.5t-81 34.5q-56 0 -86 -41.5t-30 -119.5t29.5 -118t86.5 -40q53 0 81 31.5t28 89.5v64zM146 594q-42 39 -43 113h85q1 -34 21 -53t56 -19t56 19t21 53h85q0 -73 -42 -112.5t-120 -39.5q-77 0 -119 39z" />
    <glyph glyph-name="gcaron" unicode="&#x1e7;" horiz-adv-x="555" 
d="M506 500v-480q0 -127 -63 -191.5t-187 -64.5q-58 0 -109.5 14t-91.5 40l43 87q36 -18 76 -28.5t76 -10.5q68 0 101 42.5t33 128.5v16q-20 -27 -55 -41.5t-83 -14.5q-104 0 -161.5 68t-57.5 192q0 120 55 186.5t155 66.5q104 0 151 -73h2l10 63h106zM379 281
q0 65 -28 99.5t-81 34.5q-56 0 -86 -41.5t-30 -119.5t29.5 -118t86.5 -40q53 0 81 31.5t28 89.5v64zM94 717h111l60 -78l60 78h111l-134 -162h-74z" />
    <glyph glyph-name="gcircumflex" unicode="&#x11d;" horiz-adv-x="555" 
d="M506 500v-480q0 -127 -63 -191.5t-187 -64.5q-58 0 -109.5 14t-91.5 40l43 87q36 -18 76 -28.5t76 -10.5q68 0 101 42.5t33 128.5v16q-20 -27 -55 -41.5t-83 -14.5q-104 0 -161.5 68t-57.5 192q0 120 55 186.5t155 66.5q104 0 151 -73h2l10 63h106zM379 281
q0 65 -28 99.5t-81 34.5q-56 0 -86 -41.5t-30 -119.5t29.5 -118t86.5 -40q53 0 81 31.5t28 89.5v64zM228 717h74l134 -162h-111l-60 78l-60 -78h-111z" />
    <glyph glyph-name="uni0123" unicode="&#x123;" horiz-adv-x="555" 
d="M506 500v-480q0 -127 -63 -191.5t-187 -64.5q-58 0 -109.5 14t-91.5 40l43 87q36 -18 76 -28.5t76 -10.5q68 0 101 42.5t33 128.5v16q-20 -27 -55 -41.5t-83 -14.5q-104 0 -161.5 68t-57.5 192q0 120 55 186.5t155 66.5q104 0 151 -73h2l10 63h106zM379 281
q0 65 -28 99.5t-81 34.5q-56 0 -86 -41.5t-30 -119.5t29.5 -118t86.5 -40q53 0 81 31.5t28 89.5v64zM325 670.5q17 -18.5 17 -46.5q0 -31 -19 -50t-50 -19q-36 0 -58 22.5t-22 58.5q0 38 22 81.5t57 74.5l51 -39q-30 -36 -43 -61q28 -3 45 -21.5z" />
    <glyph glyph-name="gdotaccent" unicode="&#x121;" horiz-adv-x="555" 
d="M506 500v-480q0 -127 -63 -191.5t-187 -64.5q-58 0 -109.5 14t-91.5 40l43 87q36 -18 76 -28.5t76 -10.5q68 0 101 42.5t33 128.5v16q-20 -27 -55 -41.5t-83 -14.5q-104 0 -161.5 68t-57.5 192q0 120 55 186.5t155 66.5q104 0 151 -73h2l10 63h106zM379 281
q0 65 -28 99.5t-81 34.5q-56 0 -86 -41.5t-30 -119.5t29.5 -118t86.5 -40q53 0 81 31.5t28 89.5v64zM217 574q-19 19 -19 47t19 47t48 19t48 -19t19 -47t-19 -47t-48 -19t-48 19z" />
    <glyph glyph-name="uni1E21" unicode="&#x1e21;" horiz-adv-x="555" 
d="M506 500v-480q0 -127 -63 -191.5t-187 -64.5q-58 0 -109.5 14t-91.5 40l43 87q36 -18 76 -28.5t76 -10.5q68 0 101 42.5t33 128.5v16q-20 -27 -55 -41.5t-83 -14.5q-104 0 -161.5 68t-57.5 192q0 120 55 186.5t155 66.5q104 0 151 -73h2l10 63h106zM379 281
q0 65 -28 99.5t-81 34.5q-56 0 -86 -41.5t-30 -119.5t29.5 -118t86.5 -40q53 0 81 31.5t28 89.5v64zM94 655h342v-83h-342v83z" />
    <glyph glyph-name="h" unicode="h" horiz-adv-x="567" 
d="M48 742h128v-301q23 32 64.5 50.5t90.5 18.5q85 0 136.5 -56t51.5 -154v-300h-128v291q0 58 -25 91t-69 33q-55 0 -88 -38.5t-33 -104.5v-272h-128v742z" />
    <glyph glyph-name="hbar" unicode="&#x127;" horiz-adv-x="567" 
d="M467.5 454q51.5 -56 51.5 -154v-300h-128v291q0 58 -25 91t-69 33q-55 0 -88 -38.5t-33 -104.5v-272h-128v584h-59v87h59v71h128v-71h132v-87h-132v-143q23 32 64.5 50.5t90.5 18.5q85 0 136.5 -56z" />
    <glyph glyph-name="uni1E2B" unicode="&#x1e2b;" horiz-adv-x="567" 
d="M48 742h128v-301q23 32 64.5 50.5t90.5 18.5q85 0 136.5 -56t51.5 -154v-300h-128v291q0 58 -25 91t-69 33q-55 0 -88 -38.5t-33 -104.5v-272h-128v742zM164 -185q-42 39 -43 113h86q1 -34 20.5 -53t55.5 -19t56 19t21 53h85q0 -73 -42 -112.5t-120 -39.5q-77 0 -119 39z
" />
    <glyph glyph-name="hcircumflex" unicode="&#x125;" horiz-adv-x="567" 
d="M48 742h128v-301q23 32 64.5 50.5t90.5 18.5q85 0 136.5 -56t51.5 -154v-300h-128v291q0 58 -25 91t-69 33q-55 0 -88 -38.5t-33 -104.5v-272h-128v742zM184 959h74l134 -162h-111l-60 78l-60 -78h-111z" />
    <glyph glyph-name="uni1E25" unicode="&#x1e25;" horiz-adv-x="567" 
d="M48 742h128v-301q23 32 64.5 50.5t90.5 18.5q85 0 136.5 -56t51.5 -154v-300h-128v291q0 58 -25 91t-69 33q-55 0 -88 -38.5t-33 -104.5v-272h-128v742zM235 -185q-19 19 -19 47t19 47t48 19t48 -19t19 -47t-19 -47t-48 -19t-48 19z" />
    <glyph glyph-name="i" unicode="i" horiz-adv-x="273" 
d="M77 578.5q-22 20.5 -22 54.5t22 54.5t59 20.5t59.5 -20.5t22.5 -54.5t-22 -54.5t-60 -20.5q-37 0 -59 20.5zM73 500h127v-500h-127v500z" />
    <glyph glyph-name="dotlessi" unicode="&#x131;" horiz-adv-x="279" 
d="M77 500h126v-500h-126v500z" />
    <glyph glyph-name="iacute" unicode="&#xed;" horiz-adv-x="279" 
d="M77 500h126v-500h-126v500zM174 717h124l-107 -162h-102z" />
    <glyph glyph-name="ibreve" unicode="&#x12d;" horiz-adv-x="279" 
d="M77 500h126v-500h-126v500zM21 594q-42 39 -43 113h85q1 -34 21 -53t56 -19t56 19t21 53h85q0 -73 -42 -112.5t-120 -39.5q-77 0 -119 39z" />
    <glyph glyph-name="uni01D0" unicode="&#x1d0;" horiz-adv-x="279" 
d="M77 500h126v-500h-126v500zM-31 717h111l60 -78l60 78h111l-134 -162h-74z" />
    <glyph glyph-name="icircumflex" unicode="&#xee;" horiz-adv-x="279" 
d="M77 500h126v-500h-126v500zM103 717h74l134 -162h-111l-60 78l-60 -78h-111z" />
    <glyph glyph-name="idieresis" unicode="&#xef;" horiz-adv-x="279" 
d="M77 500h126v-500h-126v500zM-13 573.5q-19 18.5 -19 47.5t19 47.5t48 18.5t48 -19t19 -47t-19 -47t-48 -19t-48 18.5zM197 574q-19 19 -19 47t19 47t48 19t48 -18.5t19 -47.5t-19 -47.5t-48 -18.5t-48 19z" />
    <glyph glyph-name="uni1ECB" unicode="&#x1ecb;" horiz-adv-x="273" 
d="M77 578.5q-22 20.5 -22 54.5t22 54.5t59 20.5t59.5 -20.5t22.5 -54.5t-22 -54.5t-60 -20.5q-37 0 -59 20.5zM73 500h127v-500h-127v500zM88 -185q-19 19 -19 47t19 47t48 19t48 -19t19 -47t-19 -47t-48 -19t-48 19z" />
    <glyph glyph-name="igrave" unicode="&#xec;" horiz-adv-x="279" 
d="M77 500h126v-500h-126v500zM-19 717h124l85 -162h-102z" />
    <glyph glyph-name="uni1EC9" unicode="&#x1ec9;" horiz-adv-x="279" 
d="M77 500h126v-500h-126v500zM104 601.5q11 17.5 31 35.5q15 14 22.5 25t7.5 26q0 26 -33 26q-38 0 -63 -50l-53 49q19 35 52.5 54.5t73.5 19.5q54 0 84.5 -24.5t30.5 -67.5q0 -25 -10 -42t-29 -37q-16 -17 -24.5 -30.5t-8.5 -30.5h-92q0 29 11 46.5z" />
    <glyph glyph-name="ij" unicode="&#x133;" horiz-adv-x="551" 
d="M77 578.5q-22 20.5 -22 54.5t22 54.5t59 20.5t59.5 -20.5t22.5 -54.5t-22 -54.5t-60 -20.5q-37 0 -59 20.5zM73 500h127v-500h-127v500zM364 579q-23 21 -23 54q0 32 23 53.5t60 21.5q36 0 59 -21t23 -54t-22.5 -54t-59.5 -21t-60 21zM208 -193l7 89q32 -3 64 -3
q43 0 63.5 20t20.5 61v526h128v-524q0 -181 -185 -181q-52 0 -98 12z" />
    <glyph glyph-name="imacron" unicode="&#x12b;" horiz-adv-x="279" 
d="M77 500h126v-500h-126v500zM-31 655h342v-83h-342v83z" />
    <glyph glyph-name="iogonek" unicode="&#x12f;" horiz-adv-x="273" 
d="M77 578.5q-22 20.5 -22 54.5t22 54.5t59 20.5t59.5 -20.5t22.5 -54.5t-22 -54.5t-60 -20.5q-37 0 -59 20.5zM224 -194q-19 -19 -48 -29.5t-59 -10.5q-53 0 -83 26.5t-30 76.5q0 81 94 131h-25v500h127v-500h-15q-89 -61 -89 -114q0 -15 12 -25.5t36 -10.5q19 0 62 16z
" />
    <glyph glyph-name="itilde" unicode="&#x129;" horiz-adv-x="279" 
d="M77 500h126v-500h-126v500zM0.5 648q30.5 33 74.5 33q20 0 38 -7.5t39 -20.5q12 -7 23.5 -13t20.5 -6q27 0 27 51h80q0 -64 -31.5 -97t-76.5 -33q-21 0 -38 7.5t-46 23.5q-25 16 -34 16q-11 0 -18.5 -13t-8.5 -34h-80q0 60 30.5 93z" />
    <glyph glyph-name="j" unicode="j" horiz-adv-x="279" 
d="M91 579q-23 21 -23 54q0 32 23 53.5t60 21.5q36 0 59 -21t23 -54t-22.5 -54t-59.5 -21t-60 21zM-65 -193l7 89q32 -3 64 -3q43 0 63.5 20t20.5 61v526h128v-524q0 -181 -185 -181q-52 0 -98 12z" />
    <glyph glyph-name="uni0237" unicode="&#x237;" horiz-adv-x="277" 
d="M-65 -193l7 89q27 -3 63 -3q72 0 72 81v526h127v-524q0 -88 -41.5 -134.5t-131.5 -46.5q-54 0 -96 12z" />
    <glyph glyph-name="jcircumflex" unicode="&#x135;" horiz-adv-x="277" 
d="M-65 -193l7 89q27 -3 63 -3q72 0 72 81v526h127v-524q0 -88 -41.5 -134.5t-131.5 -46.5q-54 0 -96 12zM105 717h74l134 -162h-111l-60 78l-60 -78h-111z" />
    <glyph glyph-name="k" unicode="k" horiz-adv-x="533" 
d="M386 0l-148 233l-60 -59v-174h-128v742h128v-415l176 173h157l-185 -181l204 -319h-144z" />
    <glyph glyph-name="uni0137" unicode="&#x137;" horiz-adv-x="533" 
d="M386 0l-148 233l-60 -59v-174h-128v742h128v-415l176 173h157l-185 -181l204 -319h-144zM322.5 -94.5q21.5 -22.5 21.5 -58.5q0 -39 -21.5 -82.5t-57.5 -73.5l-50 39q26 32 43 61q-28 3 -45.5 21.5t-17.5 46.5q0 31 19.5 50t50.5 19q36 0 57.5 -22.5z" />
    <glyph glyph-name="kgreenlandic" unicode="&#x138;" horiz-adv-x="533" 
d="M386 0l-135 215l-73 -80v-135h-128v500h128v-210l177 210h156l-175 -192l194 -308h-144z" />
    <glyph glyph-name="l" unicode="l" horiz-adv-x="301" 
d="M90.5 24.5q-33.5 34.5 -33.5 99.5v618h127v-620q0 -22 11.5 -32.5t34.5 -10.5t57 13l19 -68q-45 -34 -118 -34q-64 0 -97.5 34.5z" />
    <glyph glyph-name="lacute" unicode="&#x13a;" horiz-adv-x="301" 
d="M90.5 24.5q-33.5 34.5 -33.5 99.5v618h127v-620q0 -22 11.5 -32.5t34.5 -10.5t57 13l19 -68q-45 -34 -118 -34q-64 0 -97.5 34.5zM155 959h124l-107 -162h-102z" />
    <glyph glyph-name="lcaron" unicode="&#x13e;" horiz-adv-x="388" 
d="M90.5 24.5q-33.5 34.5 -33.5 99.5v618h127v-620q0 -22 11.5 -32.5t34.5 -10.5t57 13l19 -68q-45 -34 -118 -34q-64 0 -97.5 34.5zM380.5 721.5q21.5 -22.5 21.5 -58.5q0 -38 -21.5 -81t-56.5 -74l-51 38q30 36 43 61q-28 3 -45.5 21.5t-17.5 46.5q0 31 19.5 50t50.5 19
q36 0 57.5 -22.5z" />
    <glyph glyph-name="uni013C" unicode="&#x13c;" horiz-adv-x="301" 
d="M90.5 24.5q-33.5 34.5 -33.5 99.5v618h127v-620q0 -22 11.5 -32.5t34.5 -10.5t57 13l19 -68q-45 -34 -118 -34q-64 0 -97.5 34.5zM240.5 -94.5q21.5 -22.5 21.5 -58.5q0 -39 -21.5 -82.5t-57.5 -73.5l-50 39q26 32 43 61q-28 3 -45.5 21.5t-17.5 46.5q0 31 19.5 50
t50.5 19q36 0 57.5 -22.5z" />
    <glyph glyph-name="ldot" unicode="&#x140;" horiz-adv-x="410" 
d="M90.5 24.5q-33.5 34.5 -33.5 99.5v618h127v-620q0 -22 11.5 -32.5t34.5 -10.5t57 13l19 -68q-45 -34 -118 -34q-64 0 -97.5 34.5zM248.5 276q-23.5 24 -23.5 61q0 38 23.5 62t60.5 24t61 -24t24 -62q0 -37 -23.5 -61t-61.5 -24q-37 0 -60.5 24z" />
    <glyph glyph-name="uni1E37" unicode="&#x1e37;" horiz-adv-x="301" 
d="M90.5 24.5q-33.5 34.5 -33.5 99.5v618h127v-620q0 -22 11.5 -32.5t34.5 -10.5t57 13l19 -68q-45 -34 -118 -34q-64 0 -97.5 34.5zM136 -185q-19 19 -19 47t19 47t48 19t48 -19t19 -47t-19 -47t-48 -19t-48 19z" />
    <glyph glyph-name="uni1E39" unicode="&#x1e39;" horiz-adv-x="301" 
d="M90.5 24.5q-33.5 34.5 -33.5 99.5v618h127v-620q0 -22 11.5 -32.5t34.5 -10.5t57 13l19 -68q-45 -34 -118 -34q-64 0 -97.5 34.5zM136 -185q-19 19 -19 47t19 47t48 19t48 -19t19 -47t-19 -47t-48 -19t-48 19zM-50 897h342v-83h-342v83z" />
    <glyph glyph-name="uni1E3B" unicode="&#x1e3b;" horiz-adv-x="301" 
d="M90.5 24.5q-33.5 34.5 -33.5 99.5v618h127v-620q0 -22 11.5 -32.5t34.5 -10.5t57 13l19 -68q-45 -34 -118 -34q-64 0 -97.5 34.5zM13 -72h342v-83h-342v83z" />
    <glyph glyph-name="lslash" unicode="&#x142;" horiz-adv-x="326" 
d="M315 24q-45 -34 -118 -34q-64 0 -97.5 34.5t-33.5 99.5v178l-48 -20v93l48 20v347h127v-294l93 39v-91l-93 -40v-234q0 -22 11.5 -32.5t34.5 -10.5t57 13z" />
    <glyph glyph-name="m" unicode="m" horiz-adv-x="846" 
d="M48 367q0 100 -4 133h112q5 -40 5 -87h2q16 45 58 71t98 26q54 0 92 -23.5t51 -64.5q20 41 61 64.5t92 23.5q83 0 130.5 -53.5t47.5 -147.5v-309h-127v295q0 53 -23 82.5t-63 29.5q-44 0 -70.5 -30.5t-26.5 -82.5v-294h-126v291q0 55 -22 85.5t-62 30.5
q-43 0 -70.5 -32.5t-27.5 -83.5v-291h-127v367z" />
    <glyph glyph-name="uni1E43" unicode="&#x1e43;" horiz-adv-x="846" 
d="M48 367q0 100 -4 133h112q5 -40 5 -87h2q16 45 58 71t98 26q54 0 92 -23.5t51 -64.5q20 41 61 64.5t92 23.5q83 0 130.5 -53.5t47.5 -147.5v-309h-127v295q0 53 -23 82.5t-63 29.5q-44 0 -70.5 -30.5t-26.5 -82.5v-294h-126v291q0 55 -22 85.5t-62 30.5
q-43 0 -70.5 -32.5t-27.5 -83.5v-291h-127v367zM372 -185q-19 19 -19 47t19 47t48 19t48 -19t19 -47t-19 -47t-48 -19t-48 19z" />
    <glyph glyph-name="n" unicode="n" horiz-adv-x="563" 
d="M47 368q0 91 -4 132h120q5 -42 5 -87h3q18 44 63.5 70.5t101.5 26.5q86 0 130 -58t44 -171v-281h-127v282q0 65 -21 95t-67 30q-53 0 -86.5 -37.5t-33.5 -96.5v-273h-128v368z" />
    <glyph glyph-name="nacute" unicode="&#x144;" horiz-adv-x="563" 
d="M47 368q0 91 -4 132h120q5 -42 5 -87h3q18 44 63.5 70.5t101.5 26.5q86 0 130 -58t44 -171v-281h-127v282q0 65 -21 95t-67 30q-53 0 -86.5 -37.5t-33.5 -96.5v-273h-128v368zM313 717h124l-107 -162h-102z" />
    <glyph glyph-name="napostrophe" unicode="&#x149;" horiz-adv-x="683" 
d="M138.5 687.5q21.5 -22.5 21.5 -58.5q0 -38 -21.5 -81t-56.5 -74l-51 38q30 36 43 61q-28 3 -45.5 21.5t-17.5 46.5q0 31 19.5 50t50.5 19q36 0 57.5 -22.5zM167 368q0 91 -4 132h120q5 -42 5 -87h3q18 44 63.5 70.5t101.5 26.5q86 0 130 -58t44 -171v-281h-127v282
q0 65 -21 95t-67 30q-53 0 -86.5 -37.5t-33.5 -96.5v-273h-128v368z" />
    <glyph glyph-name="ncaron" unicode="&#x148;" horiz-adv-x="563" 
d="M47 368q0 91 -4 132h120q5 -42 5 -87h3q18 44 63.5 70.5t101.5 26.5q86 0 130 -58t44 -171v-281h-127v282q0 65 -21 95t-67 30q-53 0 -86.5 -37.5t-33.5 -96.5v-273h-128v368zM108 717h111l60 -78l60 78h111l-134 -162h-74z" />
    <glyph glyph-name="uni0146" unicode="&#x146;" horiz-adv-x="563" 
d="M47 368q0 91 -4 132h120q5 -42 5 -87h3q18 44 63.5 70.5t101.5 26.5q86 0 130 -58t44 -171v-281h-127v282q0 65 -21 95t-67 30q-53 0 -86.5 -37.5t-33.5 -96.5v-273h-128v368zM335.5 -94.5q21.5 -22.5 21.5 -58.5q0 -39 -21.5 -82.5t-57.5 -73.5l-50 39q26 32 43 61
q-28 3 -45.5 21.5t-17.5 46.5q0 31 19.5 50t50.5 19q36 0 57.5 -22.5z" />
    <glyph glyph-name="uni1E45" unicode="&#x1e45;" horiz-adv-x="563" 
d="M47 368q0 91 -4 132h120q5 -42 5 -87h3q18 44 63.5 70.5t101.5 26.5q86 0 130 -58t44 -171v-281h-127v282q0 65 -21 95t-67 30q-53 0 -86.5 -37.5t-33.5 -96.5v-273h-128v368zM231 574q-19 19 -19 47t19 47t48 19t48 -19t19 -47t-19 -47t-48 -19t-48 19z" />
    <glyph glyph-name="uni1E47" unicode="&#x1e47;" horiz-adv-x="563" 
d="M47 368q0 91 -4 132h120q5 -42 5 -87h3q18 44 63.5 70.5t101.5 26.5q86 0 130 -58t44 -171v-281h-127v282q0 65 -21 95t-67 30q-53 0 -86.5 -37.5t-33.5 -96.5v-273h-128v368zM231 -185q-19 19 -19 47t19 47t48 19t48 -19t19 -47t-19 -47t-48 -19t-48 19z" />
    <glyph glyph-name="eng" unicode="&#x14b;" horiz-adv-x="563" 
d="M241 -193l7 89q30 -3 62 -3q73 0 73 81v308q0 65 -21 95t-67 30q-53 0 -86.5 -37.5t-33.5 -96.5v-273h-128v368q0 91 -4 132h120q5 -42 5 -87h3q18 44 63.5 70.5t101.5 26.5q86 0 130 -58t44 -171v-306q0 -180 -174 -180q-52 0 -95 12z" />
    <glyph glyph-name="uni1E49" unicode="&#x1e49;" horiz-adv-x="563" 
d="M47 368q0 91 -4 132h120q5 -42 5 -87h3q18 44 63.5 70.5t101.5 26.5q86 0 130 -58t44 -171v-281h-127v282q0 65 -21 95t-67 30q-53 0 -86.5 -37.5t-33.5 -96.5v-273h-128v368zM108 -72h342v-83h-342v83z" />
    <glyph glyph-name="ntilde" unicode="&#xf1;" horiz-adv-x="563" 
d="M47 368q0 91 -4 132h120q5 -42 5 -87h3q18 44 63.5 70.5t101.5 26.5q86 0 130 -58t44 -171v-281h-127v282q0 65 -21 95t-67 30q-53 0 -86.5 -37.5t-33.5 -96.5v-273h-128v368zM139.5 648q30.5 33 74.5 33q20 0 38 -7.5t39 -20.5q12 -7 23.5 -13t20.5 -6q27 0 27 51h80
q0 -64 -31.5 -97t-76.5 -33q-21 0 -38 7.5t-46 23.5q-25 16 -34 16q-11 0 -18.5 -13t-8.5 -34h-80q0 60 30.5 93z" />
    <glyph glyph-name="o" unicode="o" horiz-adv-x="579" 
d="M100 59q-68 69 -68 191t68 191t189 69t189.5 -69t68.5 -191t-68.5 -191t-189.5 -69t-189 69zM385 129q35 44 35 121t-35 121t-96 44t-95.5 -44t-34.5 -121t34.5 -121t95.5 -44t96 44z" />
    <glyph glyph-name="oacute" unicode="&#xf3;" horiz-adv-x="579" 
d="M100 59q-68 69 -68 191t68 191t189 69t189.5 -69t68.5 -191t-68.5 -191t-189.5 -69t-189 69zM385 129q35 44 35 121t-35 121t-96 44t-95.5 -44t-34.5 -121t34.5 -121t95.5 -44t96 44zM323 717h124l-107 -162h-102z" />
    <glyph glyph-name="obreve" unicode="&#x14f;" horiz-adv-x="579" 
d="M100 59q-68 69 -68 191t68 191t189 69t189.5 -69t68.5 -191t-68.5 -191t-189.5 -69t-189 69zM385 129q35 44 35 121t-35 121t-96 44t-95.5 -44t-34.5 -121t34.5 -121t95.5 -44t96 44zM170 594q-42 39 -43 113h85q1 -34 21 -53t56 -19t56 19t21 53h85q0 -73 -42 -112.5
t-120 -39.5q-77 0 -119 39z" />
    <glyph glyph-name="uni01D2" unicode="&#x1d2;" horiz-adv-x="579" 
d="M100 59q-68 69 -68 191t68 191t189 69t189.5 -69t68.5 -191t-68.5 -191t-189.5 -69t-189 69zM385 129q35 44 35 121t-35 121t-96 44t-95.5 -44t-34.5 -121t34.5 -121t95.5 -44t96 44zM118 717h111l60 -78l60 78h111l-134 -162h-74z" />
    <glyph glyph-name="ocircumflex" unicode="&#xf4;" horiz-adv-x="579" 
d="M100 59q-68 69 -68 191t68 191t189 69t189.5 -69t68.5 -191t-68.5 -191t-189.5 -69t-189 69zM385 129q35 44 35 121t-35 121t-96 44t-95.5 -44t-34.5 -121t34.5 -121t95.5 -44t96 44zM252 717h74l134 -162h-111l-60 78l-60 -78h-111z" />
    <glyph glyph-name="uni1ED1" unicode="&#x1ed1;" horiz-adv-x="579" 
d="M100 59q-68 69 -68 191t68 191t189 69t189.5 -69t68.5 -191t-68.5 -191t-189.5 -69t-189 69zM385 129q35 44 35 121t-35 121t-96 44t-95.5 -44t-34.5 -121t34.5 -121t95.5 -44t96 44zM440 803h91l-63 -108h-75zM252 717h73l135 -162h-112l-59 78l-60 -78h-111z" />
    <glyph glyph-name="uni1ED9" unicode="&#x1ed9;" horiz-adv-x="579" 
d="M100 59q-68 69 -68 191t68 191t189 69t189.5 -69t68.5 -191t-68.5 -191t-189.5 -69t-189 69zM385 129q35 44 35 121t-35 121t-96 44t-95.5 -44t-34.5 -121t34.5 -121t95.5 -44t96 44zM241 -185q-19 19 -19 47t19 47t48 19t48 -19t19 -47t-19 -47t-48 -19t-48 19zM252 717
h74l134 -162h-111l-60 78l-60 -78h-111z" />
    <glyph glyph-name="uni1ED3" unicode="&#x1ed3;" horiz-adv-x="579" 
d="M100 59q-68 69 -68 191t68 191t189 69t189.5 -69t68.5 -191t-68.5 -191t-189.5 -69t-189 69zM385 129q35 44 35 121t-35 121t-96 44t-95.5 -44t-34.5 -121t34.5 -121t95.5 -44t96 44zM363 803h91l47 -108h-75zM252 717h73l135 -162h-112l-59 78l-60 -78h-111z" />
    <glyph glyph-name="uni1ED5" unicode="&#x1ed5;" horiz-adv-x="579" 
d="M100 59q-68 69 -68 191t68 191t189 69t189.5 -69t68.5 -191t-68.5 -191t-189.5 -69t-189 69zM385 129q35 44 35 121t-35 121t-96 44t-95.5 -44t-34.5 -121t34.5 -121t95.5 -44t96 44zM435 717q10 14 28 28q13 10 19 17t6 18q0 8 -7.5 13t-19.5 5q-15 0 -29.5 -7.5
t-23.5 -21.5l-39 37q15 23 42.5 37t56.5 14q38 0 62 -20t24 -52q0 -20 -8 -32t-23 -25q-15 -14 -22 -24t-8 -27h-68q0 26 10 40zM252 717h73l135 -162h-112l-59 78l-60 -78h-111z" />
    <glyph glyph-name="uni1ED7" unicode="&#x1ed7;" horiz-adv-x="579" 
d="M100 59q-68 69 -68 191t68 191t189 69t189.5 -69t68.5 -191t-68.5 -191t-189.5 -69t-189 69zM385 129q35 44 35 121t-35 121t-96 44t-95.5 -44t-34.5 -121t34.5 -121t95.5 -44t96 44zM310 754.5q-14 6.5 -35 19.5q-27 19 -41 19q-12 0 -22 -10.5t-14 -29.5h-60
q16 101 94 101q17 0 32 -6t38 -18q3 -2 19.5 -10t28.5 -8q29 0 34 41h58q-5 -51 -31 -78t-70 -27q-17 0 -31 6.5zM252 717h73l135 -162h-112l-59 78l-60 -78h-111z" />
    <glyph glyph-name="odieresis" unicode="&#xf6;" horiz-adv-x="579" 
d="M100 59q-68 69 -68 191t68 191t189 69t189.5 -69t68.5 -191t-68.5 -191t-189.5 -69t-189 69zM385 129q35 44 35 121t-35 121t-96 44t-95.5 -44t-34.5 -121t34.5 -121t95.5 -44t96 44zM136 573.5q-19 18.5 -19 47.5t19 47.5t48 18.5t48 -19t19 -47t-19 -47t-48 -19
t-48 18.5zM346 574q-19 19 -19 47t19 47t48 19t48 -18.5t19 -47.5t-19 -47.5t-48 -18.5t-48 19z" />
    <glyph glyph-name="uni1ECD" unicode="&#x1ecd;" horiz-adv-x="579" 
d="M100 59q-68 69 -68 191t68 191t189 69t189.5 -69t68.5 -191t-68.5 -191t-189.5 -69t-189 69zM385 129q35 44 35 121t-35 121t-96 44t-95.5 -44t-34.5 -121t34.5 -121t95.5 -44t96 44zM241 -185q-19 19 -19 47t19 47t48 19t48 -19t19 -47t-19 -47t-48 -19t-48 19z" />
    <glyph glyph-name="ograve" unicode="&#xf2;" horiz-adv-x="579" 
d="M100 59q-68 69 -68 191t68 191t189 69t189.5 -69t68.5 -191t-68.5 -191t-189.5 -69t-189 69zM385 129q35 44 35 121t-35 121t-96 44t-95.5 -44t-34.5 -121t34.5 -121t95.5 -44t96 44zM130 717h124l85 -162h-102z" />
    <glyph glyph-name="uni1ECF" unicode="&#x1ecf;" horiz-adv-x="579" 
d="M100 59q-68 69 -68 191t68 191t189 69t189.5 -69t68.5 -191t-68.5 -191t-189.5 -69t-189 69zM385 129q35 44 35 121t-35 121t-96 44t-95.5 -44t-34.5 -121t34.5 -121t95.5 -44t96 44zM253 601.5q11 17.5 31 35.5q15 14 22.5 25t7.5 26q0 26 -33 26q-38 0 -63 -50l-53 49
q19 35 52.5 54.5t73.5 19.5q54 0 84.5 -24.5t30.5 -67.5q0 -25 -10 -42t-29 -37q-16 -17 -24.5 -30.5t-8.5 -30.5h-92q0 29 11 46.5z" />
    <glyph glyph-name="ohorn" unicode="&#x1a1;" horiz-adv-x="651" 
d="M678 508v-52q0 -68 -35.5 -121.5t-95.5 -80.5v-4q0 -122 -68.5 -191t-189.5 -69t-189 69t-68 191t68 191t189 69q95 0 158.5 -43t86.5 -122q20 22 29 48t9 63v52h106zM385 129q35 44 35 121t-35 121t-96 44t-95.5 -44t-34.5 -121t34.5 -121t95.5 -44t96 44z" />
    <glyph glyph-name="uni1EDB" unicode="&#x1edb;" horiz-adv-x="651" 
d="M678 508v-52q0 -68 -35.5 -121.5t-95.5 -80.5v-4q0 -122 -68.5 -191t-189.5 -69t-189 69t-68 191t68 191t189 69q95 0 158.5 -43t86.5 -122q20 22 29 48t9 63v52h106zM385 129q35 44 35 121t-35 121t-96 44t-95.5 -44t-34.5 -121t34.5 -121t95.5 -44t96 44zM323 717h124
l-107 -162h-102z" />
    <glyph glyph-name="uni1EE3" unicode="&#x1ee3;" horiz-adv-x="651" 
d="M678 508v-52q0 -68 -35.5 -121.5t-95.5 -80.5v-4q0 -122 -68.5 -191t-189.5 -69t-189 69t-68 191t68 191t189 69q95 0 158.5 -43t86.5 -122q20 22 29 48t9 63v52h106zM385 129q35 44 35 121t-35 121t-96 44t-95.5 -44t-34.5 -121t34.5 -121t95.5 -44t96 44zM241 -185
q-19 19 -19 47t19 47t48 19t48 -19t19 -47t-19 -47t-48 -19t-48 19z" />
    <glyph glyph-name="uni1EDD" unicode="&#x1edd;" horiz-adv-x="651" 
d="M678 508v-52q0 -68 -35.5 -121.5t-95.5 -80.5v-4q0 -122 -68.5 -191t-189.5 -69t-189 69t-68 191t68 191t189 69q95 0 158.5 -43t86.5 -122q20 22 29 48t9 63v52h106zM385 129q35 44 35 121t-35 121t-96 44t-95.5 -44t-34.5 -121t34.5 -121t95.5 -44t96 44zM130 717h124
l85 -162h-102z" />
    <glyph glyph-name="uni1EDF" unicode="&#x1edf;" horiz-adv-x="651" 
d="M678 508v-52q0 -68 -35.5 -121.5t-95.5 -80.5v-4q0 -122 -68.5 -191t-189.5 -69t-189 69t-68 191t68 191t189 69q95 0 158.5 -43t86.5 -122q20 22 29 48t9 63v52h106zM385 129q35 44 35 121t-35 121t-96 44t-95.5 -44t-34.5 -121t34.5 -121t95.5 -44t96 44zM253 601.5
q11 17.5 31 35.5q15 14 22.5 25t7.5 26q0 26 -33 26q-38 0 -63 -50l-53 49q19 35 52.5 54.5t73.5 19.5q54 0 84.5 -24.5t30.5 -67.5q0 -25 -10 -42t-29 -37q-16 -17 -24.5 -30.5t-8.5 -30.5h-92q0 29 11 46.5z" />
    <glyph glyph-name="uni1EE1" unicode="&#x1ee1;" horiz-adv-x="651" 
d="M678 508v-52q0 -68 -35.5 -121.5t-95.5 -80.5v-4q0 -122 -68.5 -191t-189.5 -69t-189 69t-68 191t68 191t189 69q95 0 158.5 -43t86.5 -122q20 22 29 48t9 63v52h106zM385 129q35 44 35 121t-35 121t-96 44t-95.5 -44t-34.5 -121t34.5 -121t95.5 -44t96 44zM149.5 648
q30.5 33 74.5 33q20 0 38 -7.5t39 -20.5q12 -7 23.5 -13t20.5 -6q27 0 27 51h80q0 -64 -31.5 -97t-76.5 -33q-21 0 -38 7.5t-46 23.5q-25 16 -34 16q-11 0 -18.5 -13t-8.5 -34h-80q0 60 30.5 93z" />
    <glyph glyph-name="ohungarumlaut" unicode="&#x151;" horiz-adv-x="579" 
d="M222 704h116l-100 -153h-96zM386 704h116l-100 -153h-96zM100 59q-68 69 -68 191t68 191t189 69t189.5 -69t68.5 -191t-68.5 -191t-189.5 -69t-189 69zM385 129q35 44 35 121t-35 121t-96 44t-95.5 -44t-34.5 -121t34.5 -121t95.5 -44t96 44z" />
    <glyph glyph-name="omacron" unicode="&#x14d;" horiz-adv-x="579" 
d="M100 59q-68 69 -68 191t68 191t189 69t189.5 -69t68.5 -191t-68.5 -191t-189.5 -69t-189 69zM385 129q35 44 35 121t-35 121t-96 44t-95.5 -44t-34.5 -121t34.5 -121t95.5 -44t96 44zM118 655h342v-83h-342v83z" />
    <glyph glyph-name="oslash" unicode="&#xf8;" horiz-adv-x="579" 
d="M521 379q26 -55 26 -129q0 -122 -68.5 -191t-189.5 -69q-49 0 -90 12l-24 -45h-88l41 78q-47 33 -71.5 88t-24.5 127q0 122 68 191t189 69q47 0 84 -10l18 35h92l-36 -68q48 -33 74 -88zM184 142l141 268q-18 5 -36 5q-61 0 -95.5 -44t-34.5 -121q0 -64 25 -108zM385 129
q35 44 35 121q0 70 -29 113l-144 -272q20 -6 42 -6q61 0 96 44z" />
    <glyph glyph-name="oslashacute" unicode="&#x1ff;" horiz-adv-x="579" 
d="M521 379q26 -55 26 -129q0 -122 -68.5 -191t-189.5 -69q-49 0 -90 12l-24 -45h-88l41 78q-47 33 -71.5 88t-24.5 127q0 122 68 191t189 69q47 0 84 -10l18 35h92l-36 -68q48 -33 74 -88zM184 142l141 268q-18 5 -36 5q-61 0 -95.5 -44t-34.5 -121q0 -64 25 -108zM385 129
q35 44 35 121q0 70 -29 113l-144 -272q20 -6 42 -6q61 0 96 44zM323 717h124l-107 -162h-102z" />
    <glyph glyph-name="otilde" unicode="&#xf5;" horiz-adv-x="579" 
d="M100 59q-68 69 -68 191t68 191t189 69t189.5 -69t68.5 -191t-68.5 -191t-189.5 -69t-189 69zM385 129q35 44 35 121t-35 121t-96 44t-95.5 -44t-34.5 -121t34.5 -121t95.5 -44t96 44zM149.5 648q30.5 33 74.5 33q20 0 38 -7.5t39 -20.5q12 -7 23.5 -13t20.5 -6
q27 0 27 51h80q0 -64 -31.5 -97t-76.5 -33q-21 0 -38 7.5t-46 23.5q-25 16 -34 16q-11 0 -18.5 -13t-8.5 -34h-80q0 60 30.5 93z" />
    <glyph glyph-name="oe" unicode="&#x153;" horiz-adv-x="862" 
d="M830 214h-334q13 -117 118 -117q41 0 71.5 15t62.5 50l68 -66q-28 -48 -85 -77t-125 -29q-53 0 -97 18t-75 51q-55 -69 -168 -69q-115 0 -174.5 66t-59.5 194t59.5 194t174.5 66q114 0 169 -70q31 34 74.5 52t95.5 18q107 0 166 -65.5t59 -186.5v-44zM342 126.5
q26 41.5 26 123.5t-26 123.5t-76 41.5q-53 0 -80.5 -42t-27.5 -123t27.5 -123t80.5 -42q50 0 76 41.5zM705 304q0 48 -26.5 75t-75.5 27q-43 0 -70 -27.5t-35 -79.5h207v5z" />
    <glyph glyph-name="p" unicode="p" horiz-adv-x="565" 
d="M53 367q0 81 -4 133h120q3 -30 3 -66h2q25 36 65 56t89 20q95 0 150 -70t55 -191t-55.5 -190t-153.5 -69q-48 0 -85 16t-55 45h-3v-293h-128v609zM377 128.5q28 43.5 28 124.5q0 159 -107 159q-52 0 -84.5 -30.5t-32.5 -80.5v-103q0 -48 33 -80.5t82 -32.5q53 0 81 43.5z
" />
    <glyph glyph-name="thorn" unicode="&#xfe;" horiz-adv-x="542" 
d="M49 742h126v-280q19 22 54.5 35t75.5 13q97 0 151.5 -67.5t54.5 -186.5q0 -81 -26.5 -141t-76 -92.5t-115.5 -32.5q-38 0 -69.5 10.5t-48.5 28.5v-251h-126v964zM356 130.5q29 45.5 29 124.5q0 76 -28 118t-78 42q-48 0 -76 -32.5t-28 -86.5v-77q0 -63 26.5 -98.5
t73.5 -35.5q52 0 81 45.5z" />
    <glyph glyph-name="q" unicode="q" horiz-adv-x="565" 
d="M384 56h-3q-20 -31 -58 -48.5t-85 -17.5q-96 0 -151 69.5t-55 190.5q0 122 55 191t153 69q50 0 89 -19t61 -53h2q0 38 3 62h121q-5 -72 -5 -133v-609h-127v298zM351 117.5q33 32.5 33 80.5v103q0 49 -32.5 80t-84.5 31q-53 0 -80.5 -40t-27.5 -119q0 -81 28.5 -124.5
t81.5 -43.5q49 0 82 32.5z" />
    <glyph glyph-name="r" unicode="r" horiz-adv-x="397" 
d="M54 378q0 85 -3 122h121q4 -39 4 -88v-10h4q19 49 67 78.5t110 29.5q12 0 30 -3v-101q-4 2 -24 2q-48 0 -89.5 -26t-66.5 -69.5t-25 -93.5v-219h-128v378z" />
    <glyph glyph-name="racute" unicode="&#x155;" horiz-adv-x="397" 
d="M54 378q0 85 -3 122h121q4 -39 4 -88v-10h4q19 49 67 78.5t110 29.5q12 0 30 -3v-101q-4 2 -24 2q-48 0 -89.5 -26t-66.5 -69.5t-25 -93.5v-219h-128v378zM233 717h124l-107 -162h-102z" />
    <glyph glyph-name="rcaron" unicode="&#x159;" horiz-adv-x="397" 
d="M54 378q0 85 -3 122h121q4 -39 4 -88v-10h4q19 49 67 78.5t110 29.5q12 0 30 -3v-101q-4 2 -24 2q-48 0 -89.5 -26t-66.5 -69.5t-25 -93.5v-219h-128v378zM28 717h111l60 -78l60 78h111l-134 -162h-74z" />
    <glyph glyph-name="uni0157" unicode="&#x157;" horiz-adv-x="397" 
d="M54 378q0 85 -3 122h121q4 -39 4 -88v-10h4q19 49 67 78.5t110 29.5q12 0 30 -3v-101q-4 2 -24 2q-48 0 -89.5 -26t-66.5 -69.5t-25 -93.5v-219h-128v378zM177.5 -94.5q21.5 -22.5 21.5 -58.5q0 -39 -21.5 -82.5t-57.5 -73.5l-50 39q26 32 43 61q-28 3 -45.5 21.5
t-17.5 46.5q0 31 19.5 50t50.5 19q36 0 57.5 -22.5z" />
    <glyph glyph-name="uni1E5B" unicode="&#x1e5b;" horiz-adv-x="397" 
d="M54 378q0 85 -3 122h121q4 -39 4 -88v-10h4q19 49 67 78.5t110 29.5q12 0 30 -3v-101q-4 2 -24 2q-48 0 -89.5 -26t-66.5 -69.5t-25 -93.5v-219h-128v378zM73 -185q-19 19 -19 47t19 47t48 19t48 -19t19 -47t-19 -47t-48 -19t-48 19z" />
    <glyph glyph-name="uni1E5D" unicode="&#x1e5d;" horiz-adv-x="397" 
d="M54 378q0 85 -3 122h121q4 -39 4 -88v-10h4q19 49 67 78.5t110 29.5q12 0 30 -3v-101q-4 2 -24 2q-48 0 -89.5 -26t-66.5 -69.5t-25 -93.5v-219h-128v378zM73 -185q-19 19 -19 47t19 47t48 19t48 -19t19 -47t-19 -47t-48 -19t-48 19zM28 655h342v-83h-342v83z" />
    <glyph glyph-name="uni1E5F" unicode="&#x1e5f;" horiz-adv-x="397" 
d="M54 378q0 85 -3 122h121q4 -39 4 -88v-10h4q19 49 67 78.5t110 29.5q12 0 30 -3v-101q-4 2 -24 2q-48 0 -89.5 -26t-66.5 -69.5t-25 -93.5v-219h-128v378zM24 -72h342v-83h-342v83z" />
    <glyph glyph-name="s" unicode="s" horiz-adv-x="441" 
d="M96.5 16q-49.5 26 -69.5 69l79 55q18 -25 46 -40t57 -15q34 0 56 17.5t22 43.5q0 21 -16 33.5t-68 32.5q-91 35 -128 71t-37 89q0 62 50.5 100t134.5 38q56 0 101 -21.5t73 -61.5l-74 -55q-35 43 -95 43q-30 0 -46.5 -10.5t-16.5 -30.5q0 -14 7 -23t27 -19t64 -27
q59 -23 91.5 -44.5t46 -47t13.5 -61.5q0 -48 -25.5 -84.5t-71.5 -57t-106 -20.5q-65 0 -114.5 26z" />
    <glyph glyph-name="sacute" unicode="&#x15b;" horiz-adv-x="441" 
d="M96.5 16q-49.5 26 -69.5 69l79 55q18 -25 46 -40t57 -15q34 0 56 17.5t22 43.5q0 21 -16 33.5t-68 32.5q-91 35 -128 71t-37 89q0 62 50.5 100t134.5 38q56 0 101 -21.5t73 -61.5l-74 -55q-35 43 -95 43q-30 0 -46.5 -10.5t-16.5 -30.5q0 -14 7 -23t27 -19t64 -27
q59 -23 91.5 -44.5t46 -47t13.5 -61.5q0 -48 -25.5 -84.5t-71.5 -57t-106 -20.5q-65 0 -114.5 26zM256 717h124l-107 -162h-102z" />
    <glyph glyph-name="scaron" unicode="&#x161;" horiz-adv-x="441" 
d="M96.5 16q-49.5 26 -69.5 69l79 55q18 -25 46 -40t57 -15q34 0 56 17.5t22 43.5q0 21 -16 33.5t-68 32.5q-91 35 -128 71t-37 89q0 62 50.5 100t134.5 38q56 0 101 -21.5t73 -61.5l-74 -55q-35 43 -95 43q-30 0 -46.5 -10.5t-16.5 -30.5q0 -14 7 -23t27 -19t64 -27
q59 -23 91.5 -44.5t46 -47t13.5 -61.5q0 -48 -25.5 -84.5t-71.5 -57t-106 -20.5q-65 0 -114.5 26zM51 717h111l60 -78l60 78h111l-134 -162h-74z" />
    <glyph glyph-name="scedilla" unicode="&#x15f;" horiz-adv-x="441" 
d="M373.5 49q-40.5 -42 -110.5 -55l-34 -60q42 0 68 -20.5t26 -56.5q0 -44 -32.5 -71.5t-85.5 -27.5q-25 0 -51.5 6t-42.5 15l13 55q32 -12 66 -12q21 0 32 8.5t11 23.5q0 16 -18.5 24.5t-48.5 6.5l-29 33l42 74q-54 6 -94.5 30.5t-57.5 62.5l79 55q18 -25 46 -40t57 -15
q34 0 56 17.5t22 43.5q0 21 -16 33.5t-68 32.5q-91 35 -128 71t-37 89q0 62 50.5 100t134.5 38q56 0 101 -21.5t73 -61.5l-74 -55q-35 43 -95 43q-30 0 -46.5 -10.5t-16.5 -30.5q0 -14 7 -23t27 -19t64 -27q59 -23 91.5 -44.5t46 -47t13.5 -61.5q0 -61 -40.5 -103z" />
    <glyph glyph-name="scircumflex" unicode="&#x15d;" horiz-adv-x="441" 
d="M96.5 16q-49.5 26 -69.5 69l79 55q18 -25 46 -40t57 -15q34 0 56 17.5t22 43.5q0 21 -16 33.5t-68 32.5q-91 35 -128 71t-37 89q0 62 50.5 100t134.5 38q56 0 101 -21.5t73 -61.5l-74 -55q-35 43 -95 43q-30 0 -46.5 -10.5t-16.5 -30.5q0 -14 7 -23t27 -19t64 -27
q59 -23 91.5 -44.5t46 -47t13.5 -61.5q0 -48 -25.5 -84.5t-71.5 -57t-106 -20.5q-65 0 -114.5 26zM185 717h74l134 -162h-111l-60 78l-60 -78h-111z" />
    <glyph glyph-name="uni0219" unicode="&#x219;" horiz-adv-x="441" 
d="M96.5 16q-49.5 26 -69.5 69l79 55q18 -25 46 -40t57 -15q34 0 56 17.5t22 43.5q0 21 -16 33.5t-68 32.5q-91 35 -128 71t-37 89q0 62 50.5 100t134.5 38q56 0 101 -21.5t73 -61.5l-74 -55q-35 43 -95 43q-30 0 -46.5 -10.5t-16.5 -30.5q0 -14 7 -23t27 -19t64 -27
q59 -23 91.5 -44.5t46 -47t13.5 -61.5q0 -48 -25.5 -84.5t-71.5 -57t-106 -20.5q-65 0 -114.5 26zM278.5 -94.5q21.5 -22.5 21.5 -58.5q0 -39 -21.5 -82.5t-57.5 -73.5l-50 39q26 32 43 61q-28 3 -45.5 21.5t-17.5 46.5q0 31 19.5 50t50.5 19q36 0 57.5 -22.5z" />
    <glyph glyph-name="uni1E61" unicode="&#x1e61;" horiz-adv-x="441" 
d="M96.5 16q-49.5 26 -69.5 69l79 55q18 -25 46 -40t57 -15q34 0 56 17.5t22 43.5q0 21 -16 33.5t-68 32.5q-91 35 -128 71t-37 89q0 62 50.5 100t134.5 38q56 0 101 -21.5t73 -61.5l-74 -55q-35 43 -95 43q-30 0 -46.5 -10.5t-16.5 -30.5q0 -14 7 -23t27 -19t64 -27
q59 -23 91.5 -44.5t46 -47t13.5 -61.5q0 -48 -25.5 -84.5t-71.5 -57t-106 -20.5q-65 0 -114.5 26zM174 574q-19 19 -19 47t19 47t48 19t48 -19t19 -47t-19 -47t-48 -19t-48 19z" />
    <glyph glyph-name="uni1E63" unicode="&#x1e63;" horiz-adv-x="441" 
d="M96.5 16q-49.5 26 -69.5 69l79 55q18 -25 46 -40t57 -15q34 0 56 17.5t22 43.5q0 21 -16 33.5t-68 32.5q-91 35 -128 71t-37 89q0 62 50.5 100t134.5 38q56 0 101 -21.5t73 -61.5l-74 -55q-35 43 -95 43q-30 0 -46.5 -10.5t-16.5 -30.5q0 -14 7 -23t27 -19t64 -27
q59 -23 91.5 -44.5t46 -47t13.5 -61.5q0 -48 -25.5 -84.5t-71.5 -57t-106 -20.5q-65 0 -114.5 26zM174 -185q-19 19 -19 47t19 47t48 19t48 -19t19 -47t-19 -47t-48 -19t-48 19z" />
    <glyph glyph-name="germandbls" unicode="&#xdf;" horiz-adv-x="575" 
d="M258.5 13.5q-44.5 23.5 -65.5 71.5l82 55q17 -26 37 -40.5t47 -14.5q29 0 46 18.5t17 44.5q0 27 -16.5 44t-59.5 34q-106 41 -106 128q0 34 15.5 57t46.5 53q26 24 39 42.5t13 41.5q0 32 -21.5 49.5t-59.5 17.5q-102 0 -102 -136v-479h-126v484q0 107 59 166.5t165 59.5
q100 0 155.5 -42.5t55.5 -119.5q0 -42 -20 -70t-57 -59q-22 -19 -31.5 -30t-9.5 -24q0 -17 20 -33t62 -36q50 -24 77 -58t27 -86q0 -73 -50.5 -117.5t-133.5 -44.5q-61 0 -105.5 23.5z" />
    <glyph glyph-name="t" unicode="t" horiz-adv-x="420" 
d="M146 32q-43 42 -43 118v255h-91v95h91v129l124 36h4v-165h145v-95h-145v-236q0 -43 20 -63t61 -20q39 0 73 12l6 -87q-45 -21 -125 -21q-77 0 -120 42z" />
    <glyph glyph-name="tbar" unicode="&#x167;" horiz-adv-x="420" 
d="M391 11q-45 -21 -125 -21q-77 0 -120 42t-43 118v74h-74v82h74v99h-91v95h91v129l124 36h4v-165h145v-95h-145v-99h104v-82h-104v-55q0 -43 20 -63t61 -20q39 0 73 12z" />
    <glyph glyph-name="tcaron" unicode="&#x165;" horiz-adv-x="540" 
d="M146 32q-43 42 -43 118v255h-91v95h91v129l124 36h4v-165h145v-95h-145v-236q0 -43 20 -63t61 -20q39 0 73 12l6 -87q-45 -21 -125 -21q-77 0 -120 42zM507.5 726.5q21.5 -22.5 21.5 -58.5q0 -38 -21.5 -81t-56.5 -74l-51 38q30 36 43 61q-28 3 -45.5 21.5t-17.5 46.5
q0 31 19.5 50t50.5 19q36 0 57.5 -22.5z" />
    <glyph glyph-name="uni0163" unicode="&#x163;" horiz-adv-x="420" 
d="M336 -86.5q26 -20.5 26 -56.5q0 -44 -32.5 -71.5t-85.5 -27.5q-25 0 -51.5 6t-42.5 15l13 55q33 -12 67 -12q20 0 31 8.5t11 23.5q0 16 -18 24.5t-48 6.5l-29 33l43 77q-56 11 -86.5 51t-30.5 104v255h-91v95h91v129l124 36h4v-165h145v-95h-145v-236q0 -43 20 -63
t61 -20q39 0 73 12l6 -87q-31 -15 -90 -20l-33 -57q42 0 68 -20.5z" />
    <glyph glyph-name="uni021B" unicode="&#x21b;" horiz-adv-x="420" 
d="M146 32q-43 42 -43 118v255h-91v95h91v129l124 36h4v-165h145v-95h-145v-236q0 -43 20 -63t61 -20q39 0 73 12l6 -87q-45 -21 -125 -21q-77 0 -120 42zM317.5 -94.5q21.5 -22.5 21.5 -58.5q0 -39 -21.5 -82.5t-57.5 -73.5l-50 39q26 32 43 61q-28 3 -45.5 21.5
t-17.5 46.5q0 31 19.5 50t50.5 19q36 0 57.5 -22.5z" />
    <glyph glyph-name="uni1E97" unicode="&#x1e97;" horiz-adv-x="420" 
d="M146 32q-43 42 -43 118v255h-91v95h91v129l124 36h4v-165h145v-95h-145v-236q0 -43 20 -63t61 -20q39 0 73 12l6 -87q-45 -21 -125 -21q-77 0 -120 42zM14 738.5q-19 18.5 -19 47.5t19 47.5t48 18.5t48 -19t19 -47t-19 -47t-48 -19t-48 18.5zM224 739q-19 19 -19 47
t19 47t48 19t48 -18.5t19 -47.5t-19 -47.5t-48 -18.5t-48 19z" />
    <glyph glyph-name="uni1E6D" unicode="&#x1e6d;" horiz-adv-x="420" 
d="M146 32q-43 42 -43 118v255h-91v95h91v129l124 36h4v-165h145v-95h-145v-236q0 -43 20 -63t61 -20q39 0 73 12l6 -87q-45 -21 -125 -21q-77 0 -120 42zM213 -185q-19 19 -19 47t19 47t48 19t48 -19t19 -47t-19 -47t-48 -19t-48 19z" />
    <glyph glyph-name="uni1E6F" unicode="&#x1e6f;" horiz-adv-x="420" 
d="M146 32q-43 42 -43 118v255h-91v95h91v129l124 36h4v-165h145v-95h-145v-236q0 -43 20 -63t61 -20q39 0 73 12l6 -87q-45 -21 -125 -21q-77 0 -120 42zM90 -72h342v-83h-342v83z" />
    <glyph glyph-name="u" unicode="u" horiz-adv-x="561" 
d="M92.5 48q-44.5 58 -44.5 170v282h128v-283q0 -64 21 -94t65 -30q53 0 87 40.5t34 100.5v266h128v-373q0 -51 8 -127h-121q-8 45 -9 88h-2q-18 -45 -62.5 -71.5t-101.5 -26.5q-86 0 -130.5 58z" />
    <glyph glyph-name="uacute" unicode="&#xfa;" horiz-adv-x="561" 
d="M92.5 48q-44.5 58 -44.5 170v282h128v-283q0 -64 21 -94t65 -30q53 0 87 40.5t34 100.5v266h128v-373q0 -51 8 -127h-121q-8 45 -9 88h-2q-18 -45 -62.5 -71.5t-101.5 -26.5q-86 0 -130.5 58zM322 717h124l-107 -162h-102z" />
    <glyph glyph-name="ubreve" unicode="&#x16d;" horiz-adv-x="561" 
d="M92.5 48q-44.5 58 -44.5 170v282h128v-283q0 -64 21 -94t65 -30q53 0 87 40.5t34 100.5v266h128v-373q0 -51 8 -127h-121q-8 45 -9 88h-2q-18 -45 -62.5 -71.5t-101.5 -26.5q-86 0 -130.5 58zM169 594q-42 39 -43 113h85q1 -34 21 -53t56 -19t56 19t21 53h85
q0 -73 -42 -112.5t-120 -39.5q-77 0 -119 39z" />
    <glyph glyph-name="uni01D4" unicode="&#x1d4;" horiz-adv-x="561" 
d="M92.5 48q-44.5 58 -44.5 170v282h128v-283q0 -64 21 -94t65 -30q53 0 87 40.5t34 100.5v266h128v-373q0 -51 8 -127h-121q-8 45 -9 88h-2q-18 -45 -62.5 -71.5t-101.5 -26.5q-86 0 -130.5 58zM117 717h111l60 -78l60 78h111l-134 -162h-74z" />
    <glyph glyph-name="ucircumflex" unicode="&#xfb;" horiz-adv-x="561" 
d="M92.5 48q-44.5 58 -44.5 170v282h128v-283q0 -64 21 -94t65 -30q53 0 87 40.5t34 100.5v266h128v-373q0 -51 8 -127h-121q-8 45 -9 88h-2q-18 -45 -62.5 -71.5t-101.5 -26.5q-86 0 -130.5 58zM251 717h74l134 -162h-111l-60 78l-60 -78h-111z" />
    <glyph glyph-name="udieresis" unicode="&#xfc;" horiz-adv-x="561" 
d="M92.5 48q-44.5 58 -44.5 170v282h128v-283q0 -64 21 -94t65 -30q53 0 87 40.5t34 100.5v266h128v-373q0 -51 8 -127h-121q-8 45 -9 88h-2q-18 -45 -62.5 -71.5t-101.5 -26.5q-86 0 -130.5 58zM135 573.5q-19 18.5 -19 47.5t19 47.5t48 18.5t48 -19t19 -47t-19 -47
t-48 -19t-48 18.5zM345 574q-19 19 -19 47t19 47t48 19t48 -18.5t19 -47.5t-19 -47.5t-48 -18.5t-48 19z" />
    <glyph glyph-name="uni01D8" unicode="&#x1d8;" horiz-adv-x="561" 
d="M92.5 48q-44.5 58 -44.5 170v282h128v-283q0 -64 21 -94t65 -30q53 0 87 40.5t34 100.5v266h128v-373q0 -51 8 -127h-121q-8 45 -9 88h-2q-18 -45 -62.5 -71.5t-101.5 -26.5q-86 0 -130.5 58zM290 836h99l-63 -109h-83zM135 573.5q-19 18.5 -19 47.5t19 47.5t48 18.5
t48 -19t19 -47t-19 -47t-48 -19t-48 18.5zM345 574q-19 19 -19 47t19 47t48 19t48 -18.5t19 -47.5t-19 -47.5t-48 -18.5t-48 19z" />
    <glyph glyph-name="uni01DA" unicode="&#x1da;" horiz-adv-x="561" 
d="M92.5 48q-44.5 58 -44.5 170v282h128v-283q0 -64 21 -94t65 -30q53 0 87 40.5t34 100.5v266h128v-373q0 -51 8 -127h-121q-8 45 -9 88h-2q-18 -45 -62.5 -71.5t-101.5 -26.5q-86 0 -130.5 58zM130 836h99l59 -70l59 70h99l-122 -130h-72zM135 573.5q-19 18.5 -19 47.5
t19 47.5t48 18.5t48 -19t19 -47t-19 -47t-48 -19t-48 18.5zM345 574q-19 19 -19 47t19 47t48 19t48 -18.5t19 -47.5t-19 -47.5t-48 -18.5t-48 19z" />
    <glyph glyph-name="uni01DC" unicode="&#x1dc;" horiz-adv-x="561" 
d="M92.5 48q-44.5 58 -44.5 170v282h128v-283q0 -64 21 -94t65 -30q53 0 87 40.5t34 100.5v266h128v-373q0 -51 8 -127h-121q-8 45 -9 88h-2q-18 -45 -62.5 -71.5t-101.5 -26.5q-86 0 -130.5 58zM183 836h99l47 -109h-83zM135 573.5q-19 18.5 -19 47.5t19 47.5t48 18.5
t48 -19t19 -47t-19 -47t-48 -19t-48 18.5zM345 574q-19 19 -19 47t19 47t48 19t48 -18.5t19 -47.5t-19 -47.5t-48 -18.5t-48 19z" />
    <glyph glyph-name="uni01D6" unicode="&#x1d6;" horiz-adv-x="561" 
d="M92.5 48q-44.5 58 -44.5 170v282h128v-283q0 -64 21 -94t65 -30q53 0 87 40.5t34 100.5v266h128v-373q0 -51 8 -127h-121q-8 45 -9 88h-2q-18 -45 -62.5 -71.5t-101.5 -26.5q-86 0 -130.5 58zM140 806h297v-66h-297v66zM135 573.5q-19 18.5 -19 47.5t19 47.5t48 18.5
t48 -19t19 -47t-19 -47t-48 -19t-48 18.5zM345 574q-19 19 -19 47t19 47t48 19t48 -18.5t19 -47.5t-19 -47.5t-48 -18.5t-48 19z" />
    <glyph glyph-name="uni1EE5" unicode="&#x1ee5;" horiz-adv-x="561" 
d="M92.5 48q-44.5 58 -44.5 170v282h128v-283q0 -64 21 -94t65 -30q53 0 87 40.5t34 100.5v266h128v-373q0 -51 8 -127h-121q-8 45 -9 88h-2q-18 -45 -62.5 -71.5t-101.5 -26.5q-86 0 -130.5 58zM240 -185q-19 19 -19 47t19 47t48 19t48 -19t19 -47t-19 -47t-48 -19t-48 19z
" />
    <glyph glyph-name="ugrave" unicode="&#xf9;" horiz-adv-x="561" 
d="M92.5 48q-44.5 58 -44.5 170v282h128v-283q0 -64 21 -94t65 -30q53 0 87 40.5t34 100.5v266h128v-373q0 -51 8 -127h-121q-8 45 -9 88h-2q-18 -45 -62.5 -71.5t-101.5 -26.5q-86 0 -130.5 58zM129 717h124l85 -162h-102z" />
    <glyph glyph-name="uni1EE7" unicode="&#x1ee7;" horiz-adv-x="561" 
d="M92.5 48q-44.5 58 -44.5 170v282h128v-283q0 -64 21 -94t65 -30q53 0 87 40.5t34 100.5v266h128v-373q0 -51 8 -127h-121q-8 45 -9 88h-2q-18 -45 -62.5 -71.5t-101.5 -26.5q-86 0 -130.5 58zM252 601.5q11 17.5 31 35.5q15 14 22.5 25t7.5 26q0 26 -33 26q-38 0 -63 -50
l-53 49q19 35 52.5 54.5t73.5 19.5q54 0 84.5 -24.5t30.5 -67.5q0 -25 -10 -42t-29 -37q-16 -17 -24.5 -30.5t-8.5 -30.5h-92q0 29 11 46.5z" />
    <glyph glyph-name="uhorn" unicode="&#x1b0;" horiz-adv-x="649" 
d="M676 501v-52q0 -77 -45.5 -135.5t-119.5 -78.5v-108q0 -51 8 -127h-121q-8 45 -9 88h-2q-18 -45 -62.5 -71.5t-101.5 -26.5q-86 0 -130.5 58t-44.5 170v282h128v-283q0 -64 21 -94t65 -30q53 0 87 40.5t34 100.5v266h128v-181q32 25 45.5 55t13.5 75v52h106z" />
    <glyph glyph-name="uni1EE9" unicode="&#x1ee9;" horiz-adv-x="649" 
d="M676 501v-52q0 -77 -45.5 -135.5t-119.5 -78.5v-108q0 -51 8 -127h-121q-8 45 -9 88h-2q-18 -45 -62.5 -71.5t-101.5 -26.5q-86 0 -130.5 58t-44.5 170v282h128v-283q0 -64 21 -94t65 -30q53 0 87 40.5t34 100.5v266h128v-181q32 25 45.5 55t13.5 75v52h106zM322 717h124
l-107 -162h-102z" />
    <glyph glyph-name="uni1EF1" unicode="&#x1ef1;" horiz-adv-x="649" 
d="M676 501v-52q0 -77 -45.5 -135.5t-119.5 -78.5v-108q0 -51 8 -127h-121q-8 45 -9 88h-2q-18 -45 -62.5 -71.5t-101.5 -26.5q-86 0 -130.5 58t-44.5 170v282h128v-283q0 -64 21 -94t65 -30q53 0 87 40.5t34 100.5v266h128v-181q32 25 45.5 55t13.5 75v52h106zM240 -185
q-19 19 -19 47t19 47t48 19t48 -19t19 -47t-19 -47t-48 -19t-48 19z" />
    <glyph glyph-name="uni1EEB" unicode="&#x1eeb;" horiz-adv-x="649" 
d="M676 501v-52q0 -77 -45.5 -135.5t-119.5 -78.5v-108q0 -51 8 -127h-121q-8 45 -9 88h-2q-18 -45 -62.5 -71.5t-101.5 -26.5q-86 0 -130.5 58t-44.5 170v282h128v-283q0 -64 21 -94t65 -30q53 0 87 40.5t34 100.5v266h128v-181q32 25 45.5 55t13.5 75v52h106zM129 717h124
l85 -162h-102z" />
    <glyph glyph-name="uni1EED" unicode="&#x1eed;" horiz-adv-x="649" 
d="M676 501v-52q0 -77 -45.5 -135.5t-119.5 -78.5v-108q0 -51 8 -127h-121q-8 45 -9 88h-2q-18 -45 -62.5 -71.5t-101.5 -26.5q-86 0 -130.5 58t-44.5 170v282h128v-283q0 -64 21 -94t65 -30q53 0 87 40.5t34 100.5v266h128v-181q32 25 45.5 55t13.5 75v52h106zM252 601.5
q11 17.5 31 35.5q15 14 22.5 25t7.5 26q0 26 -33 26q-38 0 -63 -50l-53 49q19 35 52.5 54.5t73.5 19.5q54 0 84.5 -24.5t30.5 -67.5q0 -25 -10 -42t-29 -37q-16 -17 -24.5 -30.5t-8.5 -30.5h-92q0 29 11 46.5z" />
    <glyph glyph-name="uni1EEF" unicode="&#x1eef;" horiz-adv-x="649" 
d="M676 501v-52q0 -77 -45.5 -135.5t-119.5 -78.5v-108q0 -51 8 -127h-121q-8 45 -9 88h-2q-18 -45 -62.5 -71.5t-101.5 -26.5q-86 0 -130.5 58t-44.5 170v282h128v-283q0 -64 21 -94t65 -30q53 0 87 40.5t34 100.5v266h128v-181q32 25 45.5 55t13.5 75v52h106zM148.5 648
q30.5 33 74.5 33q20 0 38 -7.5t39 -20.5q12 -7 23.5 -13t20.5 -6q27 0 27 51h80q0 -64 -31.5 -97t-76.5 -33q-21 0 -38 7.5t-46 23.5q-25 16 -34 16q-11 0 -18.5 -13t-8.5 -34h-80q0 60 30.5 93z" />
    <glyph glyph-name="uhungarumlaut" unicode="&#x171;" horiz-adv-x="561" 
d="M92.5 48q-44.5 58 -44.5 170v282h128v-283q0 -64 21 -94t65 -30q53 0 87 40.5t34 100.5v266h128v-373q0 -51 8 -127h-121q-8 45 -9 88h-2q-18 -45 -62.5 -71.5t-101.5 -26.5q-86 0 -130.5 58zM216 717h124l-107 -162h-102zM391 717h124l-107 -162h-102z" />
    <glyph glyph-name="umacron" unicode="&#x16b;" horiz-adv-x="561" 
d="M92.5 48q-44.5 58 -44.5 170v282h128v-283q0 -64 21 -94t65 -30q53 0 87 40.5t34 100.5v266h128v-373q0 -51 8 -127h-121q-8 45 -9 88h-2q-18 -45 -62.5 -71.5t-101.5 -26.5q-86 0 -130.5 58zM117 655h342v-83h-342v83z" />
    <glyph glyph-name="uogonek" unicode="&#x173;" horiz-adv-x="561" 
d="M541 -194q-19 -19 -48 -29.5t-60 -10.5q-53 0 -83 26.5t-30 76.5q0 81 95 131h-17q-8 45 -9 88h-2q-18 -45 -62.5 -71.5t-101.5 -26.5q-86 0 -130.5 58t-44.5 170v282h128v-283q0 -64 21 -94t65 -30q53 0 87 40.5t34 100.5v266h128v-373q0 -51 8 -127h-18
q-89 -61 -89 -114q0 -15 12 -25.5t36 -10.5q19 0 62 16z" />
    <glyph glyph-name="uring" unicode="&#x16f;" horiz-adv-x="561" 
d="M92.5 48q-44.5 58 -44.5 170v282h128v-283q0 -64 21 -94t65 -30q53 0 87 40.5t34 100.5v266h128v-373q0 -51 8 -127h-121q-8 45 -9 88h-2q-18 -45 -62.5 -71.5t-101.5 -26.5q-86 0 -130.5 58zM211.5 579q-29.5 28 -29.5 72t29.5 72t76.5 28t76.5 -28t29.5 -72t-29.5 -72
t-76.5 -28t-76.5 28zM323.5 614q13.5 14 13.5 37t-13.5 37t-35.5 14t-35.5 -14t-13.5 -37t13.5 -37t35.5 -14t35.5 14z" />
    <glyph glyph-name="utilde" unicode="&#x169;" horiz-adv-x="561" 
d="M92.5 48q-44.5 58 -44.5 170v282h128v-283q0 -64 21 -94t65 -30q53 0 87 40.5t34 100.5v266h128v-373q0 -51 8 -127h-121q-8 45 -9 88h-2q-18 -45 -62.5 -71.5t-101.5 -26.5q-86 0 -130.5 58zM148.5 648q30.5 33 74.5 33q20 0 38 -7.5t39 -20.5q12 -7 23.5 -13t20.5 -6
q27 0 27 51h80q0 -64 -31.5 -97t-76.5 -33q-21 0 -38 7.5t-46 23.5q-25 16 -34 16q-11 0 -18.5 -13t-8.5 -34h-80q0 60 30.5 93z" />
    <glyph glyph-name="v" unicode="v" horiz-adv-x="528" 
d="M515 500l-196 -500h-110l-196 500h132l119 -344l119 344h132z" />
    <glyph glyph-name="w" unicode="w" horiz-adv-x="707" 
d="M694 500l-128 -500h-112l-100 362l-100 -362h-113l-128 500h133l63 -311l88 311h113l88 -311l63 311h133z" />
    <glyph glyph-name="wacute" unicode="&#x1e83;" horiz-adv-x="707" 
d="M694 500l-128 -500h-112l-100 362l-100 -362h-113l-128 500h133l63 -311l88 311h113l88 -311l63 311h133zM388 717h124l-107 -162h-102z" />
    <glyph glyph-name="wcircumflex" unicode="&#x175;" horiz-adv-x="707" 
d="M694 500l-128 -500h-112l-100 362l-100 -362h-113l-128 500h133l63 -311l88 311h113l88 -311l63 311h133zM317 717h74l134 -162h-111l-60 78l-60 -78h-111z" />
    <glyph glyph-name="wdieresis" unicode="&#x1e85;" horiz-adv-x="707" 
d="M694 500l-128 -500h-112l-100 362l-100 -362h-113l-128 500h133l63 -311l88 311h113l88 -311l63 311h133zM201 573.5q-19 18.5 -19 47.5t19 47.5t48 18.5t48 -19t19 -47t-19 -47t-48 -19t-48 18.5zM411 574q-19 19 -19 47t19 47t48 19t48 -18.5t19 -47.5t-19 -47.5
t-48 -18.5t-48 19z" />
    <glyph glyph-name="wgrave" unicode="&#x1e81;" horiz-adv-x="707" 
d="M694 500l-128 -500h-112l-100 362l-100 -362h-113l-128 500h133l63 -311l88 311h113l88 -311l63 311h133zM195 717h124l85 -162h-102z" />
    <glyph glyph-name="x" unicode="x" horiz-adv-x="520" 
d="M194 254l-167 246h141l92 -148l92 148h141l-166 -246l180 -254h-143l-104 163l-104 -163h-143z" />
    <glyph glyph-name="y" unicode="y" horiz-adv-x="505" 
d="M492 500l-191 -523q-31 -84 -85.5 -126.5t-130.5 -42.5q-40 0 -82 11v101q12 -4 30 -7t32 -3q44 0 75.5 30.5t56.5 96.5l-186 463h136l110 -320l99 320h136z" />
    <glyph glyph-name="yacute" unicode="&#xfd;" horiz-adv-x="505" 
d="M492 500l-191 -523q-31 -84 -85.5 -126.5t-130.5 -42.5q-40 0 -82 11v101q12 -4 30 -7t32 -3q44 0 75.5 30.5t56.5 96.5l-186 463h136l110 -320l99 320h136zM289 717h124l-107 -162h-102z" />
    <glyph glyph-name="ycircumflex" unicode="&#x177;" horiz-adv-x="505" 
d="M492 500l-191 -523q-31 -84 -85.5 -126.5t-130.5 -42.5q-40 0 -82 11v101q12 -4 30 -7t32 -3q44 0 75.5 30.5t56.5 96.5l-186 463h136l110 -320l99 320h136zM218 717h74l134 -162h-111l-60 78l-60 -78h-111z" />
    <glyph glyph-name="ydieresis" unicode="&#xff;" horiz-adv-x="505" 
d="M492 500l-191 -523q-31 -84 -85.5 -126.5t-130.5 -42.5q-40 0 -82 11v101q12 -4 30 -7t32 -3q44 0 75.5 30.5t56.5 96.5l-186 463h136l110 -320l99 320h136zM102 573.5q-19 18.5 -19 47.5t19 47.5t48 18.5t48 -19t19 -47t-19 -47t-48 -19t-48 18.5zM312 574
q-19 19 -19 47t19 47t48 19t48 -18.5t19 -47.5t-19 -47.5t-48 -18.5t-48 19z" />
    <glyph glyph-name="uni1E8F" unicode="&#x1e8f;" horiz-adv-x="505" 
d="M492 500l-191 -523q-31 -84 -85.5 -126.5t-130.5 -42.5q-40 0 -82 11v101q12 -4 30 -7t32 -3q44 0 75.5 30.5t56.5 96.5l-186 463h136l110 -320l99 320h136zM207 574q-19 19 -19 47t19 47t48 19t48 -19t19 -47t-19 -47t-48 -19t-48 19z" />
    <glyph glyph-name="uni1EF5" unicode="&#x1ef5;" horiz-adv-x="505" 
d="M492 500l-191 -523q-31 -84 -85.5 -126.5t-130.5 -42.5q-40 0 -82 11v101q12 -4 30 -7t32 -3q44 0 75.5 30.5t56.5 96.5l-186 463h136l110 -320l99 320h136zM346 -185q-19 19 -19 47t19 47t48 19t48 -19t19 -47t-19 -47t-48 -19t-48 19z" />
    <glyph glyph-name="ygrave" unicode="&#x1ef3;" horiz-adv-x="505" 
d="M492 500l-191 -523q-31 -84 -85.5 -126.5t-130.5 -42.5q-40 0 -82 11v101q12 -4 30 -7t32 -3q44 0 75.5 30.5t56.5 96.5l-186 463h136l110 -320l99 320h136zM96 717h124l85 -162h-102z" />
    <glyph glyph-name="uni1EF7" unicode="&#x1ef7;" horiz-adv-x="505" 
d="M492 500l-191 -523q-31 -84 -85.5 -126.5t-130.5 -42.5q-40 0 -82 11v101q12 -4 30 -7t32 -3q44 0 75.5 30.5t56.5 96.5l-186 463h136l110 -320l99 320h136zM219 601.5q11 17.5 31 35.5q15 14 22.5 25t7.5 26q0 26 -33 26q-38 0 -63 -50l-53 49q19 35 52.5 54.5
t73.5 19.5q54 0 84.5 -24.5t30.5 -67.5q0 -25 -10 -42t-29 -37q-16 -17 -24.5 -30.5t-8.5 -30.5h-92q0 29 11 46.5z" />
    <glyph glyph-name="uni1EF9" unicode="&#x1ef9;" horiz-adv-x="505" 
d="M492 500l-191 -523q-31 -84 -85.5 -126.5t-130.5 -42.5q-40 0 -82 11v101q12 -4 30 -7t32 -3q44 0 75.5 30.5t56.5 96.5l-186 463h136l110 -320l99 320h136zM115.5 648q30.5 33 74.5 33q20 0 38 -7.5t39 -20.5q12 -7 23.5 -13t20.5 -6q27 0 27 51h80q0 -64 -31.5 -97
t-76.5 -33q-21 0 -38 7.5t-46 23.5q-25 16 -34 16q-11 0 -18.5 -13t-8.5 -34h-80q0 60 30.5 93z" />
    <glyph glyph-name="z" unicode="z" horiz-adv-x="476" 
d="M21 68l268 336h-254v96h409v-62l-264 -342h275v-96h-434v68z" />
    <glyph glyph-name="zacute" unicode="&#x17a;" horiz-adv-x="476" 
d="M21 68l268 336h-254v96h409v-62l-264 -342h275v-96h-434v68zM272 717h124l-107 -162h-102z" />
    <glyph glyph-name="zcaron" unicode="&#x17e;" horiz-adv-x="476" 
d="M21 68l268 336h-254v96h409v-62l-264 -342h275v-96h-434v68zM67 717h111l60 -78l60 78h111l-134 -162h-74z" />
    <glyph glyph-name="zdotaccent" unicode="&#x17c;" horiz-adv-x="476" 
d="M21 68l268 336h-254v96h409v-62l-264 -342h275v-96h-434v68zM190 574q-19 19 -19 47t19 47t48 19t48 -19t19 -47t-19 -47t-48 -19t-48 19z" />
    <glyph glyph-name="uni1E93" unicode="&#x1e93;" horiz-adv-x="476" 
d="M21 68l268 336h-254v96h409v-62l-264 -342h275v-96h-434v68zM190 -185q-19 19 -19 47t19 47t48 19t48 -19t19 -47t-19 -47t-48 -19t-48 19z" />
    <glyph glyph-name="g.ss01" horiz-adv-x="503" 
d="M488 414l-77 4q17 -16 26.5 -42t9.5 -56q0 -86 -53 -135.5t-144 -49.5q-49 0 -84 13q-18 -11 -18 -24q0 -11 24.5 -18.5t90.5 -19.5q76 -14 115.5 -26.5t63 -39t23.5 -75.5q0 -70 -57.5 -106.5t-164.5 -36.5q-104 0 -160 33t-56 95q0 60 58 103q-41 26 -41 60q0 50 62 88
q-29 24 -44 59.5t-15 79.5q0 88 53 138.5t146 50.5q14 0 31.5 -3t27.5 -7l183 11v-96zM302 254.5q20 25.5 20 69.5t-20 69t-55 25q-34 0 -54 -25t-20 -69t20 -69.5t54 -25.5q35 0 55 25.5zM314.5 -41q-22.5 10 -75.5 22q-45 10 -87 23q-30 -30 -30 -64q0 -29 26.5 -43.5
t78.5 -14.5q53 0 81.5 12.5t28.5 36.5q0 18 -22.5 28z" />
    <glyph glyph-name="ordfeminine" unicode="&#xaa;" horiz-adv-x="362" 
d="M59 390.5q-30 29.5 -30 76.5q0 49 34 75t98 26h64v13q0 55 -55 55q-52 0 -86 -40l-44 50q24 30 60 45.5t81 15.5q70 0 106 -31t36 -90v-147q0 -14 2.5 -34.5t5.5 -37.5h-90q-3 12 -8 39q-10 -20 -37.5 -32.5t-59.5 -12.5q-47 0 -77 29.5zM209 442.5q16 17.5 16 42.5v25
h-41q-58 0 -58 -43q0 -20 11 -31t30 -11q26 0 42 17.5z" />
    <glyph glyph-name="ordmasculine" unicode="&#xba;" horiz-adv-x="390" 
d="M68.5 407q-45.5 46 -45.5 127t45.5 127t126.5 46t126.5 -46t45.5 -127t-45.5 -127t-126.5 -46t-126.5 46zM249 457.5q19 27.5 19 76.5t-19 76.5t-54 27.5t-54 -27.5t-19 -76.5t19 -76.5t54 -27.5t54 27.5z" />
    <glyph glyph-name="uni207F" unicode="&#x207f;" horiz-adv-x="390" 
d="M33 612l-1 63q-1 11 -1 25h96q3 -40 2 -57h3q26 64 99 64q67 0 90.5 -41.5t23.5 -85.5v-212h-100v187q0 73 -49 73q-28 0 -45.5 -22t-17.5 -57v-181h-100v244z" />
    <glyph glyph-name="uni0394" unicode="&#x394;" horiz-adv-x="656" 
d="M9 57l283 643h72l283 -643v-57h-638v57zM493 102l-165 399l-166 -399h331z" />
    <glyph glyph-name="uni03A9" unicode="&#x3a9;" horiz-adv-x="776" 
d="M33 106h146q-59 47 -93 123.5t-34 163.5q0 97 40.5 168.5t116.5 110t180 38.5q103 0 179 -38.5t116.5 -110t40.5 -168.5q0 -86 -34 -163t-93 -124h145v-106h-312v111q70 18 110 90t40 180q0 100 -51.5 157t-140.5 57q-90 0 -142 -57t-52 -157q0 -109 40.5 -181t110.5 -88
v-112h-313v106z" />
    <glyph glyph-name="uni03BC" unicode="&#x3bc;" horiz-adv-x="561" 
d="M48 500h128v-283q0 -63 21.5 -93.5t66.5 -30.5q52 0 85.5 41t33.5 101v265h128v-373q0 -51 8 -127h-120q-8 27 -10 71h-2q-20 -41 -49.5 -61t-75.5 -20q-50 0 -88 28v-222h-126v704z" />
    <glyph glyph-name="pi" unicode="&#x3c0;" horiz-adv-x="663" 
d="M448 16q-31 26 -31 78v310h-181v-405h-128v405h-90v96h617v-96h-90v-269q0 -40 39 -40q19 0 46 8v-90q-48 -23 -99 -23q-52 0 -83 26z" />
    <glyph glyph-name="uni0E01" unicode="&#xe01;" horiz-adv-x="597" 
d="M66 232q0 36 18.5 65t51.5 44q-32 9 -103 18q1 67 34 118.5t92 80t135 28.5q71 0 125.5 -26t84.5 -72.5t30 -107.5v-380h-128v366q0 53 -33.5 86.5t-88.5 33.5q-46 0 -83.5 -20t-50.5 -52q33 -7 64.5 -18t51.5 -24v-36q-35 -13 -53.5 -38t-18.5 -60v-238h-128v232z" />
    <glyph glyph-name="uni0E02" unicode="&#xe02;" horiz-adv-x="632" 
d="M568 576v-434q0 -73 -48.5 -112.5t-138.5 -39.5q-91 0 -138.5 39.5t-47.5 112.5v68q0 30 10 52t31 53q22 33 32.5 57t10.5 58q0 36 -21 54.5t-58 18.5q-33 0 -53 -9q38 -2 64.5 -27.5t26.5 -71.5q0 -44 -29 -75t-81 -31q-54 0 -85 34t-31 96q0 75 52 121t142 46
q88 0 138.5 -38t50.5 -106q0 -41 -10.5 -68.5t-30.5 -64.5q-16 -27 -24 -46.5t-8 -43.5v-78q0 -25 15.5 -38t44.5 -13q28 0 43 13t15 38v435h128zM160 425q-12 12 -32 12t-32.5 -12t-12.5 -32t12.5 -32t32.5 -12t32 12.5t12 31.5q0 20 -12 32z" />
    <glyph glyph-name="uni0E03" unicode="&#xe03;" horiz-adv-x="656" 
d="M592 576v-434q0 -73 -48.5 -112.5t-138.5 -39.5q-91 0 -138.5 39.5t-47.5 112.5v60q0 31 10 53.5t32 56.5q22 33 33 58.5t11 59.5q0 49 -28 70l-57 -43l-62 42q-22 -14 -31 -41h5q45 0 74 -29t29 -74q0 -46 -30.5 -74t-77.5 -28q-51 0 -83 38.5t-32 101.5q0 71 40 125
t105 68l63 -51l64 51q59 -11 98 -47t39 -94q0 -42 -11 -72t-32 -68q-16 -29 -24 -49t-8 -44v-71q0 -25 15.5 -38t44.5 -13q28 0 43 13t15 38v435h128zM159.5 388q-12.5 12 -32.5 12q-19 0 -31.5 -12t-12.5 -32t12 -32.5t32 -12.5t32.5 12.5t12.5 32.5t-12.5 32z" />
    <glyph glyph-name="uni0E04" unicode="&#xe04;" horiz-adv-x="624" 
d="M491 533.5q70 -52.5 70 -143.5v-390h-128v377q0 51 -35.5 80t-97.5 29q-68 0 -107.5 -31t-39.5 -86q0 -32 11 -98q17 59 51.5 91.5t83.5 32.5t76.5 -25t27.5 -70q0 -44 -26 -69t-71 -25q-23 0 -42.5 8t-30.5 23q-16 -23 -26 -56.5t-10 -66.5v-114h-124v150q0 22 -19 90
q-12 48 -18 76t-6 52q0 100 71.5 159t198.5 59q121 0 191 -52.5zM274.5 330q-11.5 -11 -11.5 -29q0 -19 11.5 -30t29.5 -11t29 11t11 30q0 18 -11 29t-29 11t-29.5 -11z" />
    <glyph glyph-name="uni0E05" unicode="&#xe05;" horiz-adv-x="628" 
d="M523 522q42 -54 42 -134v-388h-128v388q0 37 -8.5 59.5t-28.5 36.5l-95 -58l-104 63q-25 -17 -36.5 -45t-11.5 -73q0 -31 12 -119q18 57 52.5 89t83.5 32q48 0 76 -24.5t28 -69.5q0 -44 -26 -69.5t-72 -25.5q-22 0 -41.5 9t-30.5 24q-17 -23 -27.5 -55t-10.5 -65v-97
h-124v150q0 22 -19 90q-12 48 -18 76t-6 52q0 82 43.5 141t131.5 77l101 -69l104 69q71 -10 113 -64zM276 308q-11 -11 -11 -29q0 -19 11 -30t30 -11q18 0 29 11t11 30q0 18 -11 29t-29 11q-19 0 -30 -11z" />
    <glyph glyph-name="uni0E06" unicode="&#xe06;" horiz-adv-x="679" 
d="M615 577v-577h-117q-15 35 -48 65.5t-74 48.5v-5q0 -52 -37.5 -85.5t-93.5 -33.5q-58 0 -93 32.5t-35 83.5q0 48 31 79.5t75 33.5q1 25 10.5 46t28.5 49q21 35 31.5 59.5t10.5 56.5q0 23 -8 41t-23 29l-55 -43l-60 42q-22 -14 -31 -41h5q45 0 74 -29t29 -74
q0 -46 -30.5 -74t-77.5 -28q-51 0 -83 38.5t-32 101.5q0 71 40 125t105 68l61 -51l62 51q58 -11 97 -47t39 -94q0 -40 -10.5 -68t-30.5 -64q-15 -27 -22 -44t-7 -37v-16q94 -19 141 -71v432h128zM159.5 388q-12.5 12 -32.5 12q-19 0 -31.5 -12t-12.5 -32t12 -32.5t32 -12.5
t32.5 12.5t12.5 32.5t-12.5 32zM274.5 72.5q12.5 12.5 12.5 31.5q0 20 -12.5 32.5t-32.5 12.5t-32.5 -12.5t-12.5 -32.5t12.5 -32t32.5 -12t32.5 12.5z" />
    <glyph glyph-name="uni0E07" unicode="&#xe07;" horiz-adv-x="482" 
d="M383.5 553.5q34.5 -32.5 34.5 -83.5v-470h-127l-278 295l69 72l209 -225v229h-5q-49 0 -79.5 29.5t-30.5 77.5q0 47 33 77.5t85 30.5q55 0 89.5 -32.5zM317.5 445.5q12.5 12.5 12.5 32.5t-12.5 32.5t-32.5 12.5q-19 0 -32 -12.5t-13 -32.5q0 -19 13 -32t32 -13
q20 0 32.5 12.5z" />
    <glyph glyph-name="uni0E08" unicode="&#xe08;" horiz-adv-x="571" 
d="M253 14q-37 24 -46 71l-14 79q-10 -2 -18 -2q-49 0 -80 28.5t-31 73.5q0 47 32.5 74t79.5 27q39 0 68.5 -21t36.5 -57l32 -172q2 -13 11.5 -20t23.5 -7q32 0 32 30v287q0 37 -30.5 59t-80.5 22q-49 0 -83 -22t-41 -57h-126q6 81 73.5 130t179.5 49q70 0 123.5 -20.5
t83 -58.5t29.5 -87v-305q0 -61 -40 -93t-117 -32q-61 0 -98 24zM200.5 234.5q11.5 11.5 11.5 30.5t-11.5 30.5t-30.5 11.5t-31 -11.5t-12 -30.5t12 -30.5t31 -11.5t30.5 11.5z" />
    <glyph glyph-name="uni0E09" unicode="&#xe09;" horiz-adv-x="594" 
d="M524.5 148q13.5 -24 13.5 -51q0 -47 -31.5 -77t-80.5 -30q-50 0 -84 25t-39 66q-24 -14 -45.5 -35t-36.5 -46h-120v118q0 27 13 48q-36 5 -59 31.5t-23 66.5q0 43 29 70.5t77 27.5q51 0 78.5 -25.5t27.5 -69.5q0 -15 -4 -29.5t-11 -35.5q-11 -29 -11 -45v-40q21 27 58 49
t73 35q21 7 34 25t13 47v133q0 36 -32 58t-84 22t-88 -22t-43 -58h-126q4 53 38 94t91.5 63.5t129.5 22.5q71 0 125.5 -21.5t85 -61t30.5 -89.5v-136q0 -58 -37 -92q25 -14 38.5 -38zM166.5 233.5q11.5 11.5 11.5 30.5t-11.5 30t-30.5 11q-18 0 -29.5 -11t-11.5 -30
t11.5 -30.5t29.5 -11.5q19 0 30.5 11.5zM452.5 64.5q12.5 12.5 12.5 32.5t-12.5 32t-32.5 12q-19 0 -31.5 -12t-12.5 -32t12 -32.5t32 -12.5t32.5 12.5z" />
    <glyph glyph-name="uni0E0A" unicode="&#xe0a;" horiz-adv-x="650" 
d="M569.5 420q16.5 -25 16.5 -62v-216q0 -72 -52 -112t-144 -40t-143.5 40t-51.5 112v68q0 30 10 52t31 53q22 33 32.5 57t10.5 58q0 36 -21 54.5t-58 18.5q-33 0 -53 -9q38 -2 64.5 -27.5t26.5 -71.5q0 -44 -29 -75t-81 -31q-54 0 -85 34t-31 96q0 75 52 121t142 46
q87 0 133.5 -37.5t46.5 -106.5q0 -41 -9 -69.5t-27 -63.5q-14 -26 -21 -46t-7 -44v-78q0 -24 18.5 -37.5t50.5 -13.5t49.5 13.5t17.5 37.5v210q0 31 -11.5 47t-40.5 24v62q39 17 57 46t20 81h131q-4 -52 -32 -94.5t-59 -59.5q30 -12 46.5 -37zM160 425q-12 12 -32 12
t-32.5 -12t-12.5 -32t12.5 -32t32.5 -12t32 12t12 32t-12 32z" />
    <glyph glyph-name="uni0E0B" unicode="&#xe0b;" horiz-adv-x="667" 
d="M587 420q17 -25 17 -62v-216q0 -73 -50 -112.5t-143 -39.5q-92 0 -142 40t-50 112v60q0 31 10 54t31 56q22 33 33 58.5t11 59.5q0 49 -31 70l-55 -43l-60 42q-22 -14 -31 -41h5q45 0 74 -29t29 -74q0 -46 -30.5 -74t-77.5 -28q-51 0 -83 38.5t-32 101.5q0 71 40 125
t105 68l61 -51l62 51q60 -11 98 -46.5t38 -94.5q0 -43 -10.5 -73t-29.5 -67q-15 -29 -22.5 -49t-7.5 -44v-71q0 -24 18 -37.5t48 -13.5q64 0 64 51v210q0 33 -8.5 48t-35.5 23v62q38 16 52.5 44.5t16.5 82.5h131q-4 -52 -32 -94.5t-60 -59.5q30 -12 47 -37zM159.5 388
q-12.5 12 -32.5 12q-19 0 -31.5 -12t-12.5 -32t12 -32.5t32 -12.5t32.5 12.5t12.5 32.5t-12.5 32z" />
    <glyph glyph-name="uni0E0C" unicode="&#xe0c;" horiz-adv-x="832" 
d="M768 577v-577h-113q-16 33 -46.5 60.5t-69.5 46.5v-2q0 -50 -32 -82.5t-83 -32.5q-52 0 -85.5 32t-33.5 82q0 35 22.5 64t58.5 41v158q0 55 -28.5 87t-81.5 32q-46 0 -79 -19t-47 -53q75 -16 116 -42v-36q-34 -12 -53 -37t-19 -61v-34q37 -5 60.5 -35t23.5 -71
q0 -48 -32 -78t-83 -30q-52 0 -84 30t-32 78q0 34 19 62v72q0 36 18.5 65t51.5 44q-38 11 -103 18q1 67 32 118.5t88 80t132 28.5q106 0 167 -56t61 -149v-172q30 -7 64 -23t64 -39v430h127zM452.5 72.5q12.5 12.5 12.5 32.5q0 19 -12.5 31.5t-32.5 12.5t-32.5 -12
t-12.5 -32t12.5 -32.5t32.5 -12.5t32.5 12.5zM194.5 130.5q-12.5 12.5 -32.5 12.5t-32 -12.5t-12 -32.5t12.5 -32.5t31.5 -12.5q20 0 32.5 12.5t12.5 32.5t-12.5 32.5z" />
    <glyph glyph-name="uni0E0D" unicode="&#xe0d;" horiz-adv-x="849" 
d="M785 576v-445q0 -64 -55.5 -102.5t-147.5 -38.5t-148 38.5t-56 103.5v234q0 57 -28.5 88.5t-79.5 31.5q-43 0 -74.5 -19t-45.5 -53q32 -6 63.5 -18t52.5 -24v-36q-72 -26 -72 -98v-33h5q48 0 78.5 -29.5t30.5 -77.5q0 -47 -33 -77.5t-85 -30.5q-55 0 -89.5 32.5
t-34.5 84.5v125q0 36 18.5 65t51.5 44q-39 11 -103 18q2 107 66.5 167t179.5 60q107 0 167 -54.5t60 -151.5v-239q0 -24 21 -37.5t55 -13.5t55 13.5t21 37.5v435h127zM166.5 129.5q-12.5 -12.5 -12.5 -31.5q0 -20 12.5 -32.5t32.5 -12.5t32.5 12.5t12.5 32.5
q0 19 -12.5 31.5t-32.5 12.5t-32.5 -12.5zM648.5 -171.5q32.5 42.5 33.5 108.5h103q0 -104 -60 -163.5t-168 -59.5q-55 0 -97.5 16.5t-66 46t-23.5 66.5q0 44 27.5 70t71.5 26q46 0 72.5 -23t26.5 -65q0 -17 -8 -34t-22 -28q14 -3 27 -3q51 0 83.5 42.5zM441 -181.5
q11 -10.5 27 -10.5q17 0 27.5 10.5t10.5 27.5t-10.5 27.5t-27.5 10.5t-27.5 -10.5t-10.5 -27.5t11 -27.5z" />
    <glyph glyph-name="yoYingthai.less" horiz-adv-x="849" 
d="M785 576v-445q0 -64 -55.5 -102.5t-147.5 -38.5t-148 38.5t-56 103.5v234q0 57 -28.5 88.5t-79.5 31.5q-43 0 -74.5 -19t-45.5 -53q32 -6 63.5 -18t52.5 -24v-36q-72 -26 -72 -98v-33h5q48 0 78.5 -29.5t30.5 -77.5q0 -47 -33 -77.5t-85 -30.5q-55 0 -89.5 32.5
t-34.5 84.5v125q0 36 18.5 65t51.5 44q-39 11 -103 18q2 107 66.5 167t179.5 60q107 0 167 -54.5t60 -151.5v-239q0 -24 21 -37.5t55 -13.5t55 13.5t21 37.5v435h127zM166.5 129.5q-12.5 -12.5 -12.5 -31.5q0 -20 12.5 -32.5t32.5 -12.5t32.5 12.5t12.5 32.5
q0 19 -12.5 31.5t-32.5 12.5t-32.5 -12.5z" />
    <glyph glyph-name="uni0E0E" unicode="&#xe0e;" horiz-adv-x="622" 
d="M494 531q64 -55 64 -151v-696h-124q-16 30 -44.5 57.5t-63.5 47.5q-12 -50 -50.5 -80t-95.5 -30q-55 0 -92.5 25.5t-37.5 74.5q0 54 41 84t115 30q28 0 65 -10q12 36 38 54l65 -24q-25 -18 -35 -58q53 -26 92 -65v576q0 56 -32 88t-85 32q-43 0 -78.5 -18t-49.5 -54
q33 -7 67 -18.5t54 -23.5v-36q-65 -24 -65 -77q0 -12 5 -40q12 -65 12 -106q0 -56 -36 -89.5t-94 -33.5q-52 0 -84 29.5t-32 76.5q0 49 29 79t76 30q13 0 22 -4q-8 27 -8 52q0 26 10.5 49.5t29.5 38.5q-38 11 -103 18q1 66 32 117.5t88.5 80.5t133.5 29q107 0 171 -55z
M155.5 66q12.5 13 12.5 32q0 20 -12.5 32.5t-32.5 12.5q-19 0 -32 -12.5t-13 -32.5q0 -19 13 -32t32 -13q20 0 32.5 13zM228 -235.5q19 20.5 28 54.5q-30 8 -58 8q-31 0 -48 -11.5t-17 -32.5q0 -39 48 -39q28 0 47 20.5z" />
    <glyph glyph-name="doChadathai.short" horiz-adv-x="622" 
d="M494 531q64 -55 64 -151v-626h-124q-16 30 -44.5 57.5t-63.5 47.5q-12 -50 -50.5 -80t-95.5 -30q-55 0 -92.5 25.5t-37.5 74.5q0 54 41 83.5t115 29.5q28 0 65 -10q12 37 38 55l65 -25q-24 -18 -35 -57q56 -29 92 -65v506q0 56 -32 88t-85 32q-43 0 -78.5 -18t-49.5 -54
q33 -7 67 -18.5t54 -23.5v-36q-65 -24 -65 -77q0 -12 5 -40q12 -65 12 -106q0 -56 -36 -89.5t-94 -33.5q-52 0 -84 29.5t-32 76.5q0 49 29 79t76 30q13 0 22 -4q-8 27 -8 52q0 26 10.5 49.5t29.5 38.5q-38 11 -103 18q1 66 32 117.5t88.5 80.5t133.5 29q107 0 171 -55z
M155.5 66q12.5 13 12.5 32q0 20 -12.5 32.5t-32.5 12.5q-19 0 -32 -12.5t-13 -32.5q0 -19 13 -32t32 -13q20 0 32.5 13zM228 -166q19 20 28 55q-30 8 -58 8q-30 0 -47.5 -11.5t-17.5 -32.5q0 -39 48 -39q28 0 47 20z" />
    <glyph glyph-name="uni0E0F" unicode="&#xe0f;" horiz-adv-x="622" 
d="M494 531q64 -55 64 -151v-696h-117l-74 92l-51 -92q-4 6 -23 31.5t-37 44.5q-13 -39 -44 -61t-71 -22q-57 0 -88.5 27t-31.5 75q0 49 32.5 76.5t88.5 27.5q28 0 60 -10q15 46 60 71l55 -32q-46 -29 -54 -74q28 -22 49 -51l47 79l72 -80v580q0 56 -32 88t-85 32
q-43 0 -78.5 -18t-49.5 -54q33 -7 67 -18.5t54 -23.5v-36q-65 -24 -65 -77q0 -12 5 -40q12 -65 12 -106q0 -56 -36 -89.5t-94 -33.5q-52 0 -84 29.5t-32 76.5q0 49 29 79t76 30q13 0 22 -4q-8 27 -8 52q0 26 10.5 49.5t29.5 38.5q-38 11 -103 18q1 66 32 117.5t88.5 80.5
t133.5 29q107 0 171 -55zM155.5 66q12.5 13 12.5 32q0 20 -12.5 32.5t-32.5 12.5q-19 0 -32 -12.5t-13 -32.5q0 -19 13 -32t32 -13q20 0 32.5 13zM196 -194q-22 12 -48 12q-25 0 -39 -10.5t-14 -29.5t11.5 -29t32.5 -10q53 0 57 67z" />
    <glyph glyph-name="toPatakthai.short" horiz-adv-x="622" 
d="M494 531q64 -55 64 -151v-626h-117l-74 92l-51 -92q-4 6 -23 31.5t-37 44.5q-13 -39 -44 -61t-71 -22q-57 0 -88.5 27t-31.5 74q0 50 32.5 77t88.5 27q28 0 60 -10q14 45 60 71l55 -31q-46 -29 -54 -75q28 -22 49 -51l47 80l72 -80v510q0 56 -32 88t-85 32
q-43 0 -78.5 -18t-49.5 -54q33 -7 67 -18.5t54 -23.5v-36q-65 -24 -65 -77q0 -12 5 -40q12 -65 12 -106q0 -56 -36 -89.5t-94 -33.5q-52 0 -84 29.5t-32 76.5q0 49 29 79t76 30q13 0 22 -4q-8 27 -8 52q0 26 10.5 49.5t29.5 38.5q-38 11 -103 18q1 66 32 117.5t88.5 80.5
t133.5 29q107 0 171 -55zM155.5 65.5q12.5 12.5 12.5 32.5t-12.5 32.5t-32.5 12.5t-32.5 -12.5t-12.5 -32.5q0 -19 13 -32t32 -13q20 0 32.5 12.5zM196 -124q-24 11 -48 11q-25 0 -39 -10t-14 -29t11.5 -29t32.5 -10q53 0 57 67z" />
    <glyph glyph-name="uni0E10" unicode="&#xe10;" horiz-adv-x="573" 
d="M362.5 312q-6.5 9 -23.5 16q-41 17 -134 35t-172 24q0 88 46.5 143.5t125.5 55.5q23 0 61.5 -6t72.5 -13q49 -9 58 -9q37 0 42 33l87 -20q-5 -51 -35.5 -81.5t-84.5 -30.5q-23 0 -103 22q-28 8 -54.5 14t-39.5 6q-18 0 -30 -9.5t-15 -24.5q53 -6 128 -21.5t107 -27.5
q48 -16 73 -43t25 -60v-199q0 -57 -48.5 -91.5t-127.5 -34.5q-78 0 -126 34.5t-48 91.5v27q-46 1 -74 28.5t-28 73.5q0 47 30.5 75t82.5 28q53 0 81.5 -29.5t28.5 -81.5v-106q0 -19 13.5 -30t36.5 -11t37 11t14 30v157q0 15 -6.5 24zM118.5 216.5q11.5 -11.5 30.5 -11.5
t30.5 11.5t11.5 30.5t-11.5 30.5t-30.5 11.5t-30.5 -11.5t-11.5 -30.5t11.5 -30.5zM473.5 -91.5q26.5 -19.5 26.5 -49.5v-169h-99l-55 36l-69 -40q-31 46 -59 71q-15 -34 -41.5 -53.5t-73.5 -19.5q-43 0 -69.5 24.5t-26.5 59.5q0 39 32.5 60.5t86.5 21.5q28 0 48 -7
q6 34 16 57t32 35l65 -35q-19 -11 -29 -31.5t-21 -57.5q26 -20 54 -56l59 32l56 -36v41q-5 -1 -13 -1q-32 0 -52.5 19.5t-20.5 49.5t23 49t65 19q39 0 65.5 -19.5zM407.5 -159.5q7.5 7.5 7.5 20.5t-7.5 21t-18.5 8q-12 0 -19.5 -8t-7.5 -21t7.5 -20.5t19.5 -7.5
q11 0 18.5 7.5zM148 -241.5q11 11.5 17 32.5q-18 6 -38 6q-19 0 -30.5 -6.5t-11.5 -19.5q0 -11 8.5 -17.5t22.5 -6.5q21 0 32 11.5z" />
    <glyph glyph-name="thoThanthai.less" horiz-adv-x="573" 
d="M472 375q25 -27 25 -60v-199q0 -57 -48.5 -91.5t-127.5 -34.5q-78 0 -126 34.5t-48 91.5v27q-46 1 -74 28.5t-28 73.5q0 47 30.5 75t82.5 28q53 0 81.5 -29.5t28.5 -81.5v-106q0 -19 13.5 -30t36.5 -11t37 11t14 30v157q0 15 -6.5 24t-23.5 16q-41 17 -134 35t-172 24
q0 88 46.5 143.5t125.5 55.5q23 0 62 -6t74 -13q50 -9 59 -9q37 0 42 33l87 -20q-6 -51 -36 -81.5t-84 -30.5q-23 0 -105 22q-76 20 -95 20q-18 0 -30 -9.5t-15 -24.5q53 -6 128 -21.5t107 -27.5q48 -16 73 -43zM118.5 216.5q11.5 -11.5 30.5 -11.5t30.5 11.5t11.5 30.5
t-11.5 30.5t-30.5 11.5t-30.5 -11.5t-11.5 -30.5t11.5 -30.5z" />
    <glyph glyph-name="uni0E11" unicode="&#xe11;" horiz-adv-x="761" 
d="M666.5 554.5q30.5 -31.5 30.5 -97.5v-457h-128v458q0 14 -4 21t-13 7q-14 0 -22 -20l-176 -466h-135v202q0 34 10.5 66t29.5 76q16 36 23.5 57.5t7.5 41.5q0 37 -30 57l-46 -43l-56 42q-22 -14 -31 -41h5q45 0 74 -29t29 -74q0 -46 -30.5 -74t-77.5 -28q-51 0 -83 38.5
t-32 101.5q0 71 40 125t105 68l63 -51l64 51q57 -10 89 -45t32 -96q0 -26 -7.5 -50t-21.5 -56q-15 -37 -22.5 -60.5t-7.5 -50.5q0 -31 -1.5 -53.5t-5.5 -56.5l35 150l69 217q16 51 48 76t83 25q62 0 92.5 -31.5zM159.5 388q-12.5 12 -32.5 12q-19 0 -31.5 -12t-12.5 -32
t12 -32.5t32 -12.5t32.5 12.5t12.5 32.5t-12.5 32z" />
    <glyph glyph-name="uni0E12" unicode="&#xe12;" horiz-adv-x="876" 
d="M813 577v-577h-114q-15 32 -44.5 61t-68.5 48v-4q0 -50 -32 -82.5t-83 -32.5q-53 0 -86 32t-33 82q0 34 22 63.5t58 40.5v180q0 36 -8.5 58.5t-28.5 37.5l-92 -58l-102 63q-25 -16 -36.5 -45t-11.5 -73q0 -22 4.5 -43t14.5 -61q10 -34 15.5 -60t5.5 -52v-2q14 16 43 38
l33 29q-31 5 -49 27.5t-18 55.5q0 41 27.5 66t71.5 25q43 0 69.5 -26t26.5 -68q0 -37 -22 -65t-69 -71q-52 -44 -79 -79.5t-29 -84.5h-124v145q0 16 -8 48.5t-10 40.5q-13 50 -19.5 80t-6.5 54q0 80 44 140t131 78l100 -69l101 69q70 -10 112 -64.5t42 -133.5v-179
q65 -15 125 -62v430h128zM269.5 274q11.5 -11 29.5 -11t29.5 11t11.5 29q0 19 -11.5 30t-29.5 11t-29.5 -11t-11.5 -30q0 -18 11.5 -29zM498.5 72.5q12.5 12.5 12.5 32.5t-12.5 32t-32.5 12q-19 0 -31.5 -12t-12.5 -32t12 -32.5t32 -12.5t32.5 12.5z" />
    <glyph glyph-name="uni0E13" unicode="&#xe13;" horiz-adv-x="884" 
d="M822.5 163.5q17.5 -24.5 17.5 -56.5q0 -54 -31.5 -85.5t-84.5 -31.5q-52 0 -83 29.5t-33 79.5q-25 -13 -50 -39t-45 -60h-120v367q0 55 -29.5 87t-83.5 32q-47 0 -82 -19.5t-48 -52.5q75 -16 116 -42v-36q-34 -13 -53 -38t-19 -60v-33h5q48 0 78.5 -30t30.5 -77
q0 -48 -33 -78t-85 -30q-55 0 -89.5 32.5t-34.5 84.5v125q0 36 18.5 65t51.5 44q-20 6 -47.5 10.5t-55.5 7.5q1 67 33 118.5t89.5 80t132.5 28.5q70 0 122.5 -25.5t81 -71.5t28.5 -108v-250q14 20 36.5 38t45.5 29q43 22 63.5 40t20.5 48v291h127v-288q0 -29 -11 -52
t-30 -35q33 -14 50.5 -38.5zM755.5 65.5q12.5 12.5 12.5 32.5t-12.5 32.5t-31.5 12.5q-20 0 -32.5 -12.5t-12.5 -32.5t12.5 -32.5t32.5 -12.5q19 0 31.5 12.5zM166.5 129.5q-12.5 -12.5 -12.5 -31.5q0 -20 12.5 -32.5t32.5 -12.5t32.5 12.5t12.5 32.5q0 19 -12.5 31.5
t-32.5 12.5t-32.5 -12.5z" />
    <glyph glyph-name="uni0E14" unicode="&#xe14;" horiz-adv-x="614" 
d="M480.5 527q69.5 -59 69.5 -160v-367h-127v373q0 52 -36 82.5t-96 30.5q-61 0 -97.5 -31.5t-36.5 -82.5q0 -29 17 -95q10 -41 14.5 -65.5t4.5 -48.5v-6q28 33 77 71q-32 4 -52.5 28t-20.5 60q0 40 26.5 65.5t69.5 25.5t71 -26.5t28 -67.5q0 -37 -22 -67.5t-67 -73.5
q-49 -47 -75.5 -85t-29.5 -87h-124v148q0 21 -18 88q-27 100 -27 145q0 58 32.5 104.5t92 73.5t136.5 27q121 0 190.5 -59zM264 286q11 -11 30 -11q18 0 29 11t11 30q0 18 -11 29t-29 11q-19 0 -30 -11t-11 -29q0 -19 11 -30z" />
    <glyph glyph-name="uni0E15" unicode="&#xe15;" horiz-adv-x="628" 
d="M523 522q42 -54 42 -134v-388h-128v388q0 37 -8.5 59.5t-28.5 36.5l-95 -58l-104 63q-25 -17 -36.5 -45t-11.5 -73q0 -23 5 -47t15 -60t15 -58t5 -43v-10q12 14 47 43l26 22q-28 4 -45.5 26t-17.5 54q0 40 28 65.5t71 25.5t69.5 -26t26.5 -68q0 -37 -22 -64.5t-69 -67.5
q-51 -43 -78.5 -78.5t-30.5 -84.5h-124v148q0 17 -8 49t-10 39q-13 49 -19.5 78.5t-6.5 53.5q0 82 43.5 141t131.5 77l101 -69l104 69q71 -10 113 -64zM270 269q11 -11 30 -11q18 0 29 11t11 29t-11 29.5t-29 11.5q-19 0 -30 -11.5t-11 -29.5t11 -29z" />
    <glyph glyph-name="uni0E16" unicode="&#xe16;" horiz-adv-x="598" 
d="M420 560q55 -26 85 -72.5t30 -107.5v-380h-128v366q0 53 -33.5 86.5t-88.5 33.5q-47 0 -84.5 -20t-50.5 -52q33 -7 64.5 -18t51.5 -24v-36q-35 -13 -53.5 -38t-18.5 -60v-33h5q48 0 78.5 -30t30.5 -77q0 -48 -33 -78t-85 -30q-55 0 -89.5 32.5t-34.5 84.5v125
q0 36 18.5 65t51.5 44q-32 9 -103 18q1 67 34 118.5t92 80t135 28.5q71 0 126 -26zM166.5 129.5q-12.5 -12.5 -12.5 -31.5q0 -20 12.5 -32.5t32.5 -12.5t32.5 12.5t12.5 32.5q0 19 -12.5 31.5t-32.5 12.5t-32.5 -12.5z" />
    <glyph glyph-name="uni0E17" unicode="&#xe17;" horiz-adv-x="678" 
d="M582 552.5q33 -33.5 33 -97.5v-455h-128v453q0 32 -21 32q-18 0 -26 -19l-179 -466h-133v371h-5q-49 0 -79.5 29.5t-30.5 77.5q0 47 33 77.5t85 30.5q55 0 89.5 -32.5t34.5 -83.5v-230q0 -51 -8 -118l34 147l72 217q16 49 50.5 74.5t83.5 25.5q62 0 95 -33.5z
M154.5 445.5q12.5 12.5 12.5 32.5t-12.5 32.5t-32.5 12.5q-19 0 -32 -12.5t-13 -32.5q0 -19 13 -32t32 -13q20 0 32.5 12.5z" />
    <glyph glyph-name="uni0E18" unicode="&#xe18;" horiz-adv-x="584" 
d="M123 28q-59 37 -59 99v176h127v-161q0 -24 23.5 -37.5t66.5 -13.5t66.5 13.5t23.5 37.5v131q0 16 -4 24.5t-19 16t-48 14.5q-46 9 -124.5 20t-133.5 13q0 105 49 165t136 60q28 0 49.5 -4.5t54.5 -13.5q17 -5 33 -9t29 -4q38 0 47 33l88 -23q-14 -57 -42.5 -84t-73.5 -27
q-27 0 -81 16q-28 8 -46.5 12t-35.5 4q-29 0 -47.5 -12.5t-20.5 -30.5q63 -5 130.5 -17.5t105.5 -24.5q47 -15 64.5 -38.5t17.5 -59.5v-176q0 -62 -60 -99t-158 -37q-99 0 -158 37z" />
    <glyph glyph-name="uni0E19" unicode="&#xe19;" horiz-adv-x="650" 
d="M587.5 163q17.5 -25 17.5 -56q0 -54 -31.5 -85.5t-84.5 -31.5q-52 0 -83.5 30t-32.5 81q-39 -17 -72 -43.5t-52 -57.5h-121v371h-5q-49 0 -79.5 29.5t-30.5 77.5q0 47 33 77.5t85 30.5q55 0 89.5 -32.5t34.5 -83.5v-342q20 29 105 68q48 21 69.5 40.5t21.5 49.5v291h128
v-288q0 -29 -11 -52t-30 -35q32 -14 49.5 -39zM154.5 445.5q12.5 12.5 12.5 32.5t-12.5 32.5t-32.5 12.5q-19 0 -32 -12.5t-13 -32.5q0 -19 13 -32t32 -13q20 0 32.5 12.5zM521.5 66q12.5 13 12.5 32q0 20 -12.5 32.5t-32.5 12.5q-19 0 -32 -12.5t-13 -32.5q0 -19 13 -32
t32 -13q20 0 32.5 13z" />
    <glyph glyph-name="uni0E1A" unicode="&#xe1a;" horiz-adv-x="651" 
d="M588 577v-447q0 -65 -61.5 -102.5t-168.5 -37.5t-168.5 37.5t-61.5 102.5v241h-5q-49 0 -79.5 29.5t-30.5 77.5q0 47 33 77.5t85 30.5q55 0 89.5 -32.5t34.5 -83.5v-321q0 -27 27.5 -43t75.5 -16q47 0 74.5 16t27.5 43v428h128zM154.5 445.5q12.5 12.5 12.5 32.5
t-12.5 32.5t-32.5 12.5q-19 0 -32 -12.5t-13 -32.5q0 -19 13 -32t32 -13q20 0 32.5 12.5z" />
    <glyph glyph-name="uni0E1B" unicode="&#xe1b;" horiz-adv-x="669" 
d="M605 818v-688q0 -65 -63 -102.5t-175 -37.5q-111 0 -175 37.5t-64 102.5v241h-5q-49 0 -79.5 29.5t-30.5 77.5q0 47 33 77.5t85 30.5q55 0 89.5 -32.5t34.5 -83.5v-320q0 -28 30 -44t82 -16t81 16t29 44v668h128zM154.5 445.5q12.5 12.5 12.5 32.5t-12.5 32.5t-32.5 12.5
q-19 0 -32 -12.5t-13 -32.5q0 -19 13 -32t32 -13q20 0 32.5 12.5z" />
    <glyph glyph-name="uni0E1C" unicode="&#xe1c;" horiz-adv-x="649" 
d="M586 576v-576h-128l-134 213l-134 -213h-127v470q0 51 34 83.5t89 32.5q52 0 85 -30.5t33 -77.5q0 -48 -30 -77.5t-79 -29.5h-5v-194l91 134h87l90 -134v399h128zM163.5 510.5q-12.5 -12.5 -12.5 -32.5t12.5 -32.5t32.5 -12.5q19 0 31.5 12.5t12.5 32.5t-12.5 32.5
t-31.5 12.5q-20 0 -32.5 -12.5z" />
    <glyph glyph-name="uni0E1D" unicode="&#xe1d;" horiz-adv-x="649" 
d="M586 818v-818h-128l-134 213l-134 -213h-127v470q0 51 34 83.5t89 32.5q52 0 85 -30.5t33 -77.5q0 -48 -30 -77.5t-79 -29.5h-5v-194l91 134h87l90 -134v641h128zM163.5 510.5q-12.5 -12.5 -12.5 -32.5t12.5 -32.5t32.5 -12.5q19 0 31.5 12.5t12.5 32.5t-12.5 32.5
t-31.5 12.5q-20 0 -32.5 -12.5z" />
    <glyph glyph-name="uni0E1E" unicode="&#xe1e;" horiz-adv-x="739" 
d="M675 576v-576h-140l-133 427l-132 -427h-141v371h-6q-49 0 -79.5 29.5t-30.5 77.5q0 47 33 77.5t85 30.5q55 0 89.5 -32.5t34.5 -83.5v-211q0 -25 -5 -82l21 86l85 309h93l84 -309l21 -86q-5 57 -5 82v317h126zM154.5 445.5q12.5 12.5 12.5 32.5t-12.5 32.5t-32.5 12.5
q-19 0 -32 -12.5t-13 -32.5q0 -19 13 -32t32 -13q20 0 32.5 12.5z" />
    <glyph glyph-name="uni0E1F" unicode="&#xe1f;" horiz-adv-x="739" 
d="M675 818v-818h-140l-133 427l-132 -427h-141v371h-6q-49 0 -79.5 29.5t-30.5 77.5q0 47 33 77.5t85 30.5q55 0 89.5 -32.5t34.5 -83.5v-211q0 -25 -5 -82l21 86l85 309h93l84 -309l21 -86q-5 57 -5 82v559h126zM154.5 445.5q12.5 12.5 12.5 32.5t-12.5 32.5t-32.5 12.5
q-19 0 -32 -12.5t-13 -32.5q0 -19 13 -32t32 -13q20 0 32.5 12.5z" />
    <glyph glyph-name="uni0E20" unicode="&#xe20;" horiz-adv-x="630" 
d="M502.5 531q64.5 -55 64.5 -151v-380h-128v366q0 56 -33 88t-88 32q-43 0 -80.5 -18.5t-51.5 -53.5q33 -7 67 -18.5t54 -23.5v-36q-65 -24 -65 -77q0 -12 5 -40q12 -65 12 -106q0 -56 -35.5 -89.5t-94.5 -33.5q-52 0 -84 29.5t-32 76.5q0 49 29 79t76 30q13 0 22 -4
q-8 27 -8 52q0 26 10.5 49.5t29.5 38.5q-38 11 -103 18q1 66 33.5 117.5t90.5 80.5t134 29q111 0 175.5 -55zM155.5 66q12.5 13 12.5 32q0 20 -12.5 32.5t-32.5 12.5q-19 0 -32 -12.5t-13 -32.5q0 -19 13 -32t32 -13q20 0 32.5 13z" />
    <glyph glyph-name="uni0E21" unicode="&#xe21;" horiz-adv-x="630" 
d="M566 577v-578h-111q-34 31 -79 56.5t-89 41.5q-4 -47 -40.5 -77t-89.5 -30q-55 0 -89.5 33t-34.5 84q0 48 30.5 78.5t82.5 34.5v151h-5q-48 0 -78.5 29.5t-30.5 77.5q0 47 33 77.5t85 30.5q55 0 89.5 -32.5t34.5 -83.5v-264q46 -16 91 -35.5t74 -37.5v444h127z
M172.5 445.5q12.5 12.5 12.5 32.5t-12.5 32.5t-32.5 12.5q-19 0 -31.5 -12.5t-12.5 -32.5t12.5 -32.5t31.5 -12.5q20 0 32.5 12.5zM183.5 72.5q12.5 12.5 12.5 32.5t-12.5 32.5t-32.5 12.5t-32.5 -12.5t-12.5 -32.5t12.5 -32.5t32.5 -12.5t32.5 12.5z" />
    <glyph glyph-name="uni0E22" unicode="&#xe22;" horiz-adv-x="587" 
d="M524 576v-431q0 -73 -62.5 -114t-173.5 -41q-107 0 -171.5 41.5t-64.5 113.5v56q0 31 14.5 54.5t48.5 40.5q-38 20 -55 57t-17 83q0 68 37 109t102 41q53 0 83.5 -27.5t30.5 -74.5q0 -45 -29 -71.5t-78 -26.5q-7 0 -21 2q5 -48 51 -48h108v-92h-109q-18 0 -28.5 -11.5
t-10.5 -31.5v-48q0 -32 28.5 -49.5t80.5 -17.5t80 17.5t28 49.5v419h128zM155.5 519q-12.5 -12 -12.5 -32q0 -19 12.5 -31.5t31.5 -12.5q20 0 32 12.5t12 31.5q0 20 -12 32t-32 12q-19 0 -31.5 -12z" />
    <glyph glyph-name="uni0E23" unicode="&#xe23;" horiz-adv-x="498" 
d="M176.5 474q-16.5 -12 -17.5 -31q122 -11 194 -46.5t72 -86.5v-203q0 -52 -34.5 -84.5t-89.5 -32.5q-52 0 -85 30.5t-33 77.5q0 48 30 77.5t79 29.5h5v84q0 29 -85.5 50.5t-187.5 26.5q1 104 46 162t122 58q27 0 47.5 -4.5t44.5 -12.5q14 -5 28.5 -8.5t26.5 -3.5
q16 0 28 9.5t17 24.5l88 -27q-13 -52 -42.5 -81t-67.5 -29q-17 0 -32 4t-40 12q-48 16 -75 16q-22 0 -38.5 -12zM323.5 65.5q12.5 12.5 12.5 32.5t-12.5 32.5t-32.5 12.5q-19 0 -31.5 -12.5t-12.5 -32.5t12.5 -32.5t31.5 -12.5q20 0 32.5 12.5z" />
    <glyph glyph-name="uni0E24" unicode="&#xe24;" horiz-adv-x="598" 
d="M420 560q55 -26 85 -72.5t30 -107.5v-630h-128v616q0 53 -33.5 86.5t-88.5 33.5q-47 0 -84.5 -20t-50.5 -52q33 -7 64.5 -18t51.5 -24v-36q-35 -13 -53.5 -38t-18.5 -60v-33h5q48 0 78.5 -30t30.5 -77q0 -48 -33 -78t-85 -30q-55 0 -89.5 32.5t-34.5 84.5v125
q0 36 18.5 65t51.5 44q-32 9 -103 18q1 67 34 118.5t92 80t135 28.5q71 0 126 -26zM166.5 129.5q-12.5 -12.5 -12.5 -31.5q0 -20 12.5 -32.5t32.5 -12.5t32.5 12.5t12.5 32.5q0 19 -12.5 31.5t-32.5 12.5t-32.5 -12.5z" />
    <glyph glyph-name="uni0E24.short" horiz-adv-x="598" 
d="M420 560q55 -26 85 -72.5t30 -107.5v-578h-128v564q0 53 -33.5 86.5t-88.5 33.5q-47 0 -84.5 -20t-50.5 -52q33 -7 64.5 -18t51.5 -24v-36q-35 -13 -53.5 -38t-18.5 -60v-33h5q48 0 78.5 -30t30.5 -77q0 -48 -33 -78t-85 -30q-55 0 -89.5 32.5t-34.5 84.5v125
q0 36 18.5 65t51.5 44q-32 9 -103 18q1 67 34 118.5t92 80t135 28.5q71 0 126 -26zM166.5 129.5q-12.5 -12.5 -12.5 -31.5q0 -20 12.5 -32.5t32.5 -12.5t32.5 12.5t12.5 32.5q0 19 -12.5 31.5t-32.5 12.5t-32.5 -12.5z" />
    <glyph glyph-name="uni0E25" unicode="&#xe25;" horiz-adv-x="600" 
d="M418.5 564q56.5 -22 87.5 -62.5t31 -93.5v-408h-128v220q0 37 -32.5 59t-79.5 22q-48 0 -76.5 -20.5t-28.5 -54.5v-21h5q48 0 78.5 -29.5t30.5 -77.5q0 -47 -33 -77.5t-85 -30.5q-55 0 -89.5 32.5t-34.5 84.5v118q0 50 28 88t77 58.5t109 20.5q40 0 74 -11.5t57 -32.5v63
q0 34 -33 54.5t-89 20.5q-55 0 -91.5 -21.5t-43.5 -57.5h-124q5 82 73.5 130.5t185.5 48.5q75 0 131.5 -22zM229.5 130.5q-12.5 12.5 -32.5 12.5q-19 0 -32 -12.5t-13 -32.5q0 -19 13 -32t32 -13q20 0 32.5 12.5t12.5 32.5t-12.5 32.5z" />
    <glyph glyph-name="uni0E26" unicode="&#xe26;" horiz-adv-x="622" 
d="M494 531q64 -55 64 -151v-630h-127v616q0 56 -32 88t-85 32q-43 0 -78.5 -18t-49.5 -54q33 -7 67 -18.5t54 -23.5v-36q-65 -24 -65 -77q0 -12 5 -40q12 -65 12 -106q0 -56 -36 -89.5t-94 -33.5q-52 0 -84 29.5t-32 76.5q0 49 29 79t76 30q13 0 22 -4q-8 27 -8 52
q0 26 10.5 49.5t29.5 38.5q-38 11 -103 18q1 66 32 117.5t88.5 80.5t133.5 29q107 0 171 -55zM155.5 66q12.5 13 12.5 32q0 20 -12.5 32.5t-32.5 12.5q-19 0 -32 -12.5t-13 -32.5q0 -19 13 -32t32 -13q20 0 32.5 13z" />
    <glyph glyph-name="uni0E26.short" horiz-adv-x="622" 
d="M494 531q64 -55 64 -151v-570h-127v556q0 56 -32 88t-85 32q-43 0 -78.5 -18t-49.5 -54q33 -7 67 -18.5t54 -23.5v-36q-65 -24 -65 -77q0 -12 5 -40q12 -65 12 -106q0 -56 -36 -89.5t-94 -33.5q-52 0 -84 29.5t-32 76.5q0 49 29 79t76 30q13 0 22 -4q-8 27 -8 52
q0 26 10.5 49.5t29.5 38.5q-38 11 -103 18q1 66 32 117.5t88.5 80.5t133.5 29q107 0 171 -55zM155.5 66q12.5 13 12.5 32q0 20 -12.5 32.5t-32.5 12.5q-19 0 -32 -12.5t-13 -32.5q0 -19 13 -32t32 -13q20 0 32.5 13z" />
    <glyph glyph-name="uni0E27" unicode="&#xe27;" horiz-adv-x="535" 
d="M413 538.5q58 -47.5 58 -132.5v-299q0 -52 -34.5 -84.5t-89.5 -32.5q-52 0 -85 30.5t-33 77.5q0 48 30.5 77.5t78.5 29.5h5v194q0 42 -24.5 64.5t-71.5 22.5q-44 0 -71.5 -25.5t-33.5 -70.5h-127q4 92 66.5 144t167.5 52q106 0 164 -47.5zM370.5 66q12.5 13 12.5 32
q0 20 -12.5 32.5t-32.5 12.5t-32.5 -12.5t-12.5 -32.5t12.5 -32.5t32.5 -12.5t32.5 13z" />
    <glyph glyph-name="uni0E28" unicode="&#xe28;" horiz-adv-x="624" 
d="M520 506q40 -48 40 -116v-390h-127v377q0 20 -7 41q-19 -14 -61 -40q38 -25 38 -78q0 -44 -26 -69t-71 -25q-23 0 -42.5 8t-30.5 23q-16 -23 -26 -56.5t-10 -66.5v-114h-124v150q0 22 -19 90q-12 48 -18 76t-6 52q0 100 71.5 159t198.5 59q70 0 127 -19q15 31 20 65h140
q-13 -63 -67 -126zM205.5 353q27.5 31 66.5 39q59 46 92 84q-30 10 -64 10q-68 0 -107.5 -31t-39.5 -86q0 -32 11 -98q14 51 41.5 82zM333 271q11 11 11 30q0 18 -11 29t-29 11t-29.5 -11t-11.5 -29q0 -19 11.5 -30t29.5 -11t29 11z" />
    <glyph glyph-name="uni0E29" unicode="&#xe29;" horiz-adv-x="718" 
d="M614 247v-117q0 -65 -64 -102.5t-178 -37.5q-113 0 -178.5 37.5t-65.5 102.5v241h-5q-49 0 -79.5 29.5t-30.5 77.5q0 47 33 77.5t85 30.5q55 0 89.5 -32.5t34.5 -83.5v-321q0 -27 31.5 -43t85.5 -16t84 16t30 43v59q-9 -1 -27 -1q-54 0 -96 16.5t-65.5 46t-23.5 67.5
q0 41 27 67t69 26q43 0 69 -23.5t26 -61.5t-21 -58q14 -2 22 -2q13 0 20 1v291h128v-224q26 29 44 68l67 -53q-36 -78 -111 -121zM154.5 445.5q12.5 12.5 12.5 32.5t-12.5 32.5t-32.5 12.5q-19 0 -32 -12.5t-13 -32.5q0 -19 13 -32t32 -13q20 0 32.5 12.5zM396 311
q11 11 11 28t-10.5 27.5t-27.5 10.5q-16 0 -26.5 -10.5t-10.5 -27.5t10.5 -28t26.5 -11t27 11z" />
    <glyph glyph-name="uni0E2A" unicode="&#xe2a;" horiz-adv-x="600" 
d="M499 510q38 -44 38 -102v-408h-128v211q0 37 -32.5 59t-79.5 22q-48 0 -76.5 -20.5t-28.5 -55.5v-11h5q48 0 78.5 -29.5t30.5 -77.5q0 -47 -33 -77.5t-85 -30.5q-55 0 -89.5 32.5t-34.5 84.5v109q0 60 40.5 102.5t107.5 57.5q71 49 125 105q-23 5 -50 5
q-55 0 -91.5 -21.5t-43.5 -57.5h-124q5 82 73.5 130.5t185.5 48.5q69 0 120 -18q20 33 24 64h137q-3 -57 -69 -122zM403 436q-43 -28 -93 -55q62 -8 99 -42v72q0 13 -6 25zM229.5 130.5q-12.5 12.5 -32.5 12.5q-19 0 -32 -12.5t-13 -32.5q0 -19 13 -32t32 -13
q20 0 32.5 12.5t12.5 32.5t-12.5 32.5z" />
    <glyph glyph-name="uni0E2B" unicode="&#xe2b;" horiz-adv-x="645" 
d="M582 314v-314h-128v298q0 31 -19 31q-14 0 -28 -25l-166 -304h-113v371h-5q-49 0 -79.5 29.5t-30.5 77.5q0 47 33 77.5t85 30.5q55 0 89.5 -32.5t34.5 -83.5v-205q0 -54 -9 -101l102 188q20 38 51 54q-27 30 -27 74q0 46 30.5 76t77.5 30t78 -30t31 -76q0 -26 -10.5 -47
t-28.5 -36q32 -30 32 -83zM154.5 445.5q12.5 12.5 12.5 32.5t-12.5 32.5t-32.5 12.5q-19 0 -32 -12.5t-13 -32.5q0 -19 13 -32t32 -13q20 0 32.5 12.5zM448.5 510.5q-12.5 -12.5 -12.5 -32.5t12.5 -32.5t31.5 -12.5q20 0 32.5 12.5t12.5 32.5t-12.5 32.5t-32.5 12.5
q-19 0 -31.5 -12.5z" />
    <glyph glyph-name="uni0E2C" unicode="&#xe2c;" horiz-adv-x="739" 
d="M664 542q11 -24 11 -50v-492h-148l-125 275l-124 -275h-149v371h-6q-49 0 -79.5 29.5t-30.5 77.5q0 47 33 77.5t85 30.5q55 0 89.5 -32.5t34.5 -83.5v-229q0 -34 -5 -91l106 233h93l105 -233q-5 57 -5 91v152h-6q-49 0 -79 29.5t-30 77.5q0 47 33 77.5t85 30.5
q19 0 34 -4q18 18 19 47h120q-6 -66 -61 -109zM574.5 467.5q12.5 12.5 12.5 32.5t-12.5 32.5t-32.5 12.5q-19 0 -31.5 -12.5t-12.5 -32.5t12.5 -32.5t31.5 -12.5q20 0 32.5 12.5zM154.5 445.5q12.5 12.5 12.5 32.5t-12.5 32.5t-32.5 12.5q-19 0 -32 -12.5t-13 -32.5
q0 -19 13 -32t32 -13q20 0 32.5 12.5z" />
    <glyph glyph-name="loChulathai.short" horiz-adv-x="739" 
d="M664 521q11 -24 11 -51v-470h-148l-125 250l-124 -250h-149v371h-6q-49 0 -79.5 29.5t-30.5 77.5q0 47 33 77.5t85 30.5q55 0 89.5 -32.5t34.5 -83.5v-238q0 -34 -5 -91l106 217h93l105 -217q-5 57 -5 91v139h-6q-49 0 -79 29.5t-30 77.5q0 47 33 77.5t85 30.5
q19 0 34 -4q18 18 19 47h120q-12 -69 -61 -108zM154.5 445.5q12.5 12.5 12.5 32.5t-12.5 32.5t-32.5 12.5q-19 0 -32 -12.5t-13 -32.5q0 -19 13 -32t32 -13q20 0 32.5 12.5zM574.5 445.5q12.5 12.5 12.5 32.5t-12.5 32.5t-32.5 12.5q-19 0 -31.5 -12.5t-12.5 -32.5
t12.5 -32.5t31.5 -12.5q20 0 32.5 12.5z" />
    <glyph glyph-name="uni0E2D" unicode="&#xe2d;" horiz-adv-x="601" 
d="M421.5 563.5q55.5 -22.5 86 -62.5t30.5 -93v-268q0 -70 -61.5 -110t-166.5 -40q-106 0 -166 40.5t-60 109.5v130q0 52 34 83.5t88 31.5q53 0 85 -29.5t32 -76.5t-30.5 -75.5t-77.5 -28.5h-5v-28q0 -27 28.5 -42t73.5 -15q49 0 73.5 17.5t24.5 47.5v248q0 37 -32.5 60
t-86.5 23q-52 0 -89.5 -21.5t-44.5 -57.5h-124q4 54 38 94.5t91.5 62.5t130.5 22t128.5 -22.5zM184 311q-12 -12 -12 -31q0 -20 12 -32t32 -12q19 0 31.5 12t12.5 32q0 19 -12.5 31t-31.5 12q-20 0 -32 -12z" />
    <glyph glyph-name="uni0E2E" unicode="&#xe2e;" horiz-adv-x="584" 
d="M500 461q12 -30 12 -66v-254q0 -71 -61 -111t-167 -40t-166.5 40.5t-60.5 110.5v114q0 52 34 83.5t88 31.5q52 0 84 -29.5t32 -76.5t-30 -75.5t-77 -28.5h-5v-13q0 -27 28.5 -42t73.5 -15q49 0 74 17.5t25 47.5v245q-60 -17 -133 -17q-91 0 -145.5 26t-54.5 74t59.5 75.5
t156.5 27.5q101 0 168 -46q10 23 10 49h113q-3 -78 -58 -128zM362 478q-30 36 -105 36q-44 0 -70 -9t-26 -22q0 -11 21.5 -16.5t59.5 -5.5q73 0 120 17zM156.5 296q-12.5 -12 -12.5 -32q0 -19 12.5 -31.5t31.5 -12.5q20 0 32 12.5t12 31.5q0 20 -12 32t-32 12
q-19 0 -31.5 -12z" />
    <glyph glyph-name="uni0E30" unicode="&#xe30;" horiz-adv-x="548" 
d="M141.5 331.5q-47.5 17.5 -74 49.5t-26.5 73q0 48 34.5 80.5t86.5 32.5q51 0 85 -32.5t34 -80.5q0 -28 -14 -48q58 10 86.5 49.5t29.5 114.5h127q0 -74 -33 -132.5t-92.5 -91t-136.5 -32.5q-59 0 -106.5 17.5zM129.5 489q-12.5 -12 -12.5 -32q0 -19 12.5 -31.5t31.5 -12.5
q20 0 32.5 12t12.5 32t-12.5 32t-32.5 12q-19 0 -31.5 -12zM353.5 155q28.5 39 29.5 114h127q0 -75 -33 -133.5t-92.5 -91t-136.5 -32.5q-60 0 -107 18t-73.5 50t-26.5 73q0 48 34.5 80.5t86.5 32.5q51 0 85 -32.5t34 -80.5q0 -26 -14 -48q58 11 86.5 50zM193.5 123.5
q12.5 12.5 12.5 32.5t-12.5 32t-32.5 12q-19 0 -31.5 -12t-12.5 -32t12 -32.5t32 -12.5t32.5 12.5z" />
    <glyph glyph-name="uni0E32" unicode="&#xe32;" horiz-adv-x="510" 
d="M319 408q0 37 -23 57.5t-63 20.5q-45 0 -70 -25.5t-25 -70.5h-123q0 92 58 144t160 52q100 0 156.5 -45t56.5 -125v-416h-127v408z" />
    <glyph glyph-name="uni0E33" unicode="&#xe33;" horiz-adv-x="510" 
d="M-223 693.5q-36 34.5 -36 89.5t36 89.5t94 34.5t94.5 -34.5t36.5 -89.5t-36.5 -89.5t-94.5 -34.5t-94 34.5zM-88 742q16 16 16 41t-16 40.5t-41 15.5t-40.5 -15.5t-15.5 -40.5t15.5 -41t40.5 -16t41 16zM319 408q0 37 -23 57.5t-63 20.5q-45 0 -70 -25.5t-25 -70.5h-123
q0 92 58 144t160 52q100 0 156.5 -45t56.5 -125v-416h-127v408z" />
    <glyph glyph-name="uni0E40" unicode="&#xe40;" horiz-adv-x="326" 
d="M283.5 175q30.5 -30 30.5 -77q0 -48 -33 -78t-85 -30q-55 0 -89.5 32.5t-34.5 84.5v469h128v-371h5q48 0 78.5 -30zM237.5 65.5q12.5 12.5 12.5 32.5t-12.5 32.5t-32.5 12.5q-19 0 -32 -12.5t-13 -32.5q0 -19 13 -32t32 -13q20 0 32.5 12.5z" />
    <glyph glyph-name="uni0E41" unicode="&#xe41;" horiz-adv-x="616" 
d="M283.5 175q30.5 -30 30.5 -77q0 -48 -33 -78t-85 -30q-55 0 -89.5 32.5t-34.5 84.5v469h128v-371h5q48 0 78.5 -30zM237.5 65.5q12.5 12.5 12.5 32.5t-12.5 32.5t-32.5 12.5q-19 0 -32 -12.5t-13 -32.5q0 -19 13 -32t32 -13q20 0 32.5 12.5zM573.5 175q30.5 -30 30.5 -77
q0 -48 -33 -78t-85 -30q-55 0 -89.5 32.5t-34.5 84.5v469h128v-371h5q48 0 78.5 -30zM527.5 65.5q12.5 12.5 12.5 32.5t-12.5 32.5t-32.5 12.5q-19 0 -32 -12.5t-13 -32.5q0 -19 13 -32t32 -13q20 0 32.5 12.5z" />
    <glyph glyph-name="uni0E42" unicode="&#xe42;" horiz-adv-x="409" 
d="M343 174.5q31 -30.5 31 -76.5q0 -48 -33 -78t-85 -30q-55 0 -89.5 32.5t-34.5 84.5v585q0 30 -28 53.5t-70 37t-84 15.5q0 64 24.5 108.5t64 66.5t84.5 22q30 0 54 -8t51 -21q30 -16 44 -16q12 0 21 10.5t12 28.5l86 -16q-6 -49 -34 -82t-72 -33q-23 0 -41 5.5t-43 15.5
q-20 8 -34 12.5t-29 4.5q-23 0 -38.5 -10t-20.5 -28q90 -22 135.5 -58.5t45.5 -90.5v-504h5q47 0 78 -30.5zM297.5 65.5q12.5 12.5 12.5 32.5t-12.5 32.5t-32.5 12.5q-19 0 -32 -12.5t-13 -32.5q0 -19 13 -32t32 -13q20 0 32.5 12.5z" />
    <glyph glyph-name="uni0E43" unicode="&#xe43;" horiz-adv-x="425" 
d="M365.5 174.5q31.5 -30.5 31.5 -76.5q0 -48 -33 -78t-85 -30q-55 0 -89.5 32.5t-34.5 84.5v522q0 43 10.5 76t30.5 72q13 25 19.5 42t6.5 34q0 32 -24.5 49t-62.5 17q-46 0 -72 -28h6q39 0 66 -25.5t27 -66.5q0 -43 -30.5 -71.5t-81.5 -28.5t-83 31t-32 90q0 52 24.5 94
t71 66.5t111.5 24.5q87 0 146.5 -40.5t59.5 -108.5q0 -27 -7.5 -47.5t-22.5 -44.5q-17 -30 -26 -56t-9 -65v-438h5q46 0 77.5 -30.5zM81 826.5q-11 11.5 -30 11.5q-18 0 -29 -11.5t-11 -29.5t11 -29.5t29 -11.5q19 0 30 11.5t11 29.5t-11 29.5zM320.5 66q12.5 13 12.5 32
q0 20 -12.5 32.5t-32.5 12.5q-19 0 -32 -12.5t-13 -32.5q0 -19 13 -32t32 -13q20 0 32.5 13z" />
    <glyph glyph-name="uni0E44" unicode="&#xe44;" horiz-adv-x="449" 
d="M390.5 175q30.5 -30 30.5 -77q0 -48 -33 -78t-85 -30q-55 0 -89.5 32.5t-34.5 84.5v743l-104 -156l-96 31q-17 156 -44 286h103q23 -114 28 -193l119 178h122v-791h5q48 0 78.5 -30zM344.5 66q12.5 13 12.5 32q0 20 -12.5 32.5t-32.5 12.5q-19 0 -32 -12.5t-13 -32.5
q0 -19 13 -32t32 -13q20 0 32.5 13z" />
    <glyph glyph-name="uni0E45" unicode="&#xe45;" horiz-adv-x="304" 
d="M113 408q0 37 -22.5 57.5t-62.5 20.5q-45 0 -70.5 -25.5t-25.5 -70.5h-122q0 92 57.5 144t160.5 52q100 0 156.5 -45t56.5 -125v-666h-128v658z" />
    <glyph glyph-name="uni210A" unicode="&#x210a;" horiz-adv-x="503" 
d="M488 414l-77 4q17 -16 26.5 -42t9.5 -56q0 -86 -53 -135.5t-144 -49.5q-49 0 -84 13q-18 -11 -18 -24q0 -11 24.5 -18.5t90.5 -19.5q76 -14 115.5 -26.5t63 -39t23.5 -75.5q0 -70 -57.5 -106.5t-164.5 -36.5q-104 0 -160 33t-56 95q0 60 58 103q-41 26 -41 60q0 50 62 88
q-29 24 -44 59.5t-15 79.5q0 88 53 138.5t146 50.5q14 0 31.5 -3t27.5 -7l183 11v-96zM302 254.5q20 25.5 20 69.5t-20 69t-55 25q-34 0 -54 -25t-20 -69t20 -69.5t54 -25.5q35 0 55 25.5zM314.5 -41q-22.5 10 -75.5 22q-45 10 -87 23q-30 -30 -30 -64q0 -29 26.5 -43.5
t78.5 -14.5q53 0 81.5 12.5t28.5 36.5q0 18 -22.5 28z" />
    <glyph glyph-name="zero" unicode="0" horiz-adv-x="565" 
d="M92 82q-66 92 -66 268t66 268t191 92t190.5 -92t65.5 -268t-65.5 -268t-190.5 -92t-191 92zM367 157q28 63 28 193q0 131 -27.5 193.5t-84.5 62.5t-85 -62.5t-28 -193.5q0 -130 28 -193t85 -63q56 0 84 63z" />
    <glyph glyph-name="one" unicode="1" horiz-adv-x="565" 
d="M117 107h113v432l-130 -77v128l180 110h94v-593h112v-107h-369v107z" />
    <glyph glyph-name="two" unicode="2" horiz-adv-x="565" 
d="M56 104q67 47 136 112.5t118 141.5t49 145q0 43 -24 68t-66 25q-46 0 -87.5 -24.5t-67.5 -65.5l-77 80q35 59 96.5 91.5t136.5 32.5q109 0 171.5 -53.5t62.5 -148.5q0 -88 -69 -189t-188 -212h281v-107h-472v104z" />
    <glyph glyph-name="three" unicode="3" horiz-adv-x="565" 
d="M136 19.5q-61 28.5 -92 80.5l70 78q28 -33 71 -53t85 -20q50 0 80.5 28.5t30.5 75.5q0 50 -37 78t-102 28h-60v102h59q52 0 84 28.5t32 72.5q0 37 -24 57t-70 20q-45 0 -84 -19t-69 -54l-67 79q36 50 100 79t138 29q65 0 115 -22t77 -61.5t27 -91.5q0 -53 -28 -95
t-82 -67q68 -24 101.5 -67t33.5 -106q0 -62 -31 -109t-87.5 -73t-130.5 -26q-79 0 -140 28.5z" />
    <glyph glyph-name="four" unicode="4" horiz-adv-x="565" 
d="M328 109h-309v100l300 491h153v-477h74v-114h-74v-109h-144v109zM328 223v282l-174 -282h174z" />
    <glyph glyph-name="five" unicode="5" horiz-adv-x="565" 
d="M133 20q-63 30 -96 79l62 91q36 -42 78 -64t86 -22q56 0 88.5 36.5t32.5 100.5q0 59 -28.5 93t-78.5 34q-30 0 -57.5 -17.5t-41.5 -46.5h-119l34 396h413v-114h-286l-13 -152q14 17 45.5 28.5t62.5 11.5q63 0 111.5 -28.5t75 -81t26.5 -121.5q0 -76 -32.5 -133
t-91.5 -88.5t-137 -31.5q-71 0 -134 30z" />
    <glyph glyph-name="six" unicode="6" horiz-adv-x="565" 
d="M156 23.5q-57 33.5 -88 95t-31 141.5q0 114 57.5 215t156 165.5t217.5 74.5l14 -108q-79 -13 -144.5 -53.5t-102.5 -104.5q28 14 60 14q109 0 171.5 -64t62.5 -173q0 -70 -30 -123.5t-84.5 -83t-126.5 -29.5q-75 0 -132 33.5zM360.5 138.5q27.5 33.5 27.5 88.5t-27.5 88
t-73.5 33t-74 -33t-28 -88q0 -56 28 -89t74 -33t73.5 33.5z" />
    <glyph glyph-name="seven" unicode="7" horiz-adv-x="565" 
d="M216 323.5q40 140.5 132 262.5h-303v114h476v-93q-100 -108 -153.5 -267t-53.5 -340h-144q6 183 46 323.5z" />
    <glyph glyph-name="eight" unicode="8" horiz-adv-x="565" 
d="M150.5 16q-56.5 26 -87.5 73t-31 110q0 56 31 103.5t83 68.5q-40 16 -65.5 59.5t-25.5 89.5q0 57 28.5 100t80 66.5t119.5 23.5t119.5 -23.5t79.5 -66.5t28 -100q0 -46 -25.5 -89.5t-64.5 -59.5q52 -21 82.5 -68.5t30.5 -103.5q0 -62 -31 -109.5t-87.5 -73.5t-131.5 -26
q-76 0 -132.5 26zM344.5 445q23.5 24 23.5 63q0 40 -23.5 64t-61.5 24q-39 0 -62.5 -24t-23.5 -64q0 -39 23.5 -63t62.5 -24q38 0 61.5 24zM361 134q29 30 29 80q0 49 -29 78.5t-78 29.5t-78.5 -29t-29.5 -79t29.5 -80t78.5 -30t78 30z" />
    <glyph glyph-name="nine" unicode="9" horiz-adv-x="565" 
d="M84 94q84 16 154 57.5t101 100.5q-34 -14 -68 -14q-70 0 -123 30t-82 83.5t-29 122.5t30 122.5t84.5 83t126.5 29.5q75 0 132 -34t88 -95.5t31 -143.5q0 -123 -53 -220.5t-149 -157.5t-221 -73zM353 378.5q28 35.5 28 94.5q0 56 -28 89t-74 33t-73.5 -33.5t-27.5 -88.5
q0 -58 27.5 -94t72.5 -36q47 0 75 35.5z" />
    <glyph glyph-name="uni2080" unicode="&#x2080;" horiz-adv-x="430" 
d="M76 -95q-50 67 -50 185t50 185.5t139 67.5t139.5 -67.5t50.5 -185.5t-50.5 -185t-139.5 -67t-139 67zM259 -28.5q16 42.5 16 118.5t-16 118.5t-44 42.5t-44 -42.5t-16 -118.5t15.5 -118.5t44.5 -42.5q28 0 44 42.5z" />
    <glyph glyph-name="uni2081" unicode="&#x2081;" horiz-adv-x="430" 
d="M90 -58h76v253l-87 -51v114l130 80h87v-396h74v-94h-280v94z" />
    <glyph glyph-name="uni2082" unicode="&#x2082;" horiz-adv-x="430" 
d="M48 -71q43 29 90.5 73.5t81 96t33.5 96.5q0 22 -15 35.5t-42 13.5q-54 0 -97 -60l-65 66q27 46 73 70.5t102 24.5q83 0 128.5 -38.5t45.5 -107.5q0 -52 -40.5 -115.5t-121.5 -141.5h175v-94h-348v81z" />
    <glyph glyph-name="uni2083" unicode="&#x2083;" horiz-adv-x="430" 
d="M110 -140.5q-45 21.5 -68 58.5l62 68q23 -22 50 -34.5t52 -12.5q27 0 43 16.5t16 43.5q0 28 -19 43.5t-52 15.5h-56v87h55q26 0 41 15.5t15 40.5q0 20 -14.5 31.5t-39.5 11.5q-24 0 -51 -13t-48 -34l-58 70q28 37 75 57.5t102 20.5q75 0 119 -35.5t44 -95.5
q0 -31 -17.5 -60t-46.5 -47q37 -18 58.5 -49.5t21.5 -68.5q0 -70 -49 -110.5t-133 -40.5q-57 0 -102 21.5z" />
    <glyph glyph-name="uni2084" unicode="&#x2084;" horiz-adv-x="430" 
d="M231 -83h-209v88l204 333h135v-329h49v-92h-49v-69h-130v69zM231 9v176l-105 -176h105z" />
    <glyph glyph-name="uni2085" unicode="&#x2085;" horiz-adv-x="430" 
d="M106.5 -143q-48.5 19 -75.5 53l53 82q24 -24 56 -38.5t59 -14.5q33 0 50.5 21t17.5 59q0 33 -15.5 52.5t-42.5 19.5q-17 0 -31 -10.5t-23 -31.5h-107l25 289h308v-101h-213l-7 -81q31 29 79 29q70 0 113 -46t43 -119q0 -83 -49 -132.5t-136 -49.5q-56 0 -104.5 19z" />
    <glyph glyph-name="uni2086" unicode="&#x2086;" horiz-adv-x="430" 
d="M354 131q42 -45 42 -124q0 -76 -49 -122.5t-129 -46.5q-54 0 -96 24t-65 68t-23 101q0 81 42.5 152.5t116 116t160.5 47.5l13 -96q-42 -4 -83 -24t-70 -52q4 1 11 1q88 0 130 -45zM254.5 -41q14.5 19 14.5 49t-14.5 48.5t-37.5 18.5t-37 -18.5t-14 -48.5t14.5 -49
t36.5 -19q23 0 37.5 19z" />
    <glyph glyph-name="uni2087" unicode="&#x2087;" horiz-adv-x="430" 
d="M159.5 66.5q32.5 94.5 96.5 170.5h-217v101h351v-76q-66 -68 -102 -180.5t-36 -236.5h-129q4 127 36.5 221.5z" />
    <glyph glyph-name="uni2088" unicode="&#x2088;" horiz-adv-x="430" 
d="M119.5 -142.5q-41.5 19.5 -65 54t-23.5 78.5q0 36 22.5 68.5t56.5 44.5q-27 12 -45.5 42t-18.5 59q0 62 47 100.5t122 38.5q76 0 122.5 -38.5t46.5 -100.5q0 -30 -18 -59.5t-44 -41.5q33 -12 55 -44.5t22 -68.5q0 -67 -51 -109.5t-133 -42.5q-54 0 -95.5 19.5z
M244.5 160.5q11.5 13.5 11.5 33.5t-11.5 33.5t-29.5 13.5q-17 0 -28.5 -13.5t-11.5 -33.5t11.5 -33.5t28.5 -13.5q18 0 29.5 13.5zM255.5 -43.5q15.5 17.5 15.5 44.5q0 26 -15.5 43.5t-40.5 17.5t-40.5 -17.5t-15.5 -43.5q0 -27 15.5 -44.5t40.5 -17.5t40.5 17.5z" />
    <glyph glyph-name="uni2089" unicode="&#x2089;" horiz-adv-x="430" 
d="M308 320.5q42 -24.5 65 -68t23 -99.5q0 -86 -36.5 -155t-104.5 -111t-159 -51l-20 96q40 9 77 29t63 46h-10q-76 0 -124 47.5t-48 121.5q0 75 49.5 122t128.5 47q54 0 96 -24.5zM175.5 126.5q14.5 -18.5 37.5 -18.5t37.5 18.5t14.5 48.5t-14.5 49t-37.5 19t-37.5 -19
t-14.5 -49t14.5 -48.5z" />
    <glyph glyph-name="uni2070" unicode="&#x2070;" horiz-adv-x="430" 
d="M76 265q-50 67 -50 185t50 185.5t139 67.5t139.5 -67.5t50.5 -185.5t-50.5 -185t-139.5 -67t-139 67zM259 331.5q16 42.5 16 118.5t-16 118.5t-44 42.5t-44 -42.5t-16 -118.5t15.5 -118.5t44.5 -42.5q28 0 44 42.5z" />
    <glyph glyph-name="uni00B9" unicode="&#xb9;" horiz-adv-x="430" 
d="M90 302h76v253l-87 -51v114l130 80h87v-396h74v-94h-280v94z" />
    <glyph glyph-name="uni00B2" unicode="&#xb2;" horiz-adv-x="430" 
d="M48 289q43 29 90.5 73.5t81 96t33.5 96.5q0 22 -15 35.5t-42 13.5q-54 0 -97 -60l-65 66q27 46 73 70.5t102 24.5q83 0 128.5 -38.5t45.5 -107.5q0 -52 -40.5 -115.5t-121.5 -141.5h175v-94h-348v81z" />
    <glyph glyph-name="uni00B3" unicode="&#xb3;" horiz-adv-x="430" 
d="M110 219.5q-45 21.5 -68 58.5l62 68q23 -22 50 -34.5t52 -12.5q27 0 43 16.5t16 43.5q0 28 -19 43.5t-52 15.5h-56v87h55q26 0 41 15.5t15 40.5q0 20 -14.5 31.5t-39.5 11.5q-24 0 -51 -13t-48 -34l-58 70q28 37 75 57.5t102 20.5q75 0 119 -35.5t44 -95.5
q0 -31 -17.5 -60t-46.5 -47q37 -18 58.5 -49.5t21.5 -68.5q0 -70 -49 -110.5t-133 -40.5q-57 0 -102 21.5z" />
    <glyph glyph-name="uni2074" unicode="&#x2074;" horiz-adv-x="430" 
d="M231 277h-209v88l204 333h135v-329h49v-92h-49v-69h-130v69zM231 369v176l-105 -176h105z" />
    <glyph glyph-name="uni2075" unicode="&#x2075;" horiz-adv-x="430" 
d="M106.5 217q-48.5 19 -75.5 53l53 82q24 -24 56 -38.5t59 -14.5q33 0 50.5 21t17.5 59q0 33 -15.5 52.5t-42.5 19.5q-17 0 -31 -10.5t-23 -31.5h-107l25 289h308v-101h-213l-7 -81q31 29 79 29q70 0 113 -46t43 -119q0 -83 -49 -132.5t-136 -49.5q-56 0 -104.5 19z" />
    <glyph glyph-name="uni2076" unicode="&#x2076;" horiz-adv-x="430" 
d="M354 491q42 -45 42 -124q0 -76 -49 -122.5t-129 -46.5q-54 0 -96 24t-65 68t-23 101q0 81 42.5 152.5t116 116t160.5 47.5l13 -96q-42 -4 -83 -24t-70 -52q4 1 11 1q88 0 130 -45zM254.5 319q14.5 19 14.5 49t-14.5 48.5t-37.5 18.5t-37 -18.5t-14 -48.5t14.5 -49
t36.5 -19q23 0 37.5 19z" />
    <glyph glyph-name="uni2077" unicode="&#x2077;" horiz-adv-x="430" 
d="M159.5 426.5q32.5 94.5 96.5 170.5h-217v101h351v-76q-66 -68 -102 -180.5t-36 -236.5h-129q4 127 36.5 221.5z" />
    <glyph glyph-name="uni2078" unicode="&#x2078;" horiz-adv-x="430" 
d="M119.5 217.5q-41.5 19.5 -65 54t-23.5 78.5q0 36 22.5 68.5t56.5 44.5q-27 12 -45.5 42t-18.5 59q0 62 47 100.5t122 38.5q76 0 122.5 -38.5t46.5 -100.5q0 -30 -18 -59.5t-44 -41.5q33 -12 55 -44.5t22 -68.5q0 -67 -51 -109.5t-133 -42.5q-54 0 -95.5 19.5z
M244.5 520.5q11.5 13.5 11.5 33.5t-11.5 33.5t-29.5 13.5q-17 0 -28.5 -13.5t-11.5 -33.5t11.5 -33.5t28.5 -13.5q18 0 29.5 13.5zM255.5 316.5q15.5 17.5 15.5 44.5q0 26 -15.5 43.5t-40.5 17.5t-40.5 -17.5t-15.5 -43.5q0 -27 15.5 -44.5t40.5 -17.5t40.5 17.5z" />
    <glyph glyph-name="uni2079" unicode="&#x2079;" horiz-adv-x="430" 
d="M308 680.5q42 -24.5 65 -68t23 -99.5q0 -86 -36.5 -155t-104.5 -111t-159 -51l-20 96q40 9 77 29t63 46h-10q-76 0 -124 47.5t-48 121.5q0 75 49.5 122t128.5 47q54 0 96 -24.5zM175.5 486.5q14.5 -18.5 37.5 -18.5t37.5 18.5t14.5 48.5t-14.5 49t-37.5 19t-37.5 -19
t-14.5 -49t14.5 -48.5z" />
    <glyph glyph-name="fraction" unicode="&#x2044;" horiz-adv-x="226" 
d="M254 719h105l-387 -757h-105z" />
    <glyph glyph-name="onehalf" unicode="&#xbd;" horiz-adv-x="1022" 
d="M635 719h105l-386 -757h-105zM87 351h68v226l-78 -46v101l116 72h77v-353h66v-83h-249v83zM645 72q65 45 124 111.5t59 124.5q0 20 -13.5 32t-37.5 12q-48 0 -86 -54l-58 59q24 41 65.5 63t90.5 22q74 0 114.5 -34.5t40.5 -96.5q0 -89 -144 -228h155v-83h-310v72z" />
    <glyph glyph-name="uni2153" unicode="&#x2153;" horiz-adv-x="1022" 
d="M640 719h105l-387 -757h-104zM87 351h68v226l-78 -46v101l116 72h77v-353h66v-83h-249v83zM707 8q-40 19 -60 52l55 61q20 -20 44 -31t46 -11q24 0 38 14.5t14 38.5q0 25 -17 39t-46 14h-49v77h48q23 0 36.5 13.5t13.5 36.5q0 17 -12.5 27.5t-34.5 10.5t-46 -11.5
t-42 -30.5l-52 62q25 33 67 51.5t90 18.5q67 0 106 -32t39 -85q0 -28 -15.5 -53.5t-41.5 -41.5q33 -16 52.5 -44t19.5 -61q0 -62 -44 -98t-119 -36q-50 0 -90 19z" />
    <glyph glyph-name="uni2154" unicode="&#x2154;" horiz-adv-x="1022" 
d="M653 719h105l-386 -757h-105zM68 341q65 45 124 111.5t59 124.5q0 20 -13.5 32t-37.5 12q-48 0 -86 -54l-58 59q24 41 65.5 63t90.5 22q73 0 113.5 -34t40.5 -96q0 -46 -36 -102.5t-108 -126.5h156v-83h-310v72zM710 8q-40 19 -60 52l55 61q21 -20 45 -31t45 -11
q24 0 38.5 14.5t14.5 38.5q0 25 -17 39t-46 14h-50v77h49q22 0 35.5 13.5t13.5 36.5q0 17 -12.5 27.5t-34.5 10.5t-45.5 -11.5t-42.5 -30.5l-52 62q25 33 67 51.5t91 18.5q66 0 105 -32t39 -85q0 -28 -15.5 -53.5t-41.5 -41.5q34 -16 53 -44t19 -61q0 -62 -43.5 -98
t-118.5 -36q-51 0 -91 19z" />
    <glyph glyph-name="onequarter" unicode="&#xbc;" horiz-adv-x="1022" 
d="M665 719h105l-387 -757h-104zM87 351h68v226l-78 -46v101l116 72h77v-353h66v-83h-249v83zM798 62h-186v77l181 296h121v-292h43v-81h-43v-62h-116v62zM798 143v157l-94 -157h94z" />
    <glyph glyph-name="threequarters" unicode="&#xbe;" horiz-adv-x="1022" 
d="M647 719h104l-386 -757h-105zM114 279q-41 19 -60 52l55 61q21 -20 45 -31t45 -11q24 0 38.5 14.5t14.5 38.5q0 25 -17 39t-46 14h-50v77h49q23 0 36.5 13.5t13.5 36.5q0 17 -13 27.5t-35 10.5t-45.5 -11.5t-42.5 -30.5l-52 62q25 33 67 51.5t91 18.5q66 0 105.5 -31.5
t39.5 -84.5q0 -29 -15.5 -54.5t-42.5 -41.5q34 -16 53 -44t19 -61q0 -62 -43.5 -98t-118.5 -36q-50 0 -91 19zM781 62h-186v77l182 296h120v-292h43v-81h-43v-62h-116v62zM781 143v157l-93 -157h93z" />
    <glyph glyph-name="oneeighth" unicode="&#x215b;" horiz-adv-x="1022" 
d="M640 719h105l-387 -757h-104zM87 351h68v226l-78 -46v101l116 72h77v-353h66v-83h-249v83zM684.5 26q-45.5 38 -45.5 97q0 32 20 61t50 40q-24 10 -40 37t-16 53q0 55 41.5 88.5t108.5 33.5t108.5 -33.5t41.5 -88.5q0 -27 -15.5 -53.5t-39.5 -36.5q30 -11 49.5 -40
t19.5 -61q0 -59 -45.5 -97t-118.5 -38t-118.5 38zM829 275q10 12 10 30t-10 29.5t-26 11.5t-26 -11.5t-10 -29.5t10 -30t26 -12t26 12zM839 93.5q14 15.5 14 39.5q0 23 -14 38.5t-36 15.5t-36 -15.5t-14 -38.5q0 -24 14 -39.5t36 -15.5t36 15.5z" />
    <glyph glyph-name="threeeighths" unicode="&#x215c;" horiz-adv-x="1022" 
d="M623 719h105l-386 -757h-105zM98 279q-40 19 -60 52l54 61q21 -20 45 -31t46 -11q24 0 38 14.5t14 38.5q0 25 -17 39t-46 14h-49v77h48q23 0 36.5 13.5t13.5 36.5q0 17 -12.5 27.5t-34.5 10.5t-46 -11.5t-43 -30.5l-52 62q25 33 67 51.5t91 18.5q66 0 105.5 -31.5
t39.5 -84.5q0 -28 -15.5 -54t-41.5 -42q33 -16 52 -44t19 -61q0 -62 -43.5 -98t-118.5 -36q-50 0 -90 19zM677.5 25.5q-45.5 37.5 -45.5 97.5q0 32 20 61t50 40q-25 10 -41 36.5t-16 53.5q0 55 41.5 88.5t109.5 33.5q67 0 108.5 -33.5t41.5 -88.5q0 -27 -16 -53.5t-40 -36.5
q30 -11 49.5 -40t19.5 -61q0 -59 -45.5 -97t-117.5 -38q-73 0 -118.5 37.5zM821 275q10 12 10 30t-10 29.5t-25 11.5q-16 0 -26 -11.5t-10 -29.5t10 -30t26 -12q15 0 25 12zM831.5 93.5q13.5 15.5 13.5 39.5q0 23 -13.5 38.5t-35.5 15.5t-36 -15t-14 -39t14 -39.5t36 -15.5
t35.5 15.5z" />
    <glyph glyph-name="fiveeighths" unicode="&#x215d;" horiz-adv-x="1022" 
d="M642 719h105l-386 -757h-105zM124.5 275.5q-43.5 16.5 -67.5 47.5l48 73q21 -21 49 -34t53 -13q29 0 45 19t16 52q0 29 -14.5 46.5t-37.5 17.5q-32 0 -48 -38h-96l23 258h273v-90h-189l-6 -72q27 25 70 25q62 0 100.5 -40.5t38.5 -105.5q0 -74 -43.5 -118t-120.5 -44
q-50 0 -93.5 16.5zM679.5 26q-45.5 38 -45.5 97q0 32 20 61t50 40q-24 10 -40 37t-16 53q0 55 41.5 88.5t108.5 33.5t108.5 -33.5t41.5 -88.5q0 -27 -15.5 -53.5t-39.5 -36.5q30 -11 49.5 -40t19.5 -61q0 -59 -45.5 -97t-118.5 -38t-118.5 38zM824 275q10 12 10 30t-10 29.5
t-26 11.5t-26 -11.5t-10 -29.5t10 -30t26 -12t26 12zM834 93.5q14 15.5 14 39.5q0 23 -14 38.5t-36 15.5t-36 -15.5t-14 -38.5q0 -24 14 -39.5t36 -15.5t36 15.5z" />
    <glyph glyph-name="seveneighths" unicode="&#x215e;" horiz-adv-x="1022" 
d="M618 719h105l-386 -757h-105zM191 463.5q29 84.5 86 151.5h-193v90h312v-68q-59 -61 -91 -161t-32 -209h-114q3 112 32 196.5zM680.5 26q-45.5 38 -45.5 97q0 32 20 61t50 40q-24 10 -40 37t-16 53q0 55 41.5 88.5t108.5 33.5t108.5 -33.5t41.5 -88.5q0 -27 -15.5 -53.5
t-39.5 -36.5q30 -11 49.5 -40t19.5 -61q0 -59 -45.5 -97t-118.5 -38t-118.5 38zM825 275q10 12 10 30t-10 29.5t-26 11.5t-26 -11.5t-10 -29.5t10 -30t26 -12t26 12zM835 93.5q14 15.5 14 39.5q0 23 -14 38.5t-36 15.5t-36 -15.5t-14 -38.5q0 -24 14 -39.5t36 -15.5t36 15.5
z" />
    <glyph glyph-name="uni0E50" unicode="&#xe50;" horiz-adv-x="666" 
d="M183.5 18.5q-65.5 28.5 -102 79t-36.5 114.5t36.5 114.5t102 79t149.5 28.5t149.5 -28.5t102 -79t36.5 -114.5t-36.5 -114.5t-102 -79t-149.5 -28.5t-149.5 28.5zM453 121q46 35 46 91t-46 91.5t-120 35.5t-120 -35.5t-46 -91.5t46 -91t120 -35t120 35z" />
    <glyph glyph-name="uni0E51" unicode="&#xe51;" horiz-adv-x="691" 
d="M498 403q69 -31 108.5 -88.5t39.5 -134.5q0 -56 -22 -111.5t-60 -91.5h-133q44 37 69 90t25 106q0 74 -51.5 120t-132.5 46q-77 0 -126 -39t-49 -101q0 -56 30.5 -92t79.5 -36q20 0 36.5 8.5t25.5 22.5h-1q-41 0 -68.5 26t-27.5 66q0 41 28.5 66.5t74.5 25.5
q48 0 78 -30.5t30 -79.5q0 -52 -24.5 -94.5t-69 -67t-103.5 -24.5q-97 0 -153.5 56t-56.5 151q0 70 38.5 124t106.5 83.5t152 29.5q87 0 156 -31zM314.5 165.5q11.5 -11.5 28.5 -11.5q18 0 29 11.5t11 28.5q0 18 -11 29t-29 11q-17 0 -28.5 -11t-11.5 -29q0 -17 11.5 -28.5z
" />
    <glyph glyph-name="uni0E52" unicode="&#xe52;" horiz-adv-x="716" 
d="M635.5 382q35.5 -52 35.5 -151q0 -120 -74.5 -180.5t-220.5 -60.5q-150 0 -231 52.5t-81 153.5v271q0 17 -11 27t-31 11v103h56q53 0 81 -25.5t28 -73.5v-308q0 -61 47.5 -88t143.5 -27q95 0 139 36.5t44 116.5q0 52 -12.5 82.5t-35.5 30.5q-17 0 -28 -14.5t-12 -40.5
h-54q-4 26 -18 41t-34 15q-18 0 -32 -12.5t-21 -33.5q13 5 25 5q40 0 65.5 -25.5t25.5 -66.5q0 -40 -28.5 -65.5t-73.5 -25.5q-52 0 -81.5 34.5t-29.5 96.5q0 77 38.5 125.5t101.5 48.5q27 0 50.5 -14t36.5 -38q11 25 34 38.5t52 13.5q70 0 105.5 -52zM357.5 250.5
q-10.5 10.5 -27.5 10.5t-27.5 -10.5t-10.5 -27.5t10.5 -27.5t27.5 -10.5t27.5 10.5t10.5 27.5t-10.5 27.5z" />
    <glyph glyph-name="uni0E53" unicode="&#xe53;" horiz-adv-x="709" 
d="M613 394.5q41 -39.5 41 -110.5v-284h-122v287q0 23 -13 37.5t-37 14.5q-23 0 -37 -15.5t-14 -39.5v-284h-112v269q0 31 -17 50.5t-46 19.5q-77 0 -85 -125q-1 -8 -0.5 -18t0.5 -14q16 7 30 7q41 0 66.5 -28t25.5 -73q0 -43 -30.5 -70.5t-78.5 -27.5q-67 0 -103 53
t-36 152q0 111 54 175t146 64q47 0 81 -16.5t50 -46.5q16 30 48 46.5t75 16.5q73 0 114 -39.5zM217.5 118.5q-11.5 11.5 -28.5 11.5q-18 0 -29 -11.5t-11 -28.5q0 -18 11 -29t29 -11q17 0 28.5 11.5t11.5 28.5t-11.5 28.5z" />
    <glyph glyph-name="uni0E54" unicode="&#xe54;" horiz-adv-x="688" 
d="M547.5 8q-37.5 11 -62.5 11q-16 0 -77 -11q-36 -6 -75 -12t-64 -6q-65 0 -116 25t-79.5 73t-28.5 115q0 113 77.5 170.5t217.5 61.5q89 3 118 5.5t55 13.5q32 13 54 52.5t24 101.5h106q-7 -78 -26.5 -125.5t-50 -73.5t-76.5 -43q-33 -12 -79 -15t-125 -3
q-80 0 -126.5 -36.5t-46.5 -109.5q0 -58 32.5 -91.5t82.5 -33.5q22 0 68 6q10 1 42 4q-64 13 -98.5 47t-34.5 79q0 43 30 70t76 27q45 0 74 -26t29 -65q0 -24 -12 -47.5t-31 -34.5q84 -17 139.5 -36t107.5 -53l-47 -74q-40 23 -77.5 34zM391 187q11 11 11 28q0 18 -11 29
t-28 11q-18 0 -29 -11t-11 -29q0 -17 11 -28t29 -11q17 0 28 11z" />
    <glyph glyph-name="uni0E55" unicode="&#xe55;" horiz-adv-x="688" 
d="M456 171.5q-12 -23.5 -31 -34.5q84 -17 139.5 -36t107.5 -53l-47 -74q-40 23 -77.5 34t-62.5 11q-16 0 -77 -11q-36 -6 -75 -12t-64 -6q-65 0 -116 25t-79.5 73t-28.5 115q0 100 61.5 157t175.5 71q-15 24 -15 51q0 48 31 78.5t80 30.5q50 0 82 -30.5t32 -78.5
q0 -19 -8 -38q16 5 29 10q32 13 54 52.5t24 101.5h106q-7 -78 -26.5 -125.5t-50 -73.5t-76.5 -43q-33 -12 -79 -15t-125 -3q-80 0 -126.5 -36.5t-46.5 -109.5q0 -58 32.5 -91.5t82.5 -33.5q22 0 68 6q10 1 42 4q-64 13 -98.5 47t-34.5 79q0 43 30 70t76 27q45 0 74 -26
t29 -65q0 -24 -12 -47.5zM346.5 515.5q-12.5 -12.5 -12.5 -32.5t12.5 -32t32.5 -12t32.5 12t12.5 32t-12.5 32.5t-32.5 12.5t-32.5 -12.5zM391 187q11 11 11 28q0 18 -11 29t-28 11q-18 0 -29 -11t-11 -29q0 -17 11 -28t29 -11q17 0 28 11z" />
    <glyph glyph-name="uni0E56" unicode="&#xe56;" horiz-adv-x="673" 
d="M167 30q-58 40 -58 108q0 44 30 72t77 28q48 0 78 -27.5t30 -70.5q0 -16 -4.5 -31.5t-12.5 -26.5l16 -1q85 0 134.5 34t49.5 98q0 60 -41.5 93t-110.5 33q-56 0 -101 -16.5t-76 -45.5h-81q-5 90 -29 187.5t-51 143.5h124q20 -41 34.5 -100.5t19.5 -115.5q31 20 75.5 31
t90.5 11q80 0 140.5 -27t93.5 -76t33 -115q0 -67 -37 -118t-104.5 -79.5t-156.5 -28.5q-105 0 -163 40zM244.5 108q11.5 11 11.5 29t-11.5 29t-29.5 11q-17 0 -28.5 -11t-11.5 -29t11.5 -29t28.5 -11q18 0 29.5 11z" />
    <glyph glyph-name="uni0E57" unicode="&#xe57;" horiz-adv-x="793" 
d="M771 608q-18 -50 -22.5 -118.5t-4.5 -180.5q-1 -149 -66.5 -229t-191.5 -89l-61 43q45 116 45 217q0 37 -12 59.5t-32 22.5q-18 0 -28.5 -15t-10.5 -43v-95h-97v95q0 25 -14 41.5t-35 16.5q-31 0 -48.5 -28t-21.5 -91q-1 -7 -0.5 -17t0.5 -14q13 5 27 5q42 0 69 -28
t27 -72q0 -43 -30.5 -70.5t-79.5 -27.5q-67 0 -103 54t-36 151q0 111 50 175t137 64q32 0 61.5 -16t46.5 -48q35 64 101 64q70 0 108.5 -48t38.5 -137q0 -63 -22 -135q35 39 47.5 74t13.5 103v104q0 78 5.5 127t22.5 86h116zM218 118.5q-11 11.5 -29 11.5t-29 -11.5
t-11 -29.5q0 -17 11 -28.5t29 -11.5t29 11.5t11 28.5q0 18 -11 29.5z" />
    <glyph glyph-name="uni0E58" unicode="&#xe58;" horiz-adv-x="684" 
d="M202.5 302.5q-35.5 -28.5 -35.5 -95.5q0 -26 6 -52t16 -41q22 29 53.5 56.5t69.5 45.5q15 -39 41.5 -71t56.5 -49.5t54 -17.5q10 0 15 1q-23 10 -36.5 32t-13.5 52q0 43 27.5 69.5t71.5 26.5q47 0 76.5 -29t29.5 -76q0 -73 -46 -118.5t-126 -45.5q-47 0 -91.5 23
t-90.5 77q-18 -16 -37 -41t-30 -49h-75q-93 65 -93 203q0 112 68.5 171.5t198.5 59.5q13 0 73 -5q27 -3 41 -3q44 0 70.5 30.5t26.5 91.5v60h117v-64q0 -103 -49.5 -162.5t-143.5 -59.5q-11 0 -63 4q-47 5 -69 5q-77 0 -112.5 -28.5zM500 193q-11 -11 -11 -29
q0 -17 11 -28.5t29 -11.5q17 0 28 11.5t11 28.5q0 18 -11 29t-28 11q-18 0 -29 -11z" />
    <glyph glyph-name="uni0E59" unicode="&#xe59;" horiz-adv-x="700" 
d="M474 329q-6 -9 -8 -27q26 -75 70.5 -136t97.5 -105l-71 -72q-68 61 -125.5 141t-81.5 152q-8 22 -31.5 37t-54.5 15q-46 0 -74.5 -33t-28.5 -92q0 -42 17 -74q5 26 32.5 44t61.5 18q47 0 77 -28.5t30 -73.5q0 -46 -35 -75.5t-91 -29.5q-64 0 -112.5 28.5t-75 78.5
t-26.5 113q0 64 28 115t78.5 80t114.5 29q35 0 74 -12.5t64 -36.5q4 20 19.5 34.5t37.5 14.5q17 0 31.5 -7t34.5 -21q23 -18 36 -18t19 22.5t6 59.5q0 62 -14 138h98q12 -69 12 -129q0 -174 -107 -174q-16 0 -28 5t-27 15q-20 13 -31 13t-17 -9zM248 124q-11 -11 -11 -29
q0 -17 11 -28.5t29 -11.5q17 0 28.5 11.5t11.5 28.5q0 18 -11.5 29t-28.5 11q-18 0 -29 -11z" />
    <glyph glyph-name="period" unicode="." horiz-adv-x="291" 
d="M85 15q-24 24 -24 61q0 38 24 62t61 24t60.5 -24t23.5 -62q0 -37 -23.5 -61t-60.5 -24t-61 24z" />
    <glyph glyph-name="comma" unicode="," horiz-adv-x="291" 
d="M214.5 126.5q25.5 -29.5 25.5 -77.5q0 -63 -36.5 -130.5t-94.5 -109.5l-57 65q24 19 45 50.5t32 66.5q-3 -1 -10 -1q-27 0 -46.5 21.5t-19.5 55.5q0 40 26.5 64.5t67.5 24.5q42 0 67.5 -29.5z" />
    <glyph glyph-name="colon" unicode=":" horiz-adv-x="291" 
d="M85 348q-24 24 -24 61q0 38 24 62t61 24t60.5 -24t23.5 -62q0 -37 -23.5 -61t-60.5 -24t-61 24zM85 14q-24 24 -24 62t24 61.5t61 23.5t60.5 -24t23.5 -61q0 -38 -23.5 -62t-60.5 -24t-61 24z" />
    <glyph glyph-name="semicolon" unicode=";" horiz-adv-x="291" 
d="M85 348q-24 24 -24 61q0 38 24 62t61 24t60.5 -24t23.5 -62q0 -37 -23.5 -61t-60.5 -24t-61 24zM214.5 126.5q25.5 -29.5 25.5 -77.5q0 -63 -36 -130.5t-95 -109.5l-57 65q25 19 46 50.5t32 66.5q-4 -1 -11 -1q-27 0 -46.5 21.5t-19.5 55.5q0 40 26.5 64.5t67.5 24.5
q42 0 67.5 -29.5z" />
    <glyph glyph-name="ellipsis" unicode="&#x2026;" horiz-adv-x="799" 
d="M76.5 14q-23.5 24 -23.5 61q0 38 23.5 62t60.5 24t61 -24t24 -62q0 -37 -23.5 -61t-61.5 -24q-37 0 -60.5 24zM338.5 14q-23.5 24 -23.5 61q0 38 23.5 62t60.5 24t61 -24t24 -62q0 -37 -23.5 -61t-61.5 -24q-37 0 -60.5 24zM601 14q-24 24 -24 61q0 38 24 62t61 24
t60.5 -24t23.5 -62q0 -37 -23.5 -61t-60.5 -24t-61 24z" />
    </font>
</defs>
</svg>
